<mxfile host="app.diagrams.net" modified="2022-04-21T11:40:44.944Z" agent="5.0 (Windows NT 10.0; Win64; x64) AppleWebKit/537.36 (KHTML, like Gecko) Chrome/100.0.4896.127 Safari/537.36 Edg/100.0.1185.44" etag="UVAqpwZHuhtqXiv1r_f1" version="17.4.6" type="github">
  <diagram id="g5tDwbg47fkVE9it15gv" name="第 1 页">
    <mxGraphModel dx="1422" dy="882" grid="1" gridSize="10" guides="1" tooltips="1" connect="1" arrows="1" fold="1" page="1" pageScale="1" pageWidth="827" pageHeight="1169" math="0" shadow="0">
      <root>
        <mxCell id="0" />
        <mxCell id="1" parent="0" />
        <mxCell id="erdwm7UFil0JZydvI_QE-2" value="" style="shape=image;verticalLabelPosition=bottom;verticalAlign=top;imageAspect=0;aspect=fixed;image=data:image/png,iVBORw0KGgoAAAANSUhEUgAAAZAAAAGQCAYAAACAvzbMAAAgAElEQVR4Xu2djZkbxdJGfSMwRGARASYCRASYCKwbgU0EiAgMEbCOAIgAOQJwBIgILkTAVy8rfZbN7mqmf6u6zzzPPF7Yme7qU6U96vn9zyMWCEAAAhCAQAKB/yTswy4QgAAEIACBRwiEIoAABCAAgSQCCCQJGztBAAIQgAACoQYgAAEIQCCJAAJJwsZOEIAABCCAQKgBCEAAAhBIIoBAkrCxEwQgAAEIIBBqAAIQgAAEkgggkCRs7AQBCEAAAggkfg18fhrC9mIolz9/ZP//6cJhHi62+9N+/u303+ef/7r4fwubZDMIQGBUAggkRmYlgCcnEejnzQop1BjhWShHa1yrxPPH6eca/dEmBCDgkAAC8ZcUyUGzColi21kUKXQkE62avbyxVbJhgQAEBiSAQPonVaKQMCQLrTrkNNJyPAlFUvkZoYyUWsYyOwEE0r4CJAgJ49lJGJv2IXTtUTMTyeQnWzVDYYEABIISQCBtEidpfHmShsTBcktAh7ckEq2anbBAAAKBCCCQeslCGuvYIpN1vNgaAt0JIJDyKdhak89Ps43RzmeUp3V3i0f73ze2vrZVP7NAAAIOCSCQMkmRKCSNl7ZuyjRJKycChwuZAAUCEHBEAIHkJUOy+MZWnddgtpHH8tremonc2Pq9rVwafI0Wv4dAAwIIJA3y1nZ7cRJHWgvslUrgfK7kW2tAUmGBAAQ6EUAg68BLHJpx6F+W/gRuLARE0j8PRDApAQSyLPGIYxmnXlshkl7k6XdqAgjk4fTrLvFXzDjCfEYkkq9t5RxJmJQRaGQCCOTu7OmEuMSxi5zcSWOXPL47HdqaFAHDhkAbAgjkfc4Sh06O63JcrqpqU4O1ejmeZiO6y50FAhCoQACBvIO6tR9/sHVTgTNN9iNwsK7/a6uEwgIBCBQkgEBuZxoSB8+oKlhYDpvaW0y6YosFAhAoRGB2gejucR0v53BVoYJy3oyeBKyT7JqVsEAAApkEZhWIhPGjrdtMfuwekwCzkZh5I2pnBGYUiA5V6ZAVsw5nxdg4HM1GdG5E/7JAAAIJBGYSiIShu8h1hRULBERAl/xqNqLna7FAAAIrCcwiEN0QqFmH/mWBwIcEdKmvZiPcgEhtQGAFgRkEsjMeuimQQ1YrCmPCTY825q9s5ZDWhMlnyGkERheIxMEhq7TamHEvzUB0ldbNjINnzBBYS2BUgWi28YutHLJaWxFsLwISiA5psUAAAg8QGFEgkoYu0d2QeQhkEDjYvjqkxXmRDIjsOjaB0QSyPcmD8x1j122r0el8iCRybNUh/UAgEoGRBLIz8LrSigUCJQloBvKFrZxcL0mVtoYgMIpAOFk+RDm6HYQkonMiPNnXbYoIrAeBEQSiWYdmHywQqE1AErmp3QntQyAKgegCQR5RKm2cOJHIOLlkJJkEIgsEeWQmn92TCSCRZHTsOBKBqAJBHiNVYcyxIJGYeSPqggQiCgR5FCwAmsoigESy8LFzdALRBII8olfcePEjkfFyyogWEogkEOSxMKls1pwAEmmOnA49EIgikL3B0rs8WCDgkQA3G3rMCjFVJxBBIDujwB3m1UuBDjIJIJFMgOwej4B3gejBiL/Gw0rEkxLQ40702BMewDhpAcw2bM8CkTz0SHYejDhbVcYeLxKJnT+iX0HAq0B4n8eKJLKpOwI3FhHvE3GXFgIqTcCrQDTz2JYeLO1BoCEBvdnwu4b90RUEmhPwKJC9UeCKq+alQIcVCOh8yKFCuzQJARcEvAnkmVHR2wRHWP6yQXz4Dgkdmvt0hMExhkUEdDL9E1s5qb4IFxtFI+BJIBuDpyuuIp40f3P6pqlvm/pjseTlQ1vbTmPWv1qfRCse4l1EQLXw2aIt2QgCwQh4EojkoSuvIiyaXejlQue1RMySiWZgO1uZpZQg6qeN7y2Ul37CIRIIlCHgRSB7G06E8x5/WJyKVeKoeVhCMlE/z8ukmVYcEOB8iIMkEEJZAh4EsrUh6aorz8tZHDeNg5RI9M31ReN+6a48gaM1qUNZNb94lI+aFiHwAIHeAtH5Dh260h9Kr8u3Fpgux+z5wRcfyetzr5CIaxEBzVy/WrQlG0EgAIHeAvH8hN23lr+drUtOiLdKteKRzB636pB+ihOQQCQSFgiEJ9BTIFuj5/XQleeTnrrQQLMRTrTH/PhxaW/MvBH1HQR6CcTzoasI73YQP32L5ZBWzI/169PsNmb0RA2BE4FeAtlb/96uutKluTphrW/3URbFypVaUbL1fpxclRUzb0R9QaCHQHQIxtsj2iWPra2ezncsLVQkspSUr+2OFg5XZfnKCdGsJNBDIB4flBjhsNVDqUUiKwvfyea6wm/vJBbCgMBqAq0FsrMIvb1dMLo8lHSdEznYyon11R+BrjvohLpmIZqNsEAgHIGWAvF44nykk5kbqz4dguMS31gfw5FqMBZ5os0m0FIgmqp7OnGu+zy2tva8QTA7gR80oGdpjfI049JsPLfHCXXP2SG2ewm0EohmH7/bqn+9LDp0EPGk+TV+utGQR59co+Tr9wcLRxJhgUAoAq0EcmNUPF1uOvJhA0n6aCuHskJ9FP95Ba4+JywQCEOghUA2RkOzDy+LLtlVTCMduvqQre5neeUFOHEsIiDpf7JoSzaCgBMCLQSib1WeZh+zXDqpP0i8pMrJB21hGMxCFoJiMx8EaguE2Ue/PO+sa2+XTPejEaNnZiEx8kSUJwK1BeJt9uH5IYmli5JzIaWJtmmPWUgbzvRSgEBNgXibfQiXjjHrW94sC1dkxcu0rgzkHerx8jZlxDUFsjei3u770HO4Zlo8PndsJv6pY+W+kFRy7NeUQC2BeLzv42sjq2/ksy2acXEyPVbWf7ZwdVMoCwRcE6glkJ2N2tsJ3FFvHLxWYBzGukbI5+9nO9zqMwtE9SCBWgLRfR8bR+x174enu+BbouHxJi1pl+tr5Jtdy1Gipa4EaghkayPy9qramQ8JSJz/61pldJ5CgFffplBjn6YEagjkxkbg6cZBAZ3l5sH7ikd/jHi0SdOPVpHOuKS3CEYaqUWgtEC8ftv9ygDqHeKzLgcbOO9Pj5d95Y2HLMbL2zQRlxbIzsh5O3muZM5+WaTHWeE0H7LMgXIyPRMgu9cjUFogete5x3stPra4Rn544rUK2dsGnu7JuRYvv39HYKanJ5D3YARKCmRjY/f01N3LVJQcZ7AU/xMuAomYtduYj7bylN64+Rs68pJ/WD3fb1BynBELAoFEzNq7mGe9hyl21iaIvuQfVm/3fjADeUcAgcT+MHMYK3b+ho2+lEA8H75S8kqNM2ohIJComeMwVuzMDR59qT+s3t+Ax0l0TqJH/yhzGCt6BgeMv5RAvF59dU4Zl/H6u7lzwI9T1SFxGKsqXhpPIVBCIN4PX4kLNxJyI2HK58PTPrwnxFM2iOUfAiUEsrN2PN48eJni2R9lomdhzfowyZE+6txUOFI2BxhLCYHcGAdvz776MDU8THGAYmUIj3g2FkXgikAJgUT4dns06rPejMXj3F195LKCmfmLUBY4dq5DIFcgkV6ZOuv03/MNnnWqetxW9TgeXVHIAgEXBHIF4v3y3UvIs77S1vMNni4+BMGC4HLeYAkbOdxcgegR6V8GATTjVSyRZohByqh7mLN+EeoOngD+TSBXIBHOf1yOerbDWBy+Gu9T/9qGtBtvWIwoIoEcgWxswF6fvntfLma7nJfDVxE/lQ/HfLRfz3pByHjZDD6iHIFEvLpnpvdM61uq9/tzgn98uoU/+6N5uoGn4/cJ5Agk6uGRWY4hM/sY99M++6N5xs1ssJHlCORgY434nu0ZZiHMPoJ9EFeGO9uh2JV42LwVgRyBRDuBfsl05A+gHlmi2QePLmn1KWrfDyfS2zOnxzsIpApEf5wkkMjLqFdk7S0pvP88cmVej33GS9KvU2GL5gRSBbK1SH9pHm3ZDkf8EI6Ql7JZHre11M/uuEQYWXMCqUUY6Q70h6CO9I4FzQr1XpZN8yqiwx4EuCO9B3X6fI9AqkBGOkwyyhNOf7TM6tJqljkIcCXWHHl2PcpUgRxsVBGvwLovGdG/zel+j53rSiO40gRmuRy9NDfaK0gAgdzC1KW9+kan8yLRlqj340Tj7C3eka8k9MaaeO4hkCqQvwckGlEizDwGLMSFQ+LdIAtBsVk9AgjkfbaSiM6J6CnD3hfk4T1DdeN7Y81v63ZB6xB4mECKQFS00S/hvVYXe9tAhwg8LhsLSvLgj4fH7LSLiZdLtWNNT/cQQCD3l8bBfvWVrfqgell0lZXkwV3mXjLSN46Uz2/fiOl9KAIpBahvvqPPQM5Jljx0z4seHdFzkTBe2brrGQR9uyOQ8vl1NwgCiksgpQBHuYlwTdZ0dZYumzys2anAthLHi5PEmHUUADpYE6M+jmewNI07nBSB7A3HrM9akkB02ayugKm5II6adMdpm5sJx8llyJEgkLS0HW03XamlQ1sl7x15bu3pPAd3lKflZba9EMhsGXc2XgSSnxDJRDMTrfpZl1cuWTTL+NTW7cW6ZD+2gcCZAAKhFroSSBEIdz5fT5lOvj80M5E0WCCQSwCB5BJk/ywCKQLRN+2RnoOVBZCdIdCRAALpCJ+uHz1CIFQBBOIS4HlYcXM3ROQIZIg0MohJCSCQSRPvZdgIxEsmiAMC6wkgkPXM2KMgAQRSECZNQaAxAQTSGDjdvU8AgVAREIhLAIHEzd0QkSOQIdLIICYlwFVYkybey7BTBHJjweuOaRYIQKAvAQTSl//0vacIZG/UZn0W1vQFAwBXBBCIq3TMFwwCmS/njHgcAghknFyGHAkCCZk2gobAPwQQCIXQlQAC6YqfziGQReAT2/uY1QI7QyCDQIpAttbfLG8kzEDLrhCoTiDl81s9KDqYh0BKASKQeeqDkfomkPL59T0iogtFIKUAEUioFBPswARSPr8D42BorQmkFuDfrQOlPwhA4D0Cb+y/9GWOBQLdCCCQbujpGAJZBBBIFj52LkEgVSB6255ex8oCAQj0IcBzsPpwp9cLAqkCOVgbvJWQUoJAPwIIpB97ej4RSBUI70WnhCDQlwA3EfblT+9GIFUge9uX52FRQhDoRwCB9GNPz5kzkK3tz82ElBEE+hFI/fLXL2J6Ho5AahFujMTvw9FgQBCIQeCthfk0RqhEOTKBVIGICfeCjFwZjM0zgZ8tuGeeAyS2OQjkCORgiLgSa446YZS+CHAFlq98TBtNjkC4EmvasmHgnQl8Zf3/1DkGuodA8lVYQrez9QcYQgACzQnwGPfmyOnwLgI5MxCdxPsVrBCAQFMCf1hvm6Y90hkE7iGQIxA1+aetj6ELAQg0I8AJ9Gao6egagVyBHKwDTqRfo8zvIVCOwNfWlM4/skCgO4FcgextBNyR3j2NBDARgc9srHqYKQsEuhPIFcjWRsAd6d3TSAATEcj9zE6EiqHWJlCiGLmhsHaWaB8CtwQ4/0EluCJQQiC6Hv1LV6MiGAiMSYDzH2PmNeyoSgjkpY3+VVgCBA6BOAS4/yNOrqaItIRAuB9kilJhkJ0JcP9H5wTQ/b8JlBCIWj3a+gTAEIBANQLfW8ua7bNAwA2BUgLhuVhuUkoggxLg+VeDJjbysEoJhMNYkauA2L0T+MsC/Mh7kMQ3H4FSAuEw1ny1w4jbEXhtXe3adUdPEFhGoKRAOIy1jDlbQWAtAQ5frSXG9k0IlBTI1iLmrvQmaaOTiQhw+GqiZEcbakmBcBgrWvaJNwIBDl9FyNKkMZYWyN448nDFSYuJYVchwMMTq2Cl0RIESgtkY0H9XiIw2oAABB5x8yBF4JpAaYFosDwby3XKCS4QAZ59FShZM4ZaQyA7A8m70mesJsZcmsDH1qDe+skCAZcEaghEAz3ayqNNXKacoIIQ4OR5kETNHGYtgewNKifTZ64sxp5LQG8d/IIZSC5G9q9JoJZA9NiF/9UMnLYhMAEBJDJBkiMPsZZAxOTG1ueR4RA7BBwQQCIOkkAIdxOoKZCNdcklvVQeBPIJIJF8hrRQgUBNgTALqZAwmpyWABKZNvV+B15bIMxC/OaeyOIRQCLxcjZ0xLUFIngHWz8fmiKDg0A7AkikHWt6ukKghUC2FgNP6aUUIVCOABIpx5KWMgi0EAizkIwEsSsE7iGARCiN7gRaCYRzId1TTQADEkAiAyY10pBaCURMbmzlvpBI1UGsEQggkQhZGjTGlgLR3elHWx8PypJhQaAXASTSi/zk/bYUiFDvbeUZWZMXHcOvQgCJVMFKow8RaC0QxaJZCE/qpS4hUJ4AEinPlBYfINBDIFuLh8t6KUsI1CGAROpwpdU7CPQQiMLgrYWUIwTqEUAi9djS8gWBXgLhhDplCIG6BJBIXb60bgR6CUTwX9r6iixAAALVCCCRamhpWAR6CkT9H2zlOVnUIgTqEUAi9dhO33JvgWwsAypw7g2ZvhQBUJEAEqkId+amewtE7J/Z+uPMSWDsUxD461TruoCkxxcmJDJFmbUdpAeBaMRcldU27/TWnsAXp0O2T0//IpH2OaDHwgS8CISrsgonluZcEfjWotlfRIREXKWHYFIJeBGI4teH6tfUgbAfBJwSeGNxbe+IDYk4TRhhLSfgSSCKmkt7l+eOLf0T0HmPja1/3hMqEvGfQyJ8gIA3gSjUG1t57DtlOwKB83mPh8aCREbI9KRj8CgQnQ852PrppDlh2GMQ+NqG8d3CoSCRhaDYzBcBjwIRoZ4fKF8ZIpqIBF5b0LuVgfeseS7xXZksNr8l4FUgim1rK0/tpVKjEbjvpPmScSCRJZTYxg0BzwIRJH2L+8ENLQKBwMME3p6++Nx30nwJPySyhBLbuCDgXSCCpOPIL1zQIggI3E9AV1zpj/+xACQkUgAiTdQnEEEgonBjK1dm1a8HekgjIHlsbdW5hFILEilFknaqEYgiECRSrQRouAABHbLSJbslBaKwkEiB5NBEPQKRBMLlvfXqgJbzCSCRfIa0EIxAJIEILRIJVmCThYtEJkv47MONJhAkMnvF+h8/EvGfIyIsRCCiQJBIoeTTTDUCSKQaWhr2RCCqQJCIpyoilrsIIBHqYngCkQVylshP9gPvVR++VEMOEImETBtBLyUQXSDncd7YD9wnsjTrbNeSABJpSZu+mhIYRSCChkSalg6drSCARFbAYtM4BEYSiKjvbOXZWXHqb6ZIkchM2Z5krKMJ5CwRPT/r8SQ5ZJhxCCCROLki0gUERhSIht3zERALsLPJxASQyMTJH23oowpEedJd61yhNVrFjjEeJDJGHqcfxcgCOSeXx8FPX+YuASARl2khqDUEZhCIeDyz9YbzImtKg20bEEAiDSDTRT0CswhEBDenQ1qf1sNJyxBYTQCJrEbGDl4IzCSQM/O9/fCNlwQQBwSMABKhDEISmFEgStT2dEjrScisEfSIBJDIiFkdfEyzCkRp1VVamo3wvvXBizzQ8JBIoGQR6qNHMwvknH/NRnSlFudG+ER4IIBEPGSBGBYRQCDvMGk2wrmRRWXDRpUJIJHKgGm+DAEE8j7Hjf3nja08Hr5MfdFKOgEkks6OPRsRQCB3g+awVqMCpJsHCSARCsQ1AQTycHp29msezOi6hIcPDokMn+K4A0Qg13Onq7Venlae8HudF1uUJ4BEyjOlxQIEEMhyiIhkOSu2LE8AiZRnSouZBBDIeoBnkejwFjcirufHHukEkEg6O/asQACB5EGVRHR4i3tI8jiy93ICSGQ5K7asTACBlAG8PYnkyzLN0coFgT/s5xtb9YfzFWT+IYBEKAQXBBBI2TTo8NZ5VsLhrTy2P5/EoZeCnRex5Z33tzSQSF59sXcBAgikAMR7mtieZKJ3kXD11jLOby+kcbxnFyTyDgwSWVZXbFWJAAKpBPaDZiWR84pM3oezRBofZgmJIJE2n1x6eZAAAmlfIBKJZidaZz35rsNTB1t1eOq+mca1zCARJHKtRvh9ZQIIpDLgK81vTiI5S2XU2YlmGRLGWRqlqCMRJFKqlmgngQACSYBWcZezUJ4Gn6G8uRDGb/azjtXXWpAIEqlVW7R7hQAC8V8iWwtRYpFUzquXmYpmFkdbJYnzqv9uvSARJNK65ujPCCCQuGUgsWj58F/9P4kmVzK6/+IsA/171+qJHhJBIp7qcYpYEMgUaf5nBqP1oeUwAAokgkQGKOM4Q0AgcXJFpMsIIBEksqxS2CqbAALJRkgDDgkgESTisCzHCwmBjJdTRnRLAIkgET4LlQkgkMqAab4rASSCRLoW4OidI5DRM8z4kAgS4VNQiQACqQSWZl0RQCJIxFVBjhIMAhklk4zjGgEkgkSu1Qi/X0kAgawExuahCSARJBK6gL0Fj0C8ZYR4ahNAIkikdo1N0z4CmSbVDPSCABJBInwgChBAIAUg0kRIAkgEiYQsXE9BIxBP2SCW1gSQCBJpXXND9YdAhkong0kggESQSELZsIsIIBDqAAI89uSyBvTyry9s1ftdSi56xcDB1tzXDKTEpLFoTDVfbJYSV/h9EEj4FDKAQgSYiTATKVRK8zSDQObJNSO9TgCJIJHrVcIW/08AgVAMEHifABJBInwmFhJAIAtBsdlUBJAIEpmq4FMHi0BSybHf6ASQCBIZvcazx4dAshHSwMAEkAgSGbi884eGQPIZ0sLYBJAIEhm7wjNGh0Ay4LHrNASQCBKZptjXDBSBrKHFtjMTQCJIZOb6v3PsCISSgMByAkgEiSyvlgm2RCATJJkhFiWARJBI0YKK3BgCiZw9Yu9FAIkgkV6156pfBOIqHQQTiAASQSKByrVOqAikDldanYMAEkEic1T6PaNEIFOnn8EXIIBEkEiBMorZBAKJmTei9kUAiSARXxXZKBoE0gg03QxPAIkgkeGL/MMBIpDpUs6AKxJAIkikYnn5axqB+MsJEcUmgESQSOwKXhE9AlkBi00hsJAAEkEiC0sl9mYIJHb+iN4vASSCRPxWZ6HIEEghkDQDgTsIIBEkMvQHA4EMnV4G54AAEkEiDsqwTggIpA5XWoXAJQEkgkSG/EQgkCHTyqAcEkAiSMRhWeaFhEDy+LE3BNYQQCJIZE29uN8WgbhPEQEORuCZjefG1seDjStlOH/aTl/Y+lvKzg/s89R+d+jEWGPRmDS24RcEMnyKGaBDAh9ZTC9t1YzkSaH43j7wR0t/1C7/oG3sv58X6je3GSSSS7Dj/gikI3y6hoAR0B9zrfrWLLEcHqDy0O/WwNzaxr+s2aHytkikMuBazSOQWmRpFwJ+CXgTiEghEb/1cm9kCCRg0ggZApkEPAoEiWQmtcfuCKQHdfqEQF8CXgWCRPrWxereEchqZOwAgfAEPAsEiQQqLwQSKFmECoFCBLwLBIkUSnTtZhBIbcK0DwF/BCIIBIn4q5t/RYRAAiSJECFQmMDe2vumcJu1muPqrFpkC7SLQApApAkIBCMQSSDMRBwXFwJxnBxCg0AlAtEEgkQqFUJuswgklyD7QyAegYgCQSIO6wyBOEwKIUGgMoGoAkEilQtjbfMIZC0xtodAfAKRBYJEHNUfAnGUDEKBQCMC0QWCRBoVyrVuEMg1QvweAuMR+M6G9GKAYXGJb+ckIpDOCaB7CHQgcLA+P+/Qb40ukUgNqgvbRCALQbEZBAYiMJJAOJzVsTARSEf4dA2BTgRGEwgS6VRICKQTeLqFQEcCIwoEiXQoKATSATpdQqAzgVEFgkQaFxYCaQyc7iDggMDIAkEiDQsMgTSETVcQcEJgdIEgkUaFhkAagaYbCDgi8LvFsnEUT61QuMS3FtlTuwikMmCah4BDAn87jKlWSEikFllrF4FUhEvTEHBKYCaBcDirYhEikIpwaRoCTgnMJhAkUqkQEUglsDQLAccEZhQIEqlQkAikAlSahIBzArMKBIkULkwEUhgozUEgAIHfLMZPA8RZK0ROrBcii0AKgaQZCAQiMMrj3HOQI5Eceqd9EUgBiDQBgWAEthbvL8FirhEuEsmkikAyAbI7BIISOFjco7wTJCcFSCSDHgLJgMeuEAhM4KnF/mvg+EuGjkQSaSKQRHDsBoEBCOxsDD8MMI4SQ0AiCRQRSAI0doHAQAQkEZ1UfzzQmFKHgkRWkkMgK4GxOQQGJKDDWZII50QePUIiKwocgayAxaYQGJyARKIZif7d2PrkNN639q/+sN61HO1/ar1r0T665+S+Rb87t7u3n79xwheJLEwEAlkIis0gAIGqBDwJRAOtJZGttd3rEmoJ+4sLaWcnFIFkI6QBCECgAIEba+N5gXZKNlFLIj3HKol8VgoSAilFknYgAIEcAgfb2eM5mBoS6X0J9bfGWjO+7AWBZCOkAQhAoAABrwLR0GpIpPcDLT+xcR1z84ZAcgmyPwQgUIKAZ4HUkEjvB1oWmYUgkBKlTxsQgEAuAe8CKS0RPQVAh7J6LUXOhSCQXumjXwhA4JJABIGUlEjvQ1gaS/bf/+wG+AxAAAIQKEAgikBKSGRrjfS6lPcyVR/bf9x3f8+ilCKQRZjYCAIQqEzgf9b+R5X7KNl8zon1Hy2QZyWDSWxL94RI3MkLAklGx44QgEBBAh4O6awdTopEJA4JxMOCQDxkgRggAIFsAhEFokGvkYhOmuvQlZeZ1tcWi56BlrwwA0lGx44QgEBBAlEFckawtx90aexdi4TxwlZt42nJvpQXgXhKJ7FAYF4C0QWizB1tPVz8u7WfN7bqsJWXWcdlhSGQeT9vjBwCQxEYQSDREvLGApbkkhdmIMno2BECEChIAIEUhLmwKQSyEBSbQQACfgn0frigXzJ1I8u+G50ZSN0E0ToEIHCdgA6jeLix7nqk422R5YCsncdjyYggAIEOBBBIB+inLrMckLVzvzHTMwQgMBABBNIvmVmPdUcg/RJHzxCAwC0BBNKvErLuRkcg/RJHzxCAAALpXQMIpHcG6B8CEMgiwAwkC1/Wzg5JG5AAAASeSURBVFmPM2EGksWenSEAgQIEXlobrwq0QxPrCWTdjY5A1gNnDwhAoCyBvTX3TdkmaW0hAQSyEBSbQQACPgkgkH55ybobnRlIv8TRMwQgcEsAgfSrBATSjz09QwACBQggkAIQE5vIepwJM5BE6uwGAQgUI8BJ9GIokxpK9kDyjklhshMEIACBfxPgYYp9qyLZA8k79h0vvUMAAoMR0KthHw82pijDSX6cCQKJkmLihMDYBDgP0i+/yXejI5B+SaNnCEDgHQG98vXILKRLSSCQLtjpFAIQKElA7w7/sWSDtLWIQPLjTJiBLOLLRhCAQCMCO+vnh0Z90c0tgeS70REIJQQBCHgjIIl8x+GsZmlBIM1Q0xEEINCCgM6J7G2VTEpfnfXW2tRVX3ct+v+6uU7LLM/nSr4bnRlIi48CfUAAAjkEtrazhKL7Rc7L5R/6u9o+5HR42vfvAm1EaAKBRMgSMUIAAqEIzCKQ5MeZMAMJVc8ECwEINCKgWc8vjfry0E2SC5J28jBaYoAABCBQkQACWQAXgSyAxCYQgMB0BGYTyGeW4fPFA4uTjUAWo2JDCEBgIgKzCSTpbnQEMtEngqFCAAKLCSCQBagQyAJIbAIBCExHYDaBJN1MiECm+1wwYAhAYAEBBLIAEgJZAIlNIACB6QjsbMQzPZPrexuv3gy5akEgq3CxMQQgMAmBvY1zlkeZKKVJd6MjkEk+DQwTAhBYRQCBLMCFQBZAYhMIQGA6ArMJ5GgZ1qttVy0IZBUuNoYABCYhMJtAlNbVPli9wyTFwzAhAIG5CSCQBflHIAsgsQkEIDAdgRkFsvpxJghkus8FA4YABBYQmFEgqx9ngkAWVBKbQAAC0xE42Ig/n2zUCGSyhDNcCECgDoEZBbL6cSbMQOoUH61CAAKxCSCQBflDIAsgsQkEIDAdgRkFsvpxJghkus8FA4YABBYQmFEgqx9ngkAWVBKbQAAC0xFAIAtSjkAWQGITCEBgOgIzCuS1ZXm3JtMIZA0ttoUABGYh8LsNdDPLYE/j/K/9e7NmzAhkDS22hQAEZiHw9ywDvRinHqZ4XDNuBLKGFttCAAKzEJhNID9bYp+tTS4CWUuM7SEAgRkI6Jv4kxkGehrj6udgaT8EMlGFMFQIQGAxgYNtOcujTFbfgX6miEAW1xMbQgACExH4zsb6YoLxrr7y6pIJApmgQhgiBCCwmsBT2+PX1XvF2eEvC3Vvq0SZvCCQZHTsCAEIDE5gxMNYEsfNSRzH3PwhkFyC7A8BCIxKIPIsRI8l0fKbrX/aKlnoZ63FFgRSDCUNQQACAxLY2Zh+cDauu+QgQUgURQVxbdwI5Bohfg8BCMxOoKVE3MhhSdIRyBJKbAMBCMxOQIezdMI559LeUHJYknAEsoQS20AAAhC4JbC1VXdsSyiXMhlODksSjkCWUGIbCEAAAhD4FwEEQlFAAAIQgEASAQSShI2dIAABCEAAgVADEIAABCCQRACBJGFjJwhAAAIQQCDUAAQgAAEIJBFAIEnY2AkCEIAABBAINQABCEAAAkkEEEgSNnaCAAQgAAEEQg1AAAIQgEASgf8DPadO68fN33wAAAAASUVORK5CYII=" vertex="1" parent="1">
          <mxGeometry x="220" y="60" width="100" height="100" as="geometry" />
        </mxCell>
        <mxCell id="erdwm7UFil0JZydvI_QE-3" value="" style="shape=image;verticalLabelPosition=bottom;verticalAlign=top;imageAspect=0;aspect=fixed;image=data:image/png,iVBORw0KGgoAAAANSUhEUgAAAZAAAAGQCAYAAACAvzbMAAAgAElEQVR4Xu2djbXbxBaF36uARwWYCgIVYCogVBBTQUIFmAqSVIBTQUgFOBUQKsBUAFTAO5tIieP4R5JHmnPOfFpL697kSjNnvj3y9vzqv//hgEA7BL7qirrufv7Pfn5xVPz+/28R2R9d8MZ+/6v7d///r28lwN8hkIHAfzMUgjJA4IiATOFBZwwyh5WdQ42hNEgZysFOmYzO347MpnRepAeBxQlgIIsjJ8PCBGQSalnop4xChuH5kKHIWGQoaqnoJwcEQhLAQELK1nTQMggZxsPOMNTiiHyo+0uG8nNnKDIYDgiEIICBhJCp+SDVunjUGcbxmEVGMGqRyFBe2EnrJKPCicqEgSQSM1lRetNQS2OVrGxDi6PWiFommMlQYly3KAEMZFHcZHaDgLqj1NJ40rBpXEIkM3nWmUk/64sKBYGqBDCQqvjJvCPwjf1US2MDkUEEdp2R7AddzUUQmIkABjITWJIdRECtjS2tjUGszl2kVon4qYuLAwKLE8BAFkfefIbqpnpsp7qpos+g8iKmurTUvfXcTrq3vKjSQBwYSAMiOykixjG/EBjJ/IzJ4YgABkJ1mJsAxjE34Y/Tx0iWZ95kjhhIk7IvVmiNcahrha6qxZB/kJGMRF2FjJHU4Z8+VwwkvcRVCri2XJ/amX3RXxW4EzLVgsTv7dxPuJdbIHCRAAZC5ShJQC2Nn+zUlFwOfwS0KPE7Oxlo96dNyIgwkJCyuQxaM6u2dtJd5VKed0HJPKSTZmxxQOAuAhjIXfi42QisulbHGhqhCOy71sghVNQE64oABuJKjnDB0OoIJ9kHAdMaia1f9egxkOoShAxA3VQv7aTVEVK+j4JmbCSHjouXAgNZHHn4DDVAroFyxjrCS/lRa+Rb+x91bXFAYBABDGQQJi7qCPxgP7fQSE1A+v6YuoQUrhgBDKQYytQJ0WWVWt6PCqdWiFojTPdtS/fRpcVARiNr7gYtBtR4x6q5krdd4ENnIlqEyAGBswQwECrGNQKMd7RdP9QC0cJDDbJzQOAjAhgIleISgY39QYPlHBCQiezAAIFTAhgIdeIcARmHDIQDAj0BGYiMhAMC7whgIFSGUwKYB3XiEgFMhLrxAQEMhApxTADzoD7cIoCJ3CLU0N8xkIbEvlJUTdP9xU62X6c+DCGwt4uY5juEVPJrMJDkAg8oHuYxABKXfERA03u/tpO1Ig1XDgykYfG7oqvlsQYDBCYQ0PRetUQ4GiWAgTQqfFdsxjza1r9E6XeWCLOzSpAMmAYGElC0QiFjHoVAksy/a0QwkQYrAgbSoOhW5Gd26l0eHBAoRUBvOHxSKjHSiUEAA4mhU8koN5YYK8xLEiWtngAr1hurCxhIW4JrbyttjMgBgbkIaFCdvbPmoussXQzEmSAzhqM1HppxxYugZoRM0v9O69X0XnbxbaAyYCANiNyZxq/2c9VGcSllZQKsEakswFLZYyBLka6bj7qt1H3FAYGlCLBGZCnSFfPBQCrCXyjrreWjV9FyQGBpAno1ruofR1ICGEhSYbtire2nxj04IFCLgMZD9rUyJ995CWAg8/KtmboGy3+3k0HzmiqQ98EQfGkne2YlrAsYSEJRuyIx7pFX22glYzwkmmID48VABoIKdplWBD8NFjPh5ibAIsOE+mIg+URdWZE0ZZeuq3zaRi6RurDUlaUuLY4kBDCQJEIeFYPt2fNpmqVEeyuIBtU5khDAQJII2RWDrUpy6ZmxNGx1kkhVDCSPmMy6yqNl5pKoK+tzO5mVlUBlDCSBiF0RdvbzUZ7iUJLEBF5Y2TaJy9dM0TCQHFJro0QNnHNAIAoBDaiz4WIUtS7EiYEEF7ALn4HzHDq2VIq9FZYB9eCKYyDBBey6AnhBVHwdWywBA+rBVcdAggto4Wu7klX8YlCCBgkcrMwaUOcISgADCSpcF/bGftL6iK1h69GzQj1wDcBA4oqnabu8JCqufkT+lgCtkMA1AQOJK97WQuc9H3H1I/L3BL63X58BJB4BDCSeZoqYRYMxdSPq8wRYXBi0ZmAgMYVj7COmbkR9mQBjIQFrBwYSUDQLmZlXMXUj6ssEGAsJWDswkHii0fqIpxkRDyPAupBhnNxchYG4kWJwIKw6H4yKC4MR2Fu8rE4PJBoGEkgsC5U9r2LpRbTjCbBH1nhm1e7AQKqhn5Txzu5ix91J6LgpCAF26g0ilMLEQOKIxdTdOFoR6XQCTOmdzm7xOzGQxZFPznBjd7JtyWR83BiIAFN6g4iFgQQRysLUtiUaA+GAQHYCeysgg+kBVMZAAohkIa7s1NoPDgi0QkC79B5aKWzUcmIgMZR7YmE+jREqUUKgCAH2xyqCcd5EMJB5+ZZKne6rUiRJJwoBve5WU3o5HBPAQByL04W2sp90X/nXiQjLE6AbqzzToiliIEVxzpIY3VezYCXRAAToxnIuEgbiXCALb2/nV/7DJEIIFCfw2lJcF0+VBIsRwECKoZwlIS0e/HOWlEkUAjEIfGphanEhh0MCGIhDUY5Cemi/v/QdItFBYFYC7NA7K977EsdA7uM39907y4C9r+amTPqeCbA3lmN1MBDH4lhovDjKtz5ENz+Bg2Wh2VgcDglgIA5F6UJi/MOvNkS2LAHGQZblPTg3DGQwqsUvZPxjceRk6JQA4yBOhcFAnApjYT2z87Hf8IgMAosReG45aT0UhzMCGIgzQY7C2dvvrP/wqw+RLUeA9SDLsR6VEwYyCteiF/+zaG5kBgHfBPiscqgPojgUxULi3ec+dSGqegR4V3o99hdzxkAcimIhMYDuUxeiqkeAgfR67DEQh+yvhbS1P/4QLGbChcCcBH60xPVccDgiQAvEkRhHoeztdwbQfWpDVHUIvOpa5nVyJ9ezBDAQnxWDF0j51IWo6hFgJlY99nRhOWR/LSRmYAUTjHAXIcAX3kUwD88EQYazWupKtjBZijT5RCPA55UzxRDEmSAWztrOX/yFRUQQqE7ga4tgXz0KAnhHAAPxVxmYwutPEyLyQQAD8aEDBuJMh+NwtvYPpvA6FojQqhFgKm819OczpgXiTBALBwPxpwkR+SCAgfjQgRaIMx1ogTgWhNDcEMBA3EjxNhBaIM4EsXD2drKI0J8uRFSfAIsJ62vwQQQYiDNBMBB/ghCRGwIsJnQjBS0QZ1K8C4cWiFdliKs2AQyktgIn+dMCcSYILRB/ghCRGwIYiBspaIE4k4IWiFdBiMsNAQzEjRQYiDMpMBCvghCXGwIYiBspMBBnUrwL53f7beU1OOKCQEUCbyxvvZmQwwkBxkCcCHEUhh6SB/7CIiIIVCdAC6S6BB8GgIE4E8TC2dvJOhB/uhBRfQIYSH0NPogAA3EmCAbiTxAickMAA3EjxdtAMBBngmAg/gQhIjcEMBA3UmAgzqR4Fw5dWF6VIa7aBDCQ2gqc5E8LxJkgtED8CUJEbghgIG6koAXiTIp34fxsv33jNTjigkBFAi8s703F/MmaFoj7OrC1CHmhlHuZCLACAbZzrwD9WpZ0YTkTxMLBQPxpQkQ+CGAgPnR4FwUG4kwQDMSfIETkhsD3FskzN9EQCNN4HdaBtcX0i8O4CAkCtQl8bQHsawdB/u8J0ALxVxswEH+aEJEPAhiIDx3ownKmw2k4/ziPj/AgUIMAX3hrUL+SJ4I4E6QLBwPxqQtR1SPwt2X9v3rZk/M5AhiIz3qhfl42VPSpDVHVIcAiwjrcr+aKgTgUxUJiMaFPXYiqHgEWEdZjfzFnDMShKBbS1k4WE/rUhqjqEGANSB3utEAccr8V0touYCrvLUr8vSUCzMByqDYtEIeiWEgrO/VqWw4IQOAtgc/tPADDFwEMxJcex9H8Zf/4xG94RAaBxQgwA2sx1OMywkDG8Vry6r1lxkysJYmTl1cCzMByqgwG4lQYC2trJwPpfvUhsuUIMIC+HOtROWEgo3AtevHacmMgfVHkZOaUAAPoToXBQJwKY2Fp1e2ffsMjMggsRoDPqcVQj8sIYcbxWvrqN5bhg6UzJT8IOCLwm8XyhaN4COWIAAbiuzro3QePfYdIdBCYlcBzS/3JrDmQ+GQCGMhkdIvcuLZcGAdZBDWZOCXA+IdTYRQWBuJYnC401oP414gI5yHA+o95uBZLFQMphnK2hNhYcTa0JOycwCuL76HzGJsODwPxL//GQvzJf5hECIHiBL6zFHfFUyXBYgQwkGIoZ0uI6byzoSVh5wQ+tfjUhcvhlAAG4lSYk7DoxoqhE1GWI0D3VTmWs6WEgcyGtmjCdGMVxUliAQjQfRVAJAwkgEgWIt1YMXQiynIE6L4qx3K2lDCQ2dAWT5hurOJISdApAbqvnApzGhYGEkQoC1PTGV/GCZdIITCZwLd2p74wcTgngIE4F+gkvIP9+7NYIRMtBEYR+MOuXo26g4urEcBAqqGflPHW7uIdIZPQcVMQArz7I4hQChMDCSRW982Md6XH0oxoxxHg3efjeFW9GgOpin9S5ju769GkO7kJAr4JvLDwNr5DJLpjAhhIvPqwtpDZoTeebkR8mwA7795m5OoKDMSVHIOD2duVXw2+mgsh4J/AawtRX444AhHAQAKJdRQqU3pj6kbUlwkwdTdg7cBAAorWhXywn0zpjasfkb8nwNTdoLUBAwkqnIW9sZNt3uPqR+TvCbDvVdDagIEEFa4Le28/GQuJrWHr0TP2EbgGYCCBxbPQ13YyIyu2hq1Hz8yrwDUAAwksHq2Q+OI1XgJaH8ErAAYSXEBaIfEFbLgEtD6Ci4+BBBewC39nP1mdnkPLVkrBqvMESmMgCUS0IuiFUwc7P8lRHEqRnMDfVr6VnbzvPLjQGEhwAY/C39rv7NSbR8/MJWHH3STqYiBJhOyK8cZ+PshVJEqTjMBvVp4vkpWp2eJgILmk14P5a64iUZpkBL608uiLDkcCAhhIAhFPivDM/v04X7EoUQICz60MTxKUgyJ0BDCQfFVBA+r6hsc+Wfm0jVwi7XelFjID55FVPIkdA0kk5lFR1vY7K9Rzahu1VKz5iKrclbgxkISidkXa2k9mZeXVN1LJmHUVSa0RsWIgI2AFvJRZWQFFSxYys66SCXpcHAwksbhWtJWdMhEWGObW2WvptGBQ4x4HrwES130EMJD7+EW4m7cXRlApZ4y8ZTCnru9KhYEkF7gr3tZ+Mh7ShtZeSsm4hxclZowDA5kRrrOk9xYPL59yJkrScNimPamwp8XCQBoR2oqp9SEyEbY6aUfzGiXVoPnaTtZ71KC/cJ4YyMLAK2enAU2ZCIPqlYVImr0GzWUebFWSVGBaII0Ie6WY7JdFHZiDAOYxB1XnadICcS7QTOFtLN2fZkqbZNsk8J0Ve9dm0dstNQbSrvaYSLvaly455lGaaJD0MJAgQs0UJiYyE9iGksU8GhKbMZCGxb5QdHU78D516sUUArzXfAq1RPfQAkkk5h1FwUTugNforZhHo8IfFxsDoRL0BDAR6sJQArwYaiip5NdhIMkFHlk8xkRGAmvwcsY8GhT9UpExECrDKQFMhDpxiQDmQd34gAAGQoU4R0Amoners2Kd+iECWiSod5mrm5MDAu8IYCBUhksE2PaEutGbx9p+YXsS6sNHBDAQKsU1AjIRfetkA8Y264k2RlRrFPNoU/+bpcZAbiJq/gLt4isT+aZ5Em0BeNWZB7vqtqX7qNJiIKNwNX3x1krPS6naqAK8DKoNne8uJQZyN8KmEtDrcdUaYXA9p+waLFeX1c85i0epShPAQEoTzZ/eqjMR3m6YS2u9RVDmcchVLEozJwEMZE66udOmSyuPvnRZ5dFy0ZJgIIviTpeZZmmpu+OzdCVro0B/WDHVLcksqzb0Ll5KDKQ40iYTpDUST3ZaHfE0cxcxBuJOkrABsWYkhnSs7YihU4goMZAQMo0OUt0Sh0pdE9ryQi0SZmqNlm3WGzTDSrpoi5qlD325WNnJ7K6lyc+cHwYyM+CFk9eD+tTOdWceX9vPGgvBtPhQH1aPFy4/2Z0noO3XpUetuvC75a06sbdTGzIeECoHAQwkh456OLXIT9/+jw8NjtYyEcWxsnNnJ1N+69Sz2lNzVS9/sVNfbI4PtYI0BlPD0OookTRXDCS+sOqu+slOPaznjtomopjWdm4xksUqm4xDvPeL5fhxRpfMo7/yYL98byfdWhVFujdrDORegvXuX3XGoQ/nW4cHE8FIbql0/989GIdKccs8jksqk6Nb637tq6SAgVTBfnem6q7ajkzFi4n0RqLuNjZoHCnihcu18aG6hfRhXPsYYx59rOrK6ru1asdP/iMIYCAjYDm4dG0xqLtqNTEWTyaiIqgcMsJHE8vT+m0vOn4HJyCmmMdx6CqHWiMejNAJUt9hYCC+9emj04Op2VWbAuF6MxEVSeVT2dQqYVX7dZG1jmPXnZ4GoTVQri83pwPmU6osg+xTqFW4BwOpAH1kluvuwVyNvO/a5frg0ewsmYm3Qx9AMhJNDmAtyVt1tIZDg836YPWqmWZbXZrIMaWOHeymb52Wd0p5Ut6DgfiWdcpYx9ASeTaRvgwykf5szUx605BxeJ6pJMMvbR7HdXhr/9CUXw6HBDAQh6JYSCW7A66VUCaiqZQ7nxg+iKo3krX9b9ZuLm1uuO8Mw7Np9MJs7Bd1W819qNWl1shh7oxIfxwBDGQcryWu1urtrZ0luwNuxa0uI61WjnLIYGUkMhX9HrV1olaGPhxlFvvu9ygazNk6PsdAX3b0XESqp1G0nBwnBjIZXfEbZRgvuw/G4okPSHBn16g1ogc12tEbin7qfOC0ABoAl2HojGYYPVLV01ITOqbIJLPVTK2I9XRKeV3fg4H4kGfufuShpdQHW82tT4bGOeS6tV206k79rmOpLVW0oE+HTOLQnfo9+iGe+pKj+lrzEFMG2Gsq0OWNgdQXYWMhLNGPPLSk+manhzPDB965MusbdP8BqA9EnTqO//8WKxlt/w1YH2Y6dRz//600ov19bQHLPJbsWr3GSPyjjN9F03pwvBjIYFSzXCjj2MyS8v2Jbi0JZr/czzFDCuqy0jiZx+NZZyQeY0sfEwZSR2J9izu3S2mdaC7nurc/sU+RN1WWi2dlWXnosrpV4kxdr7fK6urvGMjycngZ7xhacnUVyEQ0eMnRDoGHVtRruzx7I6F66nVxrDdWxeLBQIqhHJTQpnsoB13s7CJmvzgTZKZw1DqWcchAIh76srOLGHjEmDGQ5VTz3I88lAKtkaGkYl4XrdVxifLW/sD43QJ1EANZAHL3jU6tjywHrZEsSr4tR/RWxzk11ApRa4RjRgIYyIxwkz6YPTG1RvRNj5XB89ahuVPvX4XsZXpuyfLKRKIuji3JYba0MJDZ0I56K9t8Ucyf8qH7prefPytyKEhgbWnd826ZgqHMmhQztGbEi4HMA3dlyUaY/liy9OrW0rc9GQqHXwKqmxqPizpIPoUsJjKF2oB7MJABkEZeEm2a7sji3bx8Z1doABMjuYlq0QtkHOqu2iyaq5/MmOY7gxYYSFmorZvHMc2t/UPjI/2WH2VJk9pQAhrbqLn54dA4l7gOEylMGQMpBxTz+JilHli1SGQktEjK1bUhKfUtDnVVZRwgH8Lg3DWYyFRyZ+7DQMrAxDxuc5SR0LV1m9O9V6gu6p0ym3sTSnw/JlJIXAzkfpCYxziGe7v8mZ2vxt3G1TcIfGN/f2LnGlKDCGAigzBdvwgDuQ8i5jGd38FuVavkhZ36nWM8gZXd8sjOjZ36nWMcAUxkHK+PrsZApgPEPKazO71TU4B1qlXCoPt1rhrPUGtDYxstTcUtV9s+TAkTuYMsBjINHuYxjdutu/QwH5vJretb+rtMQy0NTKO86pjIRKYYyHhw+gb4q52r8bdyxwgCvZnsG22ZqH7pFbwyjLWdzKQaUXkmXPrG7tF28LSAR8DDQEbA6h7iCC+CGleqGFfrAVfrRIbyOkbIo6M8Ngy1cjmWJYCJjOSNgYwDJvPQt0GO+gRkJHrge0OJ9s1RLQoZhuqTzIJ6Vb9OKQJ9SfnWRyj+o8BAhmvk+f3lw0uR98qDFU2nDEU/f+sMxkOJZRAP7Fx1RqGfOjl8EthZWGwFP0AbDGQAJLtka6f2EeKIR0Bmcu5USf4uYDIyh086LL0xnP6MR42ItTHoMzBcJ4CB3K4hG7tErQ+ONgj0ZnOutL0xtEGCUvJ63Bt1AAO5Dmhtf9a4BwcEINAmgS+t2Bpr4zhDAAO5XC30bVPTdZk+yaMDgXYJaHKGTEQtU44TAhjI+Soh02C6Lo8LBCAgAmqByEQ4MJBBdYAZV4MwcREEmiGws5IyMwsDuVnhN3YFg+Y3MXEBBJojwKA6BnK10mtKpsY9OCAAAQicEmDPLAzk4lPBHld8YEAAArcIHOwCjYdE2/ngVrkm/Z1B9PfY2KZkUhXiJgg0R4DtTjrJMZC3ILZ2stK8uc8BCgyByQT0emZ9bjR9YCBvN7Jj3KPpx4DCQ2ASgeYXGbZuIIx7THpuuAkCEDACza8Pad1AtFnaYx4FCEAAAhMJPLf7nky8N/xtLRvI2tRjn6vwVZgCQKA6Ab3JcF89igoBtGog6rr63U72uapQ6cgSAskIHKw8TU7tbdVAXprgD5NVYooDAQjUI7CzrJvb6qRFA5FxyEA4IAABCJQkoFfhao1IM0drBkLXVTNVm4JCYHECWp3+uZ3NrFJvzUDUzHy0eLUiQwhAoBUCTc3KaslA1laDmXXVymNMOSFQj0Azs7JaMhCtNteqcw4IQAACcxJoZoFhKwaytdrCXldzPjKkDQEIHBP43v6hhcqpjxYMZGUK8m7z1NWYwkHAHYEmBtRbMBDWfLh7tggIAk0QSL/te3YDWVs1ZeC8iWeVQkLAJYHUA+rZDUTblagLiwMCEIBADQIHy1RrQ1IemQ1EO2Q+TakahYIABCIR0BYnu0gBD401q4Gw4nxoDeA6CEBgbgJqhaTcbDGrgWxNMKbtzv1YkD4EIDCUQMpX4GY0EFofQ6s010EAAksRSDmtN6OB8JbBpR4J8oEABMYQSNcKyWYgK1NTM684IAABCHgkoBlZGhNJcWQzkJ2pwm67KaomhYBASgIvrFSbLCXLZCDaKFFblnBAAAIQ8EwgTSskk4HQ+vD8yBAbBCDQE0jTCsliICtThrEPHlAIQCAKgRStkCwGQusjymNDnBCAgAikaIVkMBBaHzyQEIBANAIp1oVkMJCt1RxWnUd7fIgXAhAIvy4kuoGw6pyHEAIQiEogfCskuoHQ+oj66BA3BCAgAqFffRvdQP40AdQK4YAABCAQkcDBgg77vpDIBrIx8D9FrDHEDAEIQOCIQNj3hUQ2EN42yDMIAQhkIPDGCqH3hYQ7ohrI2kjzrvNw1Y2AIQCBCwRkIDKSUEdUA9kZZTZNDFXVCBYCELhCIOTCwogGokFzDZ5zQAACEMhCIOSU3ogG8sRqzNMstYZyQAACEOgIhBtMj2ggDJ7zvEEAAhkJhBtMj2Yga6s1DJ5nfHQoEwQgIAKhBtOjGcjOADN4zoMGAQhkJRBqMD2SgTB4nvWRoVwQgEBPINRgeiQD2RhhVp7zoEEAAtkJhBlMj2Qget+53nvOAQEIQCAzgVdWuIcRChjFQFYGk1fWRqhRxAgBCJQg8Kklou4s10cUA2Hth+tqRHAQgEBhAiG2eY9iIHRfFa6dJAcBCLgmEGJNSAQDofvKdT0nOAhAYCYCek/IYaa0iyQbwUDovioiNYlAAALBCLjvxopgIHRfBav1hAsBCBQh4L4by7uB0H1VpB6SCAQgEJSA624s7wZC91XQWk/YEIBAEQKuu7G8GwjdV0XqIIlAAAJBCby2uNdeY/dsIOx95bXWEBcEILAkAbeLCj0byMYUYu+rJaspeUEAAh4JfGtB/ewxMM8GsjNgbN3usdYQEwQgsCQBt1u8ezYQvfdc3VgcEIAABFomcLDCazaWu8OrgWjXXQ2gc0AAAhCAgNM3FXo1kK3VmB+oNRCAAAQg8C8Bl9N5vRoI03d5aiAAAQi8J+ByOq9HA2H6Lo8NBCAAgY8JuJvO69FA9Caul9QeCEAAAhD4gIC76bweDeSZIXtMxYEABCAAgQ8IPLd/aXsnN4dHA2H8w031IBAIQMARAXfjIB4N5B9HghEKBCAAAU8EXH1muwrGVFrb+YsntYgFAhCAgCMCX1ssey/xeDOQrYFh/YeX2kEcEICANwI/WkD6nHRxeDMQOetXLsgQBAQgAAF/BF5ZSJqp6uLwZiDsf+WiWhAEBCDglMBfFpfWg7g4PBkI+1+5qBIEAQEIOCfwpcWn96VXPzwZCK+vrV4dCAACEAhA4DuLcechTk8GIiC8/8NDrSAGCEDAMwE37wfxZCAsIPRcZYkNAhDwQsDNgkJPBsICQi/VkzggAAHvBFx8drsIwpRiAN17dSU+CEDAEwG9ofBQOyAvBsIOvLVrAvlDAAKRCLjYmdeLgWxNOVagR6q+xAoBCNQk4GJFuhcD2ZsSrECvWR3JGwIQiETAxYp0Lwbyuym3iqQesUIAAhCoSEDjHxoHqXp4MBBeYVu1CpA5BCAQlED1z+/qAZhwazvZwj1oDSZsCECgGoHqW7t7MBC2MKlW/8gYAhAITOB7i12vAK92eDAQ3oFeTX4yhgAEAhOoPhPLg4HsTUBmYAWuxYQOAQhUIVB9SxMPBsIq9Cp1j0whAIHABP622Nd2Vt3W3YOBSMONnT8FFpPQIQABCCxJwMWW7l4MROC3drIafckqSF4QgEBEAtUHz3tongxEMe3s5J0gEas0MUMAAksQcPMuEBXWm4Eopr2dDKovURXJAwIQiETAxfYlx8A8GohWpstEHkRSllghAAEIzEjgN0t7bedfM+YxOmmPBqJCyEQOdn4yukTcAAEIQCAXgT+sOJqt6so8hNirgSg2AVNLBBPJ9TBQGghAYDgBF9N1L4Xr2UAUs5ps7JM1vLJxJQQgkAf33WQAAAdVSURBVIvAl1acqms9ruH0biCKfWMna0RyPRSUBgIQuE3AxVqP6Aai+Ld2skbkdoXjCghAIAcBN2s9MhiIyrCzkzUiOR4OSgEBCFwm4GqtRxYDwUR45CAAgewEwpiHhIgwBnJaYWiJZH+EKB8E2iQQyjyiGggtkTYfLkoNgcwEwplHZAPBRDI/SpQNAm0RCGke0Q1E8e/tZN+sth42SguBTATCmkcGA2HfrEyPEmWBQFsEXO5vNUaCiIPop+XDRMYozrUQgIAHAuHNI0MLpK8ImIiHR4IYIACBIQRSmEcmA1FZMJEhVZdrIACBmgTSmEc2A8FEaj4W5A0BCNwi8NoueGinu23ZbwV+6e8ZxkDOlW1n/8m2J1NrBfdBAAKlCYSebdWagai8mEjpR4D0IACBKQRSmkfGLqxTcTGRKdWdeyAAgVIE0ppHCwZCS6TUY0A6EIDAWALP7YYnY2+KdH3WMZBTDTb2H7yUKlLNJFYIxCbg/mVQJfC2YiBihYmUqDGkAQEI3CLQhHm00oV1LDYmcqvq83cIQOAeAs2YR4sGojJ/Yefezk/uqSXcCwEIQOCIwN/2+9rONy1RaakL61hXmcjOzgctiU1ZIQCBWQhodbkWCB5mSd1xoq0aiCTR1ic/28l28I4rKKFBwDmBdKvLx/Bu2UB6TmqJsGp9TK3hWghAQARSr/EYIjEG8paS5mo/HQKMayAAAQgYgaYGyy8pjoG8J7OxX5/ZyeA6nw8QgMAlAhos12eFur+bPzCQD6sAM7SafyQAAIGLBJqcaXWtPmAgH9PhvSJ8gkAAAqcEUr3Ho5S8GMhlkurOelwKNOlAAAJhCaTf02qqMhjIdXLq62RcZGrt4j4IxCbAeMcN/TCQ2xWcRYe3GXEFBLIRUJeVvkA2tbJ8rIgYyDBiGhdRS4T1IsN4cRUEIhPQ+g5N7U/z6tm5xMBAxpGlS2scL66GQCQC6rKScewiBV0zVgxkPH11aWkO+Gfjb+UOCEDAKQG6rCYIg4FMgGa3qEtL31K+mXY7d0EAAo4IvLJY1LtAl9VIUTCQkcBOLldzd2snq9fv48jdEKhBgC6rO6ljIHcCtNtXXWuEXX3vZ0kKEFiKgHbRVavjsFSGGfPBQMqpSmukHEtSgsBcBNTqUK+BZlVy3EkAA7kT4MntrBkpy5PUIFCSQLMvfioJ8TgtDGQesvqG88M8SZMqBCAwgcCPXctjwq3ccokABjJf3aA1Mh9bUobAUAJMzx1KasJ1GMgEaCNvoTUyEhiXQ6AQAVodhUDSApkZ5I3k1RrRoB0zterqQO5tEGCG1UI60wJZCHSXzaYzEtaNLMud3NogwLqOhXXGQBYGbtlpFbu6tXjXyPLsyTEvAb2zQ88Vq8kX1BgDWRD2SVYMstdjT855CKi7Smuw2Ha9gqYYSAXoJ1myALG+BkQQjwALAh1ohoE4EKHr1uJ9Iz60IAr/BHhfhxONMBAnQnRhMFvLlx5E44sAs6t86fEfDMSZIF04a/u5tZNpvz71IaplCcg49Dzsl82W3G4RwEBuEar794eWvbq2eHlVXR3IvQ6BPyxbjRHqBW4cDglgIA5FORPSpvsGhpHE0Iso7yMg41CLY3dfMtw9NwEMZG7C5dLX+hF9G9PJQsRyXEnJDwHNrFKLW+bBEYAABhJApJMQMZJ4mhHxdQK9ccg8WAgYqLZgIIHEOmMkm65FQtdWXB1bjrzvqtIYB8YRsCZgIAFFOxOyjETNfowkh57ZS8EYRxKFMZAkQnbF0KwtjZEw/TeXrllKo+m46qZiVlUSRTGQJEKeFGPdtUgwkpz6RisV6ziiKTYwXgxkIKigl2llu1okapkwcyuoiEHD1sC4WhrqWj0ELQNh3yCAgbRRRTRzq+/eetBGkSllJQJ6hWzfTcXAeCURlsoWA1mKtJ98aJX40SJLJH1rQ8bBtupZVB1QDgxkAKSkl9AqSSrsgsWitbEgbI9ZYSAeVVk+JlolyzOPmiOtjajKzRA3BjID1OBJaqykPxl4Dy5mofB709CgOFNwC0HNkAwGkkHF+cqAmczH1nvKmIZ3hRzEh4E4ECFICJhJEKHuCBPTuANei7diIC2qfn+ZZSbr7mRa8P08a6aggfB9d9I9VVOJgHljIAFFcxbyqjOS3lQYN3Em0Ek4fSujN42D73CJzjMBDMSzOjFj04yu3kzYSsWHhtpKRIahFgbrNHxokiIKDCSFjG4LobUmaztlKv1PWijzyqUWhkxChtH/ZEX4vMybTR0DaVb6agWXmfSnTIUxlPuk6McwZBb9eV+K3A2BgQQwkIGguGxWAsetlBWmcpG1zOJw0rqYVRgSh8A1AhgI9cMrARmJTpmLusL6Vkv2LrC+C0qtCXU97TvTkHFwQMAVAQzElRwEM5CATKU3mN5cdKv+z/tbGfU2vt4MepPQv3XKLDggEIYABhJGKgIdSUAm05uKjKU/1JKR6Zwe+r+h4zHqSjo3MK3/O57l1BuE8sIcRgrI5f4J/B8BapLNXgtWfwAAAABJRU5ErkJggg==" vertex="1" parent="1">
          <mxGeometry x="84" y="323.75" width="106.25" height="106.25" as="geometry" />
        </mxCell>
        <mxCell id="erdwm7UFil0JZydvI_QE-4" value="" style="shape=image;verticalLabelPosition=bottom;verticalAlign=top;imageAspect=0;aspect=fixed;image=data:image/webp,UklGRtwIAABXRUJQVlA4TM8IAAAv/8A/ELVQtra9cdt8mKKa3tsyq1yC177/eyIGwI8y/490QfVAhYZKRjYzkk8YSNsm/jX/qwQAAMtGsm3btm3btm3btm3btm3bb/tTSGzbSJIUGNjfOulz3cf2++0hvT3EQtWy3ebVS/ZVsq8l+9pmX9vsa5t9Lf/6q5J9leyr/HmUO574nzue+J87Aj2YgS8EO6ovrBf2/Lxbp2LopRc4ZK2wsBTIwQpAzlKgqWqtbL3ADqjzE0QDkERTQTbAMRP4VUlkFiTyyh2BFn7Lo3oP/KxyRyiWRI6CNla5IzxJpApfASni/NILMKsJXMLG05Oy2bW5rg9PzmLoBU6rWbeMckegsgBWv104Qy9AYKHwR/ScvlWgtgBmGVQAz2KPCI/ckUBh5i6Ktk+URe5IcYCduShae+CQO1K0Qxy8RdE0ET2na5WitVvWomiap/mLomk4i6JNKAKzF0XTHGBnLALrFAwE5i6KNqEwy6DSw7POQO9mLgqz1Z0MKl9EbJ2A3/FRUaitJb2TQctXEbfW6gQflSMM1pLeyaCtphrw0XKMwVrSOxmkqSZ8tNVUAxm0/SLiasFHmmoig5ZXGz7aHmGoFjKoXNswyh3PbWSQC0a5I1DbiCAnfHJHFxLITUTPqVt1IoAIuOSObviL4Okf+7njHhTrfiQgkSJ35OyFY+4ojTjmjtKIY+4ojXKYOx7HNFIBBapGKrpie7kDOMFzx1+G3alQwCzuUYI1YJI7d+wUzOUWLTgGVKlzx68iUv7O5g41MJM6d9zHNxtViEw/EsBazQI8XloU3tmoQozfmCT0ArxJRSG0yuVsVDtxMkszG7VevMhyApFAp9AdYjrC/PLy8frcWXG8gKi1KG482roGDTB018BkYPrwsPvwYc5eQP/skxBiLwo3oJVwMQIw18Qb0tpx9DDO8a5x5XlgHXd0FLHXYoqmuaOsfRoF3DG9aX7IKeboKAa6kTdiijYBMZQ1KOL6zIDyqYcTb3QUbUwv4T4MgDkDiKGswRu2j0yAYbTRUbQNCXfhCjBncE9YA2S2quAfa3QUTZNOy0TVENYAja0qBEcaHUXT/JdOW02dcFpzADvgpKvnOuT67t3Ftavm6qWTZ7a/xhkdRZsArXTSVAOXNRdQzOk06gCf2f4a3fOltcaCVsIZvK8mDmtuGGm7j7eaRPes8Fob7GPCGQCwsK0RMNKicFpE97yfoLW/ekw4AxvLGgUjFeC0iO75ICFrF/6YbgYOTGsUnVJGchDds6YaJJuBC8MaReuU8pGL2J411STVDAiWQtE2sJGT6J6fq0WiGRAshaJpuMhN/NzRJs0MCJZC0SaYiCC650ubJDOgKBRtAop5iCK2ZxcpZkDRiSMYoZmnM1DMQhR9YZE9O0k4g3u/3PHHYZunM1DMQRQK1AuL69lNwhnc++WOP4XTWqsaBqJQoPYsRe6oqRPzF4UCaYTIHTXVYPZyY7a/kyJ3vK4mcxeB2f4qRe44QrNgpKJwmu2vUuSOgGbBSGUfr9n+KkTu6ICRlgN8MuWOUMxI28d/FOSOvw7tq4jOz7+MqIcLuO66fCG8AIbt+RCH9eo1kMpL7jhmEHyt8gkMAd1jBnnJHS8CBQDCAd5rBnnJHS8CfwY/zxnkJXcc6IcJBnxnkJfcEXTC7lMAbt8Z5CV3PAsSHJSJvaS6dpR//vsmAHAMavLnjqATdJcKVE98N1zlbdiRCb4DufC5IwH47hHeJ7LbrQo/8DsKKCbPe2RCD8xgJHvuaBGYJ45UQ89LwEb03NEmLE/UwEzI2+ehr75Injs6CMwTx1QruIX0AdobBM8dXQTmiaC4wacPJ3Lnjk4C80SNRx9uxM4d3YTliRN0HwRS544EQXmiAdkHhfi545nrQHoPTIBAezah+qDo2YufO565zyP+hyNoBC8QBiSXZwuiD4o2sBc/dzzz+f8B0APOHVLTs01IHwO99ip+7nhmiirlb6d/pPvmkZfiIKSPMf32Kn7uOND3UtOl7ICqi5A+NjxnLHeEIkC2CehDAzY5yx2h3iakj4EeQC9Zyx1B3CKkD9DekLXcEUwsQvrQ5Cx3hHeAb9LzDOhjImO5I1wDfzFo5/59GGQrd4R9cAX0YjCmusG7DxP5c0cvwVcYgRAQcngeqbZz3z4scpI7NgUoz137XSNQDgGgCYzEn18azz5MMpA7AiMEgtP1NdiDIWiArMJ/GOunUf/2aF6eNeDm14eDrNx3mN/ckfac39yR9pzf3JH2nN/ckfac39zRx3Nuc0dvzxnNHUM85zJ3DPTML3fsVDFSAd5Izx2zyx2VH52prgkYp+q6M3F1NVMvcB7tuWM2uSOz160YFe254/nljgDvmztyVLznjuPljqAAbWZ12jsdd3fLvVU+XmC2euaOHBXvueN4uSM4x5uBZ+7IUfGeOw7PHSlaa11bY+qKAFSGzcAzd+SoaM8dh+eOFK015funUZRSYDrCDHrxQAcFUOqoTnmnOsHooA9SrOqk9aU9PV3bJuBn/EXRWV1XV/tg6bPbDM8dKZpG2S0aiAuenwYiUq85IOi5lsBa4jURnsmjRozckaJNwDcg0MBYhH57/hCTesOBRD8BE3xPvCHCG/dBM07uSGD3AUsgDmyQF6Ff5Y/CbJB0TLDmc5CDAfiSYj9EoY8u6XLH07j9vgf/YkP8Iu5ePqTNHQfaUc98O00gXQpEC6SqvM4rdwz3AgxwJI+UXz2veeWOEbwAPKhCEewoP+QQALiFvp7XF5HNLHeM42V588jHGEYqQzbgDMEQCym66PMIRl5W8AIH0AFuQA0c08ewfBIsK9gkk8uubF4M4D98sEr5MNWzu+Bv7dnnTQbUBgtXcExtxAP7rMmEEGQBbIFAYh/2mjNZELtrIC0FEOC3e018zd93B4ICcbQCsVKAhtgQe3b5++5AoCcO1nAJxqAFO8SGqJLI4HcHQknY+Qv0vk/Tm6wqBeTB3/8jnHohoAFwzL878MT/747+O/d3R5/4nzue+J87FgA=" vertex="1" parent="1">
          <mxGeometry x="320" y="300" width="150" height="150" as="geometry" />
        </mxCell>
        <mxCell id="erdwm7UFil0JZydvI_QE-5" value="" style="shape=image;verticalLabelPosition=bottom;verticalAlign=top;imageAspect=0;aspect=fixed;image=data:image/png,iVBORw0KGgoAAAANSUhEUgAAALQAAAC0CAYAAAA9zQYyAAAACXBIWXMAAA7EAAAOxAGVKw4bAAAgAElEQVR4nOy9e5SU13nu+Xt6sVg9LBbDMIzC4RBCCCGYcLCMCUFYlrCsu9VlqUvW/a4uE0VWbEkhCiEaFqMQRZFlItuyjKt1v1+qhaotCctYxhhjrCBCCMEchsPBhHA4DKcPw+KwWL161TN/vLu6q4uq6mpAycyZ864lUf19+/Z9e397P/t5Lxv+h/wP+f+htPwLldtsPfXy1cs/VD218tf7PZx0w2nDcNPXyl/dluE+T71/G9U5nDZ+7G3WEI0rNbj/37vUe/6P5b189vwrW229AvQg37XhJ6t7a6XLZHMt4FGYiYZSd1fnno+jPR+zfGxja0Sdilrq/F3vd6XUu34m8jT6Xdle6qRrpt7q568ljWaq6jL7/85kcwDzbL4oMccwTnAUc/9//S+Hd0rsBf4W1Ae0ZLId4zCzkM42/K5gJjAVNMECmT3Abw+zPacjdZ/tFOr8WNpcb4Y+3S/oX2t2P516z0Sb65aRyeYuBB4xzClfExwHtmDuRd5umCy0wPZnkRYA08AjKrtJcATThXgb2Fgs5A/XqKsFGGVc6i50HmfwxDTcZ/zX7sth1V9+U7UyV89w9QqtzlNq4l4z9dX6XS9ddTvrXR9u/kbPMuh+W7ajRWgWMBJ7h6WJmJvBCyVdD7xjfDaA0C7DSzKHDJ8Az0GaCR4X9wf+b4yino2gp4CuYiF/rLrNmfaOEUilYiFfamvv+APESqAPsw30nsTfFAv541XPW/NZmnxPNLjWTL/V6ud6fdh0myshRzNLRK3BWV1JrbJq3auGNeWHqE5beb0yXS2ph3lrtalRuuo6a7W/BLQkGNEOXgbMMkbihKAVgc3rmB7LS4RuBQ4CswUPIo8QAoQBDQziw4KtwC7M3yHWFgud+6obnMnmRgMLwFdFG7gTeBc4LnTIeDRolmAi8H1gG7Xfc6P3UwuG1nt39fLX+rvWBDEUNByyzfVm6OHipEbYutmvrZbU+yIbfcWN5IzjyUw298eGR2RwepuK0QnwPex7il2dfZlsbgywBLiPk/cuGPYIXgTeArYXC/n+CSOTzbXYjBaeCsxC+jQwj4AvrZg9iBeBlcVC/ij04/URwCTgbCJvK3AYayNie7GQr/tcZ+Ld/Avm709fPaDryaniqHo4qBFMaab+ZvM381zUKGsoyFPKZDsut5kh+CpictzSFpv1iKPYP5G0HjzL5maJ20Dj+suy9yAdAPbbfgupKOgzjBaeBsy0+XfADIkZoMnEgCylPB8i/Vzwge3t3V2dJehnQeYYXSWcwcxASs/g/ge3WStpUbGQ39vgXTYLO6vfaT0I0eykOZwxMyhdLcjRaFaslGYxbHX59f6urrOZWbkWTGgIEaraWw0tqsuqtdymvzVX8m/bullwFfBjw/clJgHzka41fkrWFMkV1bIZnCt2dW5ry3ZMFMyT+DRwK3iG0BTQCAAJsPtAH2JeRfwcvLVY6DxUWWAmm5uQyebOxf4ccDlo8gAOr6x74G9JFwIvAefQXN80ul5PGsENGHomrjcGauVrgRpLX52GlKVO59bN0+yXWJ2/mbKqZSgcNtRHNtTv6n//wmYUgZv/SehGwbeAyQkQI1QCdoG2YP7eYgN2SdKtmWzucsx0oILEKGNoDoI3gN6RtAY4VOwagAeZbK4Few7ii6ArgFlAS3wBUUBVmccxxxCHbPYi/a1gl+3NBGxqAX4CbCsW8nc3+e6GI0P1yVDlDzU2+q9V03bDhRbDXYZq5WkGPjTKc7p1NspDdbq2bMcY0DUyVxnOBcYA5bF0Anub4UNJP8dsQN5vM0bSDZi7LGbFxEsa9JQM+zEbhH8K2oDYVSzk+yrrzrTnRhrPE2QtXQlMwVFvKmonsAXYg/0r4ECCNAcNxwQnUpk130dbe26hxCHbo0Eju7vyG6qev947HOo9n/QOG+Svvj/s+usN6HpL+HCxTWWeZn/XqqdZfNVoZm8Wx9UsN5PtaAH9ke2lQuMcS3efxEbDD4XWG2/pLnQei/S5VuBi4Eu2M4LRkAaf1AusBd7BXgvsLnZ1VraDVMZk4qO5yPbFoAkEjUd/WYjUluMSu4Gdhv1C/wUYYfhfCAXOGPA4xwfYC9ov2A781LCpO1F6mfaObsMFEr9WjGdpRoaCqUP1+1AreTP1t8DgTeGQiU/zerN5TvfhmpWm62nL5kYJ3gZfkF7ZduBJ8Ou2erq78rRlc2BPEVyIuAx0IUGbVRa1zbBK8KrtI91pEGfac2OBGeCZSJ8EzyQ47bOq8EOVVN4r/65OX+tvqq+dANZjvW1YL1ECdtZhQepJoz4crpzyGDjTthzNwIdTLW+o641mh2bLr1lfJpubh/0LRA/oXuDlYiHf19beMUrSuZjLjC9ObEQLLmMBg7QHKBIbsK3AKMMcmfnGn1ZQb5OAkQM16hDyeqwfG45KjMeMtvw/CbUC2G4BtarMEdqjkEYCY2zGSkwwPgvTosBDJcxR5COgw4Zj4F7FBnS87anAWUmJsxNYa+kdwfpiIX+iwTts+O6azAeNZ/FG5Z8EOT6O2e+/K0mc7kJgD/igrcsF1yIuBsZWpjUcBW8Q+rHN+4o8c5E+j70QaS5Bv1XK8bQJ/KFhrWBHsZDvy2Q7AOEYrGMEo2yOCx9DOmaMDGW4Eu0M3WICIi2YkYnx6EWUyhN29eybINU08NVYdyKmpCc6jPUqeCXS3mHO2v/iciYVK9Xl1JLTwdONymokzeZvmK6tPTdV4m7gFqDMJ/cCO2xvkfQL4EPjfUJzDecLL7Q1V6qcfctlervR+8APMBu6u/K9mWxuFDDbME/waYJBmSo0prpRxr2Cw6DjqR2k9rcCo4gZv9W4dUADCcLHgB7QAWCX4efAu92F/P5y2Zn2DpDmEXTklcB0oNfwN4LlTczYZxpyNC2NIMe/ppzO8jVc9qIhNGnL5qYJL7O5jkRzStpIUHRrCAOj2eBLgUts0gxcwfkiLB8WWgd+z/C+rAOI0cA88OcwCw1nA6PKHLIr81fyydX08kkiwGVGow8YgTQiqJW6abskPQH+sFjoPFF+Z5lsbgR4Pmip7UuFHix25f+iRkFDvddTgYDDlZZ6M3R14fUa0wyVUit/rXqG2iHXmlGbTTdU/SelbcvmRspeYvEnZdwK3gY8gLUWscD2tYgMaBL9C32IYiB9SLAZPwQ2E9dmAxdiX4KYDxo1sJ1LDIZ1AHk7aDfmPyIOAkfARwcbLWlUavMJYpY+Dhw3nFD8XbLdFyuERhBMy1nAZOATQQPqXONRFRvKo+BDqdw+WbvAP0TqAmZhbyt2dVZb+A3Vf7X6qVqGYragiXFVi+UYakA0AxNqNbTW7+q6h5O/mTxDvcya5WWyHWNBPwLOTuv0buBh8PugWwgjoKnV+Qx7ZL+P9EPDOsUgnAxaiLkEcQExoAZyoKPEYN9ELP+bi4X8IYC29o6xQlMsTxOaYvgNxWCcCIwz7hJ6wvYUSROIAVuyOSB5c7HQebjyGTPtHa1IE4LV0MFiIU+COe3YX0WaQ33pBTqBZcVCvqfR+xviPTfTB/+vhRxDLSFngglpprym6slkc+Ow30FaanwXZh/SL4VbgsngUlVs6Iz6hDcjvYX9faTdwETDAuHzbS4Apip1jqEkaR+w0eZniE2CHeASaCowx/anFJq/WcAEw4hB1tBlJNzPR9fFH30EJ70rMRdTDDMV+LoEHDBskfQR8UHtAKYA8zG/Tqjwpxqmyowq12HYg7iku9C5u8n3XGt/1kyfn9LYqBzQtWBFIwhRCzLUa8BQm8d6s3WjpWaovyvLaEgBZbK56ZjrEM8Dl4LfBDpAN9qeqX7jnn7ZgXkGUQTGGi8QfAY0j6DgIr1dAu1BrAN+bLwRa59iiZ+HfD5oPmYOYnwUPZg3to1U2U0D9w19gr1AH1HmBGBkZREn568nLhkOCrbbbAP+TtJW8EGsmYirsG+Jdmqb4fe7C/nyZnSoWXeoVfaUVtJa98u2HNUDrNHgpupadf56WLc6T7XUepih6qxXRnU5tf6uTL8b8VfEwOg1/COoHxqk+a8keBN4yTBecpvRUmDs4BmTI+C1oB8grQX2pXrOBt0gcZHRfKC1f25V/zx7TLAXcwDRgzmRCj07za4jUy2HhA8KLSsW8sXy8yXt5HTkuUa/r9hkTrYZJXHcZpfEfqCEGV0xC48DtRCry0QFHVnekh6X2AFsQrrV9hyJJTJXAF01+mAoqdcnjQZs0/CjkoduBg+dLoaud6+ZL3q4X+1QMih/W3vHFEmrMBdWKdaOI9bYfk/S5wkaq5pH3g9eDXrb9oburs7eGFxeCLoKuJzAvbXasNH2GxIfgHY7lBvzgM8A84lBOVDf4Am8l1CCbLX9yzRYj4PGGn5b8H+CDxsOCe0FjhQHZlUy2RzGLWlmnys4x/a5Cixd/YzlyjeDnzS82V1fNX5G+2Y4cqY1hc1KM2UPBWFq4bLhtrklk81h+zZJK8FjQL3EzPOa7W1IUwX3ApcCLf2MhH0U8abQC4RvX29bNjdScB72jUgZ8LhQFp70mnux30R6zPg45jyh85EXJL/C/s5MM38v6BhwzDBSocxpra0Wr4IsiX1J7+UYwUMfBY7a9AjtB/8SaYNhS3ch35fJ5sYSH9MlhD3KDPoHWFkzycuIe5NPY6O+qAcvof6E2Ch/tQwqr5FxUr3CaxVUK/9QD1Odp5n66+WpLrseRhuUP5PtmAhaBVyRsOZq2w9I2gtcCf6qzYLKAWmzTeJb2K8XuzrL3iGTje8SuonA0OXUJaydFjsE+8D/ybBbaC/2nTHoy84B/XmoGJCrwStBW5MfYSnVN5KY8acDs8CfNEwTTMQajRhB0mA2j6EBexfSI+CXi4XOXoC2bAeYKZKus1kkDWrvASCHWZPMW+ttCKvlVDB0vXIH5RmuprAZmHG6y02z5Z0yBEn2vzcBjxFav4PA3cA6Q4fid3Rccq0SfGB4BFjbndS/mWzHSMOfCC1hYIkuAeuAl8DfBx0u9qfPgX010hOQNoH1bY/WA/sTBBlHDNDRqZ5WYv9TImyde4FjiCNAT3qeXkPSJvKfgU8SDMYkxAibkkQLZlSN+g8YnhDuTNQf0M/N3wR6sOylk5r/NPjeCuu8Mw05mi6vmuUYinL5l5Kh6mu2XSely2Q7WjCvWLomcQVdNkuFbrT8FdDYCnKsF6sLeAyxpeznl7RnC4FHjcKTO7D20+AnQLswZyEuwP5M/wZTzEybO1J7DgI7sfchHSGgwD8aXhsg4yq1haTfJM2hTrKvOylN3CyBDmK2CrYgfgbeDDphGCU8xdYcic9hLjSMCztrH5fpssgLbSzbU7e1d4yWdB+wGDzagKwliL+u8IUcCkJUpmk0i9crrzJdf5p6kKP6d3UllY2srrSZBtTK04hZaZSnEYauMaBzLcDbhjmCxen6SpsJ5VEhOAZ0Yh4vduX3ZrK5ETZ3SJxv0yox2/a0snW94Lvgh4pdnQcz2dy5tu8FXS4x0hWjTdBj+11J7xk2gPd3FzoHtT8pOlala4fA/xm0n8DPx5IGsGxLMSJh6lGEnfNY4NfAE0N7ybSkdBkBAx9IwtRHsdcjdQOry/E9Mu25VuNLJX3JgZ/LoRV2As8ALxYL+QNAS1t7bhLycqFzMUcQLxQL+W9X9Rk1/h5KTmuGHopNaFRRrevN5v848zTMn6znRgKPY77cn1I+gvUd5JXFQmcPQCabmwHkMQsG0tE/FVp8D/waMcNdjwcCyaR0JxDvAs/ZXiOpjxho85F+T7HhmoQZC4xBjBo85fb/cYL40I6EGSuHCG+UfwLvA+0V7DE+2F3o7APItOcgDKOmEWaqvwcswET8kIFpvQ+x1vZzQsViV/54xXuahb0A6XzshaDxiPeN80JrML0RukGTMSeKXfmy2vx0IQfDLGMQhh5KGs3Ezeb5uKTR7Fyz/rZsbjT2M5KuTuOyT/b3DMu7uzqT2jk3HnkJ5g+RWhM82WG0XWGMNGNAe5EKTgPdYaO8R/YqpBcJXHsu9lVGlypMMwd3Vi1bfcqbOipuVslge/0SYb66B7Md6e+BrWkj25OC0LRIGgcstN0m6XLj8WX4QsCgTuDJNBP3S9qMLgDuAtoxh5Cfx+STaWktSDEUC9VoVWW46YfaFDaCEvXu1ctPg3tDpRvORrTucpXJdmBztqSnMGenp98J3Fos5D8EWtraO8YL3QN8BTE2aDcfNvoq+HWhKzCrqLTJGACyJcwa5CdBH4DPw3wpsRnj+2f1mNGOhLGTdoD/iX5TUJchRV8/BJZGASPCiJ8xhDnp/0ZsLCeAJxGb2JGJUqvWFPYRCpvN4F8gbQK2YnqRWxP3fifocmBE8k84AawBvxF23eopdg3g40w2dzawCjMX0Yf9PaR7KjB0o76lzrVaaKE6ba30/deagRyNBlGtRp8KS9Jsnur6m4YcmWzuLGA5cAeJITB0Cu4nDOxnEQP5JirtNewPJN1MDJ5HCVwZ96AnccL7bb8o6SkCz+YMN6jMZIT0ARuN3xHanfjhacCvExTceAZYjFHlZ6sYm8epmq3SwMuBd4B600w7XfaMcOXibOOZySqvWk4QTrUbwT+1tVF4lOEeSR0MdlwoATsMmwQfYbbE3z4h6Q7wItBuYIZxNtl5nEmWo2k508ZJp8uKnCk2pZLVGAF82dYKYGyiZLfZvkfiQ1DG9t1C5zporPJb6QUvF+qy/QBwUzLBLKuq3wXnsEqGHol5hiU4FDCJJQBrO2K14L/Z/pSk82wmxG5SyIPU370Otfe+RLcdA48g8P6oUGGH0sX2UUn7MXnjArFibEN6A/vl7q7Ogyne3ijC0Ok8m89KLLAZ179RdT9q6QO2I68V+lvDDMGtNlPL3mRVbT6B2I69QdIPsDci/hD0crGQ33cG+vCUZDiKlcrfw2EiaOLeqWLzhpvYTHuuFfEc5uo0aI5hL5N4EXSHzV1UKjYEig3Sm8Bzxldh3SLR6gGsekDmAcSrqe5zgWU2F1RAj17BauOfCv2eTTtidPljqXjpR4H1tn8itImwmThSLORLKfZGi6Ux2BPSSjAmnlWt8a9xbCJbJWXt/tXjhMS72AVgLarkwjtG2sxMH/D5MucCZ9Ww1zsqsc64BzRSZo7FdBwbr/JHWIHhDyuUQH9dFS6hVl8NxWpV5q0ldfv+TClWTgU+DAfaDCd///W2bO4Z4VvSY24Bbra5XvIfkeJppF4pgT4EXgM2AjcDHfSrlwE4AnoM/E2bE2kzdb/QuRXA4Aj205b+g+wvIRae/DjaRTjNvgNsShh3FPZoo4mCucCnkWcR7MTYqvxU7wRDqjU0g4boLqwtwEeGLYKtxa78EYh9BWamxXlCnwfOA1dCJQh48j7obWC77TFpY3kW+Hds5kvMAbXYPC9xe8UGsZHUSlMPNw+VD/j4IMfHnadhWZls7jrDpwTttqdJWoe51fhhiRuA8m5rJ2YV8mrQJNs5wTWkyKFpTBxGepzgms+ydT34FsHkgRlZe4BnDH3YtwumV+QvIbYBbxlWC422fT1wrsJJIGZbVUSxiunvKGJb+CvyD4Rx0VFiczgWNCLWfh1HwU2HgoMW8Fikc4CbbE/tJ0n6DVHoM2yV9Br46TJFCcFkBEfvy4ArCOOolthsGuCQpWeFVxULnXuAluSDOAN4DPtSxOeKhc51tfqm2T7k1Ji1plmOoQpshiWh4tpwH66Z+vrTZdo7fgVMNnxV0r8F/8TmCcEUAKRDth+VtBq4DvtmYHp/GKLAij3GKwXfx7oQfD1hxjnAdYqNcYyEfx24I4UbSG9V28AvgVYTnt9XYh4AzU3WTRWP029+etDSq7JfQOxMvn0Dz5XNjYjwBSBUQpQSlKj5jgK2MN34XEmfAeanAT6iImxYD/IWrK2I94BtmKPBXABiivGVQteD51ZM/L2G1RKP2Gzt7uosK61eA/YUC/nFFX1VbmMtpqJWv1b+rgcra46z4WLo6gJr5RkKctRrONQuo9Hv6jwQHXkd9qfD84QbBE+GRs1bDU9gNkh6AHwDaGTl1AU6ArwK/EdwWzJO6n8ew1HZryL9wPB5wW3gxCLosO3nkZ4DtqeXezl4BeFLmEQQwV32gLYb/lZ4PbClGEqRluR+NRtxNvAp4jiKiQzAoD6C+egh/ACPGkpCLcnT+2iUz0fg9cVC58H0bsYB82yfj3S5yjGtB7ftCKgHfBh0ENgN/IIwk82CbjMeV2HFt5pwzdqRae8Yj5hXLHR+n5NlqEFalkaYuzrNoN+1Zuh6hZ8JORUM3UxZNaWtveMm4BlJOwwPAGsUG7Sn6MfQScx2y+ti86VM+X7CuL3A+4TB0U7QV41vECqHJ9hl86jEy8VC/kSyM54PPIx1nkSf8SahD4CPgB02+yV6i4V82ehnBrAgQYV5DtetERXmn0fTf0eMjyrCF5RlJPZoxFiHLcoYkvNG+lRLwBbbbwm6kHYVC3na2juQuAD0COWjMgag+PPGY4QWMoDjjxr/jeBx4Boi6M70lKnP5jsKk9LT7dtTzVOX5aj+fSpyJvJDcxClgqbLtQAzsJdaukb2d5CWECdHPWD4GmVPHYHQatvvCD5vcTXWiHKvSuy1WRWsCK22l4JuAI9M+Q8IPUgEKh9h+0KJy4Czbc1L5kSdoIeLXfm95cZmsrmRmNmEgdPnHQb941KZx4S2JOOhvzfepQH8fKLK+OckSJi0eaNtT5I03fYnFcFt5tse2z+44Zn4ADuPZLK5kba/JljugRAMh4HbJdaBrgaWGk9LtitrLb6oONzoOuPlWFPAJcT/2l3oPFKjD+u2ucHftfoZaucZNENXJ24GA1dLvWWiGcgwHPhR/RAloCVFGbqG8Mi+ANiIvQxpLHAtscEZUDDY+4AViHOo5JgNaTZ9DFEEjzcsFeoAyvDkBPBtYEWU6XswdyANxKIzO4B7il35D4CWtmzHBKFLjS8RugAYn9KWgA/B7xv9UBH/7mzh80C/Qxz+c1Donwi19GFClR4zdoTJPZY8UeoyBmmgzzW0Ca4mDiQ6anhRsLJY6NyTyeamE9TbpekllQzfTuaxEKvcn6b38DxwZ7HQmVy/3JHg2otDzNCNVulBbR4iXa08TdlDNyrk46DjTqVO2to7WiX9ne31Qk8Zj06au8mDSojxVjTsD/xLpRbtA9srgHWSRtteLPQ1IiAMxAlUzyIeJZQd99NP77HV8AawRtCL2YmYaZOR+CKxpLf0l4M/AHXbfhdxGDRFZhHiFios/yrj7tYVU0Icj3I5TAz8/Yb/oNAibgf2VZi/AiywfZekdmLFeh1YAd5pM0fSrcCX03PuAO40fKhgPZ4DZmGeNb67u6tzUCSltmzHeKHFhpXdhfzBBi2vJ6cMc0+Ftqu3TJwJuHJa7Ecmm2tJSokM8Bq4td8Fyj5OxL7Yj3Sh7YkDRj/eBHoJ+/ccH8AOiQwwKamXtwB50Ou2ZwKLgKsltYKx6RQsiqMfPAtzLVI7eHrKX0r88/s270hsKBbyx9uyuRbZsw0PINpxWMDJ2oVYS8Tp2EUMUggb68kEPBmRhnpvMivtc4TN/S3j+bLmovLzEx7dZh3SW4S5aNg2Z3OTBfeCvwwaaftpwkjrQCbbMRO0klD399n+pqTl8QH5IdBXCIOtRYqIS2m1zM0G/wLYiXVOst4r9xs0z3Q1Sl8LfgxLU9gMzdJM5Y0+iMoG1svTcCXIZHNXAi9hj0R62WEsv9N4AuhhhWavLLsMS8BFzC8lTau4d9z4ZVBeYYR/E9Ii27MlbcRuRZpjOCD43bT0/xwzF3zcaAfyZsHPom3aSrAE7aBPEYNyEnAe0GK7B/G8zDtIR4mPaZLEr9keL2kMsdlrrXjuYDrso0AP4j8B+212h+ZOF9hepJMDyOwwPCN4ulhICpb2jolIywx3yBwj4NjfhGmpM2lgTyEoyLuKhc61mWzHPFtPKJiYZzFLil3hY9iW7bhQ6BXw7YnxOKMb/nrpTwdyNNuAZmi/05YUefMPQY8THXZndyG/OYySvJzAwC0Jc/SAHwK9D74WNB18BWg0cDj4Z32XCBJ+d+T1aNBq7EeRjgE/JuwnbiwW8q+mZXw2Ay5Q08GXE/ztLNCzQIaTIydB0G+7iAFTpRmkBN4P2gM+gNWbem1kaPRUtrQbfbK2kH1EOLIS1XuIkGPAd7AfLXaFcqUt23G2rCeQ54O229zV3ZXfmGJkP5zecQv4r7CWhf2Ln5C4A3QYuLlYyL+f+mQE0FcVsXQoCq78NzXSNcoPNG8PfSpyuixHM2WXd/ZjbK9Euk1hxriYmL3+0PZSpHFl7laoE1gJXG28lHInW0clumzul5gKvtfoasL37mXbjygiI11qeAF7HNLLCjX5KEfE0Pngc4K1iA2i0HrgPeMloDEDCkQn/c2Aa1WYzwHmkMRarLcR64FDFQqUGhvi3EjMZIuzBeckg/zZxslqcFA3nwiWJuJYS8KmR2I5+LvFQmdvpj03MgyNWGE8UubbSEvBJzBXO/YmoxVnH94IHMO+z9LDhB/jZ4qF/NZabeXkFXc4/V3v736pnKHL0ixLUU+a+QKrrzViU+puPjPtuRbji2NW9ljQ3TEo3S5pBTC9wut5PeZey1cJ7jMaJbuEtAH7OaPV4LmSFjsi9fcpltGHi135fW3Z3DjhFTYdSCXw1zF/L3F9hPzS6IDqRtJBw7vCzwHzDQ8JjXTYH38oNDpt/CaUY6ND5E0DekccL6H94H82HFG4YLUKRifN4lHM4TgfXLttH+8eONaCTHvHGKQFtq8SutJifFjJGdAOyTttzUundsVVe4thkaQtKe7ddOAFw1zsHYKbi12dWzPZ3FzD24IJYUrqLxYDc88HPRZnyvC5Wsc2NynNEgsnST3IUb5WXVgt2qxWmkaUTWX+WmU1Kq+8Sz+L2KjkCGOaV7HuRZ6WlAQLKsraDV4KepPgoB+LcvyA0fMKZpHzmosAACAASURBVOBqzP2IOcQM9jzo4WIhv6+tvWOspD8g/A/HEst4MdU/PdXRC2wAfgC8j9meDJMeJoyNesHPAiuKhc79mWzHbMLQZzADc+pSIrSCewjXrH3Av8feCtppaJG4kvBmL+8heg3fAz4SXA9cSLznPuCvbVZ0d+VPtGU7Rgo9nN5db3oP3wamgN8mjs7Yb8h2F/KbIWIEGh/rTqEQOA1MPFxpBDma2ZQ1kmY2ksNJ1y+ZbO5S4EZwj4OdOAQ8LOkakq0D0j7MCuBFxGybu4VvAFrK3KrxbUL3I0/BnEB63vCwYkDMtL1IcAthwolhn+AE0vRkXb/VJq8IEXbYYhy4HZMTmot83OZFKT6OTLYDxwla+TAnTdNz2X4k2n3c9k5JOx3t+L8iSLlIUGEM8GuEGnwqMAUTkGqQIV78YXOEgD3vCL6fWJIl4CswLYgDNkuQtgruwb4BNMp4J9I9sj8I+yuuJnwrxxjelJRLVeVlX03YRy8CvVjDFavcn1B7UqvX70NBk5PuV8/QQ2WsBdxPV075Y2nL5kbI/iPQcmB0MgjbL/EI8HycHMViRRBFjHcjPYg9jlAWTJI4gf088EhaytslXQvMsdPOOcZGLyoHQvSatBJsBGbYvhD0BYkFmFbEPmLQPg0+bDNXcAnocsTc9Ay9wO40AKciWoG92BuJmfa/Af8G8RFmtYPv/jXB34LWWj7aXegsh1S4GPgscVLtRPAU0FRDKwOQC5ve4L9ZJelAhG8gE++GTQR9uAe4X+bLiFE2q8EPdHd17s5kc7PCxlrTCI+VrKRdRBmPYKYZX9Td1fkBzc2w1f08XGhbne9js4ceVEmDBg1F1dXNk8nmphEE//y45R6jh7G/I2khsdyXDYIO2zyU+ORvEWdfpyVXjyuW20VxfUAcjEWLylGI8PuCBxOn/EeEVrIMG0rAWpsnJK8jTsH6EtbFqP8IiyOJseghlvZ00lVD2Ui4jv2g4tqJwOg8Y7O2u2tQvLpW7MlIo4kjKWZhfS5sNga5hO0l4Nd2YCnxDiBsVh4lWJflxBEcfcC3Yy/ASEKBdF48D9cWC/n3M9mO1vSR/6pYyH+D5mBnPRkuA1aTthsycYPrzdJ2zfDQQ5adyeYWEoe8jwFKxk8LLSVci1Y64jiHZRx807BSuMOo3CHbbN8qaTrRef1YNu34VwO/Aq61mSmx2fCAIiLSNQyO43FE8KIjwMwxBTtym2BcQhI70oc0mcDcE4gopweCiuMQcCz4Xo7HPf5v8CHQkYBTOow4y/ZFQhnEzCgaFNTbbsII/ywigmjyUqcX+AD8GGgDZr7h+gQfxqX8+8HLjQ4IL3NazRRxQxbHqsUTCk3nfvAim3WS8smSsc9wj8z3YoX0TKRZ3YX86xX99Ug6RayrWBjYuDaQU8bQtZiHRst9qSpNrfSlOr9rXWvET9cqt3xtgeP4sgPAZVh3Y9+G+MgRVLHX8B2ZT9h+SvYzRo+AR2JetZ0VWmZ4zTA5nV+yAXwj8u9gDhseNIyRfKvjPOydwBuGVwwTJPaA7xX8ps3DCvennxvdJ/sE8JfgzwrWGLc7ZrSIBQe/YfjNYiH/uWIhfz32IsO9xqts/wLzPwOLHKF7f2zxD8CXurs6lyL+HfC74Puxv0/YdMxyrFQBM5IYRtq+1OiH2K+B93Z35ReBf4NYXbYBk4zywg/ZLMa+Xmav8blGP8PcirkE+AvDBFC3pGU2dwq+4VCbPwmssGlRHOh5b1t7x+UD/eVXYqLRVE4eP/XGyVD3S7X+a0TbVRdana46/XBYkury6m0Oat5LhjYLbbZKjDU8pzL0MF2IpQQ3HJu66OQSsbTuJjpgfLq2GvOI5c1Cc1JZU4CvE7N3H4FflxOz2ibF9U2EsuJLwEKiY3swy4FnLV8n9BCDIcViYikfS9TxCSLQzESSOnsgqY+BtmBvQvoxcezbCSJCagtwtGyQlMl2jAZNtD1d6NOWz1OKQV2lajkC3G94trvffFSXYh5EzAdKhu8KHsK+F+mPUz/sBq61PU7SS+mZuggO/isEvGsBnieCN45GvIZ9fVLYlFJEqBOn6JrVdJ7hagpPpTHDzd+UpDC4Nwg9gRgD3g5abHuCpHsYbN97wPaDki7DXE2clFq0vVzSNkOL8H2gZUQstwcDvvhGWdchJtqsEayMWZvbiVgWI1MVh4W/S5x3coGkpYRBfg3lXb8cIfwc9xNUYQn0z8moaRuB+89GPlfo91J5kxyzUNkycC9ik+1uRUDyYwScKRHWg5favl7SpQw62JO1wD3FQn5X+V0Sca8fJmDR7vDi0QjkF0BTgBO2c4qYHu8R/o4fGLIKdf4qol3fN75esUEdUSwMmM3+S8hQtN3pMBmNcPNpSdr4PGr4ioLmWi5pM/AEYShPwn7HglLzccdMPVqwGel+YEOxkC+1ZTtmyKwCjUTcb/ssYLGCyy4hvQs8ZnsucA8Vm0BJmx1U1gfgW4mZfGLYPKnX+JjCK2UP9Ie43Yp5B7GpWOg32qEtou+fLbgA+/Og+XE6Fcclddl+C2kzEb5gJGauIStxgWGS7BGUT76KQX8Msctmh+CfDb8laSH25PSNnTB8R9KKdAhQ+Xzy+2yWCI8ALUa8angO+1JF2Q9Iehnzg1DpswXxBVvnAS8EtcgHkrJlO5EaUk/JNtwxchIyGApyNNpt1rs3rA1eE3UOypNciArAeQ5zxluxzyVm6pgx7XWSVoH7bD0iMTVmUZYAz0ZIrNwo8ANItxEfxG4iXO48gBikPAiMtSr8EWETuIApIh3Avg/p/qQdA/t90OOGDQo75VIK9jhN8gzQVMIHcXzkUQtmLGI2ZS+aGHHHbL4peDwZ/JSdF86yOUtiLNCSTpMdET2pFsLOejzo1wlN6Typ/3iN/cT+YrQGoFAPsALz3WJX/gQBD2YATxEf9fMRw0SPAH8QWbwE1Jk+zHkEjLqE2BC+QZgTbAS+UCzkjzYYE80wa83+DcSArjWTDpe2oyo9TaZrRLaflD+T7ZgRKldNNXw9KDT+EFiZBsFOm3skNtg8LPE1Qr39InB/sZDvSV7Ntyg2feuJdIuJGRybbSgxGuYR4z9S2COvBi+3tU2ixfZNkh4CJqUlfg1mOcGIjBSeZ3OR0HlJAzm6Gn0MHGJc1omEb19sdvU8oeGbCEzEnoI0CRhZna9cGnAI9IHxK0LvFgv5MA8Q8xW221dWVL8XvJeEtQkrvQeTG1lfcrD9E4tlgk2GLPgeof89tT0n9DrwFvgCrH2WLxKa5DIDZTZLXFZxDNxw5JTgaTXkaKS9qaykFu1WL30taUYbdFKatmzu32MmStwOdIG/bOvJsCH2d2KJ9Hij1zDzwXsl3UVwqyOA62yWSrQSVnStNt9CTJDpQTxIhNEdZ/EGEWBxv6RF2NuRJgJbsC80vCGxD1gDesb2DknzjG8HXUlVQPM0UJHoI7SV/RuY/gFdMUL7lX4Vth5EDOoeoCc+IkaDJruMjweP8G2CZRHRSGWbiksNT1BebcxRxTN/wvgOwkdyi8IMYH2y57jB8EKU5y8At4EesumV+BxxvssrKX7ffvD5RHyRt4lN9GbZlxS7+t2yGsGKRpNrM2OuVDlDl2W40/1QcrobyX7JZDsWEiaK2407BE+CTtjOEe7/85EKhO3z08SsdAx8A2YpwTs/jVlmvCzFcIPwCVxcLOQPtbXnZku8RdgqFLEeQSyNeBNqMf5LWQ8at0o6YZgMvknmxhSbAtu9ga+9WeiXwL5QrXuBzWXJx6/6/O9KOUpoEXch7zH8igiXe9DQI3yc8OougccYXS47i5gKmpA2xlGS3UcYOq0nlDObjJcrjq2D2ESuBT1G7BEymJLlF4XudfDseeAO7D2WLlFEH70PvAf0SUyf8TOSriOcJc4nlFrvERBoI+iydKzGxyrD1RRyGtcbpWsEZU4qL5PN/Tlh47wXuKpYyG/LZHPXgZ8iIhzlbNZIXAd+EDSdsIu4i8B3K8GTQIeA2x1uUxBKkzy4leCpNyoMcMak+fIwMXC3Au3gmxlkCKUN2E+Cvl/syh/LtOfGIK4Arg31tCoHcR+h4t6W2pacWxklPC5sLjQRnNy/BoOV9F4OpnewE/go+UJudxxjcQfwKcImu6JeHwd1EZrCOwhVOaADhssU9iFPgCcC+0E3GjYLfgqeAxy0dYlEOQzEV4uF/DfbIobgKqE7gP+jWMgvb8vmZgq/R9hsv1gs5G+t1Z815JTZsEYsx8cptXjrISXT3tFiMUrwS8NOoZuBQ5g/Aa9AWg2+22YW4jHB7OgrPQ+ssL1CSnHuQilzSXdX545MNjc2BZ65w/ZBgq++TAp7aMRGm5ckDtu+VtIVtlv73561S+Je8BpH3LmLZd+IuNzWKMnldPsIf8afCVqwPw2ch5hF4owH5KQj62teHTiUIlUBh2XWRtBG1gDjELcBOePJ5fxC2N4o1GJ5foI2h7AuQj5ERIK6VLGJzBH7jZ9LTCBcwq7Cugz5GVApQZCDwJO27wC+g7QybViftHmpuyv/dFX/V4+HejJU+posRz0FynA2gmcqf2WbYkMY4aZWgmeCvgj0ps3L14CHMPcSQRZXYt+S/PsOgBbZPga8oPIJVdIH4DvTrHSb7GWgicibQNuxrwluW08DD2MOIz9HLMcQ8ZY3gjca/Uh4Q4o7fStheTYeCdslSVuN18j8xGii5KtAF6Q4GhChAPaD99s6LHGUCO87CjTK9lmSZoLH4wrUXQ4JqorNoQc2munCYaMXZT8B2u8wIV2qoNuI8tyD2I45L94NBzGfNdor8Sj4a1glxM0EP/0jwrPniPFl3V2dH2ayHWdhfmLpUfCzmCdFv934+5g7i12dB6r7tEb/1yMJmoW8gzB0IyBeDxrUqvRUWZLqGbu8ERwpODfsB3jE+C2ZrcmD4jXgWJpvxoLecDpUXrAV+CLhsv8I4VR6ALxE6EXwFUaPCqYn3nYfwROXbZ7vAtYQx0W85qRJU0S3X14s5A+0ZXNnKeJJ30lZkRJ53wd+CKwHzwbdarhSAXd2EzYhPyOi6+/s7sr3RnAapiWN56cdfHafYa8iyCKCi4ArXaF9TNzwOkXwx32E2etnhBY4easr4M3LwHLb+5KZ7aOWJlbYfPQQdiYQEOaz4B5bfyLxMOHJflGaAt9J1N8RzGXFrvyHbe0dF0t6h9CGftP2U5JuSeXtAM7518LQ1XLGtHsNpG4dbe0dfxBhu/jNipCweaNLBZ8qFvKHM+0d1zAQbBwiNNUi4BHs20B9iG8T6uuxwLcIH8Jq6uuE0TcV8TYmOwySriHw7S7D3YrwA/MIY/mrgVbMfsTLpMM6JU1Jxk+3YCYiNmHeQH4X2FMsdJLiiEzAXoh0keECxQZzcIsGzD9PgNcBb9gckfii0ZUaHAFqt/Eqhf/iiTBr5VZJl6dnOG78daFHMK3GT8RGblA9ZVkLfIHYND4E+jOCxz4HPBn0VsLqh4kPbVt6v3+GfS1oNcEUlanCb1TEuxtKzhiGHhamrZG33Jjh5quLpzPZ3FRgbLGQ31JxbQrhmdxj+DOJ5bEzZ4TM6xb3CF7BXADsRNwKbAZuwaxEjD0p3oXdhbTEdi+wXNINBP47ADxieBq4FHNv2D0bS9vAK2QVLY8SasfcDF6AtNv4GcGrxULnvrZsx2Ss2cLTjD4pMR8zDZJSpB8Gm1iq+9sV77XsCBDtPWq7iFRQHHWRQ8wbcBjwEdB3kR8tFjp70jtcQsQhGWGzHbhZoWL/88SfM5A/2mH0jcTRtxCe9NcA+y1dLziI/TZoJnDQ+HxFFNZ3sOcbna/QVL4ncR5w3PAb3QOcdC2IW3OVpjH0GLTq12M5YPhfyHBZknoPUC/NoN9hoORVRjcpXKbGOA6WvAT5JdBs4S7D7UCL0CrDNfQrJfpjxn0IXgxsAT1A0FG9oFexfxB4m6uBB5xcrhShAx4ArQXOcxkXA9irFcEhdysimk4HfpuIUz0+jckSMdvtISDPRHCfwk3sDZstEseIc7jHENh/lu27kGaWlTBpS7iLsPHeCV5k1K70jpJ29EFMZ7ErX8q05842fgZptsLc9F7CDWu58Z/HK1aJsNsel7ag1xYLna9nsrmxjqCS04jjoxenMA8vARcroNRngZLxL0AtMp8FH7f0M8W7u6tYyH+vibExHKYMagzo/09JW3tuBPADyceI2HJnYd5LfPEio6kSL2NutTxT5g3Q9BgC/TPzAWAJ9suIjM1KSZNtXpW4n7BHvgZYbjNtYBCB0DZHDObJipm+ZLxbEaHorHSuyVjkltio0StpC+F3+COb9VJYnmWyHTNsvQNMhbIXtvsUYbWOGEfIL+mgzIJUzzHjjOIM8JHRKh+S9CiwIY7QUKZcv+KE3Du7uzr3ZLK50eBXbF2ROv97iHsddOMtydH3kGL1uRBz1Oic7q78jkx7x0LgR4RiCKQ3CRi2jDgtbBPweePZgp9g7UV8Jqnif257Y3dX5xeG0dX1Vu+6SKIe5GiaJqnzu9GmspkHqM5zUv2ZbG4CcDBpsz7C/tDS5cKTbNYgrgIul3kGaaQjVsaUNKBXp2V6NPa3CBpuj8TdoPcdceUeVcSCSy+pSnFtdian3BHUuG84Ibwl0YOxw5dasHuA/2qSxk86nKI6nSfp97FnGE1TbOhaqo91q1hZIMJ8pYPly5+r92IWS/SAHjeeVY5earxE1vcI1f2TceAPpMNAbwe/YHRxKn0dsbF9iAjUc47QMdsvSLphoF+8F7g9sTyPYr+OdLPxnwqtwH7X8MXA8V4F+vUUtalZ3UcjaHJSelUlrFdYM7xxvQY0k6/eA1Sn6f87k821Gt8n9G663+3YpW8Af0HwleShspuw3f1TA7K/HgwJf+BwKWoFfwOzIrktPWYiyr/gRBw/wdgyVLB5U+Jx4yNCPwPGpsG7DrSbCDvwb0AzFY4IoyrINob43eOIxLTPYSlYMu5NA3IGMMPQH9ujStVSUnnmjHvrgIdszk3q7RHp3mbBPeAPbf5M0nLH+9socyPwhsXcVPZfYv+jpWcExWQWOhn4JcGMvAjc4vQOZX2EeIbwsv82EcpsjvE93YXO72TacxOLXfn91B+Y9aQe1XfSuG2G5WhGTgV3nypWL8eLeMX2bkmPYboN4yU2GrIKmu4W8BqsRxHdBAPyV4TN73PYVyJWJ9y8G3MD4nGCDXgXeAPTY3hHohV7TTI7PUzAkA7FMRLrErQ5JHMT0mLb0ysYg+MEnXaAUMOPIs7+nszJUZJOlhi5RwkDoR8lOrKFiJv3u2m2HE2cIrtcocKu9B38wPADBQ05peLdP0sE4TkPeMb2qGQOe6vCuGh6SncZwaS8YvyQ0F8Af0y84z2YReA8aEq8T96z+Zbgc0AJ8VMCr3+qWMjvaaqDm5eTxuypsBynAh+alSHzZNo7Zhv9WPJjmHWO+BbjJTYBN2PyhoUSnY4N0U8JfrcTsQTTjZhhk5PoIqzXnpE1mzA2urNYyB/ItHfMNXoNPD7Rhs+GBkwPEd4lfRLfwCx3GLgvI4zeS+Btkt4Cvw/antTNrYm7nQAeZzMOmCLpt5LyJEEMSoJRyBMIL5TRVd1UEmw1fri7q7OrLdtxOVZ3qnexxFaspY6Qwv2iCNM7SWVfx5DD4Hsl7XZ4c08ENkq+O+H6icABiU8DGZsnwHdKvAn6O8N0zBrJd2JeMzpX8rcN47DmS3zK+DGsDsGHFud3FwYcejl5Na++Vm9c1BsnQx5eX65gOOzHsBmLJsrrz5PJ5u5L09ZGh/HLWOwPBIsJ96AZwF8ZlilgyMWCD7BvRHrb9gTgbtBFEhcDtzoOsv+qI+/nhUtG7xCRkxYrnFJXOXnBCNankGFjCUpvDvYxhYr9ZwQ19gmJaZgpDnXxOIhzvPuZsX7GZRD8KBERkXY5jjT+FYG3f9dwOTA9MWyHJP4tULL9DirHdAbBxqR8mXYyOKFEBJYcw8Cdl7FXIL1imK04QXaZ0Q8JiPMuuM3wMOhrgquIleeHhBXjXxPa2pcsrhBkiSj/a4AHjf9BsSotKxbyf8HgMdUMMzbUWOkfc/Vou+Fq+k5pcHLyVznkR5CM3BcCbxMBFN+0/ZTgBaTxtpdI+jqwCnwHZrfhEqHXkCeDNhAq7GQUz19hfwU0GrEE/CLwEWgNcLvxQqG3gDEO/LnM+ICsFYjLgR7+H97ePcqq8kz3/T01ajDqsDlsDptNsxmEECSGVkQ0iERBEO+XWmotFUXUqLU0ijeChjaGMGhC2zQiXuJ1lbcI3leJq1S84A0RiVEkqGgTQtjVhKZpug6bwalRuwajnvPH+62iKFcVFbt7zzGg5przm9+8vfP73svzPq+9hTDCxibOu3S5jvCyaAXvtLVdYkfgLbwH2Iv0v5PI/V9AX+wBhqFCIxADE9/dPtBqw1MKDPMFtj9tqK97LJOtrbCZLvH4NydcJ3nupG0HoGmpzZSSTx1pneFiwlicQgD7nxS8ilSFPQvpXuwC0qmYqcajgnLNYO6y+FCoEOFuLUG8SgRdBhPZLHtsfaeh/j8vYtid2+7bBko6Ht+TY8tNJ6WlXKDlbOAF21WCu4EvEfdheiHNBD8S3Bi6khjZzsIsJCq9tsjul4IPrYgiUd+6NzAXfCfWCsRw4AgiHWoZ4XJb5KAk2AV8ThTFXIsZIxjWQW422V4j6UsihLwtXXoA9fFAok53X5teCj1zN/AH0BqbDQ31+X0pEXiw7cmSqonRuYrQ4e8hQvBjiaKfY9vRonR6qR3J8yLtap9C595G6Me9iaTfE4ja42fE8+Nc8ByszYhlhBE4CdgE/gg0HJhp+8QAcZmEcam0vUforxB58NGgH5LsFsNfN9TXbeXAQawrRwLwDQ2hq6WCTn7orjwbXR7czQWU297TiyvrGclkcxXG02QejaiWZlr8QHCj7X2SckAx8B06mfBQXAqeJWmE8S6hkWmy/5gIfiwW6u8gp1kMfhJrAvhSSy3gZxQv/izQbOOLMJdLWmeTQ75Z4bZrA140XizUaJiCmSR5HGYE6pitkjza7e7wjkEeA2y1WQ36UmKLYavwJlAV9g2WblRAStMzEvtde0DgNt4EnWDch3Z5bj/P3wKngseDtgOTDI3YiyRuNBSjhBsvgE+3mSoxjBD6zaBjgcGYDy33VdCgTbHprxL9GLq4ISiGByUvyTxFnccBxcI3QEoHiw6WtpWToW8IfU8ihT1RJ7pTP/493hNoVzN8C+iO5Na6iSAYPJ/QIadKfELovYcR+t1tBN5iAEH5+qqhAnuu4GlL7yrSp140PCr0HDFqviJRMOQV/UwCLgdutv1ICD4PO9QeFNVg50gaRqT1Tzjgfs0OoBGxw3aTgsy8xQG8R6iKoCYYQzA3daAyOGDZCNQT+vJz7E/WbbJ9qaQZwJnpO9lB1JW51XC2Duxnb6DpmB14cRqxJ1rappiNLiJwME8D7ya74nhghqJERZEo7XYuUZOw3Lv9dbGQvwmguqb2eklzgEP+AnDSt5aZrlSOb+Oh6Hjctz2+7JLJ5o62/alglQObMY3gfgD0t4JCGEYMweyUNMv4DqBSqNr25YjrMaWReIXNoZJWAjNtZoOnS1qFecnyIlAb9jmS3gR+jF0N2mM5Ks2a7ZIewwy2fC6lKlbma6RXFITo64DdjlIRw4gQdn9cqtlNa1I3tkdgR63A2TZZyeMd5+nssN6DeRqpmch3rLT9ScxQLjihDYGvQRPDNcfNHY5H8IXNScBTkk7F/gKYlDJyvsJUShyFlcLY7JE00fZziMmy5hp+BV7cse8gmPRITJuk84qFfDHiBXwm82SxPv/3neSku6XcqF1u3wHLXzpCdxdF7MkI/RcZgokvYhr2DkRfWyXeCARNlufKfGLUQLjuNhPFbfKpj3OEL7I1T+IT7NlGTyKGCFYab8b6CXiGpK/Dt6v7ACQutfkYcR9wZgLstIK+UAhim81YItO8TfC84T7snYJxSMcShI8jKVWYLT10sV/laLcbwWY3Yr3wu1irwLuSN6JvcuEdi3ShoB/mE8TjmHmO/rcJZiEWO0pZQND+XuDI4J4OsF8FYWWKln5I0IetFJxlfB3WEok3CR375AQwWg7cYPsjoSHgatA7iA/DywMSj2FGGY9LEdDDG+rrdmaytRfaukfikGIhf0CBoTKy0FMHQcffZSOFPXHPHcx4+0tUloPeRKYm18fyy6mi0v2yxxFT9izM0xbjZF4G90Vaj5mBeBi8B5Q1XiBzJbALcQfWAoLV/kWLNqELHYU0TwJPVxTKbEO+HFSJuZ8woPaC5yOttJ0XHWqWiHWG1Yo8xuMI/HRpXxoV3YTZarQtGZV7HJ6BSqnEGMpwYgSv6HD8ZuAp48caQvckk60dBHoB+zhgj6XbFcGNUaDdiGsxcyjhs+XbQXcTlWATsN9toArkd0D3Y14AKpB/DZqN+YqoZZ4rFvKPZbK5RZifImZirwW9T+Q9/hC5D+Z3oN7hjeE87GVA34T1mGq7AmmOzMJEldCT5VupHd15OXq6dDU19MSoPKghmsnmKmzfr+CE2IN0RrGQX5PJ5qZgv4zUx5GpfCvy4w4K3GNAMyX/DNNq6QHZ1xM1rh8xHow5W2IrcJrNLKGrkfcYXYF9ito5KLQWcQkwFLtgkvFj77b0gOD/BS/qOAIjfQy8h/0haAswAHGY4XtEJaveBDFMC6gJ8U+CLTbbEQNlJiHOxg71QewzLJd1j+U1snoRJSR+Gt+FZqeM7ClETuWlRErYFJt9yUuyE/sjRC+ju2TXAn0tVmI2Ca5LKtwltisFTyJ2Y44y2inxO+zhSCcaJiiIft6TdIrxT2TuA3CQob8teAFRCbqqWMg/RvlBs6ey0WMV9mCBlW8b6evu4nviDqwAyNTUVhmWCK427EpsPKsy2drJNg1AH6GNxkWhGxG9bVfHnellYrT7DaIGu4+kv7N9aHjX4AAAIABJREFUdBTAZBf4YtC85IvdiHQVZo4jsRTkZzFXAZMFBSciRKHVxp8gXSgzuP2qxU7DTdivAdcJphpGSqqy98NWQSm4YpT0DacPQmKngyP6DcK4qxa6iJS8YLwamK+owXIcIk8UqJ8pOBHpXNu7EdVCV9n+saDJaKLEVOCXQW3ALJsVQv2M7yKM3KOT0foj7PtStPF1oWrk8VjvRxa6jhUUMJPBtxruFrxkdDawV+IH4IuwFhv2SBxTLOQ3l3nP3Q2EPRHob8hbTwIrnS+gJ6rEv8erQaYmB1HS4X7jkVEqmAuKhfzWTDY3HvwWwTJfSp0alsRkueF2wQeEkfa88XGh8zHL+HhBDYHnvQl8e4SD9TQwC/wMaHIStaUKLHWUiYsQ+T6hNcZDguymI/KN5cAM8HGGRULD2D9st4I2EqUqGjH/amiJ5Fn1IfzSw0gAJNopDtxqtFKBrTiEmDX6pX5Xxj3pa0XQ4nzQFUSWyYUETe8k2+cnQpxthrOiLaOBCwgukjfAbZgLkPLAQIKK4Aqi8H1vo2sbCvlHqrO5+4V/AlpqWCD4LOlUx6TzfUaoT48RibXzicqza4FJHco6Q8/lrOPv7tRhoGsduicC2dOo4V8UUUzZFQuBmtT+18BtxUK+pTpbO1boDSdQj/b3SQoY/Ah4yZHK9IrQAJvxgW/mO4ab4xjf5Rj1Biv6n00IzanpMt60XS10tWEJolIBsNnhEDxK53fwZMxKGd0LnFhQ03lWgRYBq4jE1ypCJ++VPqpm8N4SZ3IqTdcbNNb2aZIyhsPSfW4GP+ig+PqJYrbYR4SdF4NfJXT7avYD/TcDE1PI/GHBTvAcowfDv+4jQTcSKWevEdnubxkGEBHXJuBhgoP6SGCP4UvBQOyLkY4w/Fzh15+YfNtv266UuLxYqFtaXVM7F+mXwjOKhbqHunv3/xFLT1WOnurJ3XlADmY4kqmpHWd4m6gotZEgPnkvYZ4Ps/0uaEC4BuI4SUsTLddDRILm72xvj6lb0yT+zvZnBOs8Eq9ghhlGSTwNuhyct/lxupZNiEmY2wmqWBDNKUP6wDp/UjFCxdxgc2YC5xPZJlpAYCIux5zqGLl6Ucp7DD28Bdip8DGvN/xW0seGnQ3BiVdhOFr4GmAapsoBdroPkcWcGhneXoM10/glUC/JJ4EWpZIcqyWdBpxv8yh4j6Si7R8Dd0m6DfjQ9tGSJgI7bb8EjEA6SrDQdkZiJegM7MuI0tNNkk40fgMzSHBbsb7uHzLZ3M9tz1fQH5yYglC/BQ9G+k5DeDl6onZ2J1Mdjz1AxjqP0N119I2De3AR3enQdG5Tnc39jeDaZGTVFevrWoG2TE3tMKQPKNEQlI411yIuIEBDlwPNtleBfiaxwPjZCMLocwKs0xgeCaYRiLWJQlcTpRkAN2OdB9yWVB4IlWYgHYjECQFcYHOMop5fichlH/YTiRMjh6ihZ7Nd52UrZj2R8/dVOt9u27dKupoAP/1G4itgLvGRbAHPBT1u87XEGUADMMamrqE+f011NnedIl2r0Xir0ARiZG0jsN1vEirLAOADmy0SVwG/Iz7Ia8F1oA+A8TYrEQ2KUHyL4RiZTYHpYGx6dj8Ej8BkQbcV69vB/fAfO8u369DllO+e6jY9WXp8TNKd6Vh5NFOTG4h4H6cSamrv8ybsVtDDgcngTCLK9g5hzGy0OZYwoG4G2gzzBHOJAkDHELiOd4HKZKvdTejMwwgVYznmbBIdgGGDzB2OUe5B9kfrWoClhkcxlwquDgufjuCK3QQWe4Nhr+xKpL5EBvXhhKpyGOUowqKPnTaPSS4QmOcTgMb4+DWTwJ9sJVSH64BnCVXqIwITci3wiEJPvtLmTeGhwV/CUcaPyroIPLFYX7cmk82NAX5rnA11SysSSu9I4wFCvwUq4iNjBmgYkYh8PGY04qP0Pn4DXNGpmuzBlv/0SGF3U0R3FmhXx7QvmWxuhO3bJV3VyWioqM7m+mK/JWlsuKdKJCqeBbyD+cBoDfhQoWEl2TG0SvwIaLT9J6E+hqfBg4UmI+Ya7pX51DA8PYQvEIMwA5DXgO7B3J9eXjPybJs60BzB3xhXILUK6sCLbE1QZLsM7PhgjXclbHYD5jjQSYKRxv2ANqFdxptBGwRfpY+lL/YhSMdhn2DUq72/UJmykm+2NT88bdxl+/QUPl8n6OXwOV+eYKjvAijIFTdif+7wM8+UtdD4bkmPY35v/LGkE4uF/L5MTS7gpOIognL3FuBNxBnYeQftV7Pku239PD372yX+HrgHcz3QRhThXNWNbPTEy9F5vaxsdf4KKjqtl9vf+V+59j06rrqm9jDDS5IeTF9w+/5MNtdL5rlEbLh/Eb/CWmqrgNQosV7SfrSbQGIpsN34fKLc2x7wCqTJBIj/TsFC8PB0zG5giPEAw1LQecB85AHANsREozpJj4N/jqiIsLmPIFiXlkg8hRgoJfVYbLF4R9I7WBcJPpS0SOJ05GGS+imqYx0q6UyJvwE/KalAUP0CnIb0A+EnSPcGnC0xoViou1PiLKLQ0N8INkj+AnG0RTNin8QS8DbETAXj6jLCFz9bEoKpiN8ANycowVJJEwjidgxPJSz4dNtzLD5GPpVgIJ2D2CPcO9x7/jo9+7mECjgHeTuiAnNHNzLVUUbgQCHtqDV0FaU+QN7+PV6OjstfrKZkamqPRrwFXFMs1L14wL7APD8OTHeEm/co9LoHiGn0DWAI9uVIK4hpOp3DzQQ5YQuwzvgERU3Cc4hp/QoHgi1lL6tZAckcCqwm2IGeIVSPLcBJBAz1BcIL0pJ02QewRyd/d0n1aEv66F6i8H3Ffgg/pMfdROiWuxJLaR8ii2UIqFNxef8t1tuGypQ0+zjhjnysWMjnMjW5QYjRBKFkL+AVAq45mCBmH0/kXJ5DlMCbZrxc6ALgQ/A4w8VCjwMbwZeAfk94T04MXAr/AuwA/wA01PhTBdXBkcBFhEcKogZMqUrtJuxjQccR6W8VwMRiIb+mC3noauTtqVu4vX3nEbarTjof2Hm9u2mg/D6pr80lSZjbtyf8xgJgOmav0HLhAdj1hK/4UYKZ/iykiwljbX2Hc2wAKo2bgDFC27E3J3faJvCLyTCqALUJ1oGHYvaCL0dcBz4X2GH7NOO9RGbMqcA2zIkN9XUPAKdbej90YLbb3hr3oUpCnSjd917QclDO9kmYmQSdQatEb4LRdBnoNMxR4NuITHGAWyz6KoSihXBL7gJPy2Rz4xBfAo+C3gtF22eDPg7MCUNBK22fCVzv8BhtETrX5jKCLB6hicBj6UM4G/wQYWS+hOgHXgcMA11WLOS3yMwgfOH3YR4w3pJe6FgiEAT2oUj3I163fVdySV1VRh7KyUh327prWxH3s39DuRG6rHutTGf/EdtLYe7rJd0D7LRZICVDyj4FuF3ST4lRczPwR6DJZouCxfNNzAjDcIkngB8TJI4XE6Umrk2nepAABT2rgKBWJuNmJeijuEafAvoiAXPG2XwhXG2pUXAh5kmi+NAjhuMUQKV2dyLinTTF7wadyP7a4N0NGGuIcg8bMU8hTrc9G+mHinJ1kwwnKPTTTeDeBKv/Vvb7x1ttlktcaFiKPUzSOOyz4nr1FoElOQr0TPIpTwK+SsSPExXekSHAOtsrJf2MwIUfTviknyI8RRcnA7uQDNe9QJ8OhvAVwNOGJ4WHFAt1EzvIQGnpKrLclbOiWy/bwVSLrvTkzjp0d9s77+9qewV2jaQlBOxyqsRsYBf2eZLOjgfrGUT9jkXESPKmxISkS76BGC6x0jGi7URsI4R5J4E+mwtg/JjCU1AJbJb0COhJYsSfA9rgyJYeZ1gn+aRifV2jonTFMgIHcrEhI5IwR7/14DOAj0ELsF4iqs4m/gz2EQK4FvuddC+N6XkcB3oXuBWRBd5DuiKuhyqgoPBefIE4lP21U4Z1eEe90si/VjAteWM2I70E7DN+FugHWiJ7ITAcqQrpbiKJd1F6xhCh8NGE8AwxzE+G+wxMI3APYrXtlen+g8t6v6vhPuyhgkvSR92VXVbu78H2l5XBrrwcHQ/s7svpbunpCF0BtFVncyfIfhX0GJFS9Wpyxk8i8u8+Ay1FzLD9C8E8hzBUSToac7vxKcChQpOS2+ihlMI0wfAPgn/DXoi0LkgVI5gSmS0aInGHzVqJ0wwvCyZjf2F0kvAu0HXG90haYzxb5hna9WdtR9xu+4cKdvyq9gCQtBFcNHpLkaLVT9DbqDkBpFowgy3Ox55J1CBfCrod+1Okm4BjsW80PC3pKewVcdr0X+QephlCrYYZEvcnvusLJK0guK5vwH4mHXsOUaP7RUuLhL/EDLF0k+AIcC1Wq/F6SePAbbaqG+rzr1dnayfLesuwVGJhus6qeJ5uk6gAYfsdSad18GB1FZQrJx9djsRd7e9K5TjYgV25Wbpy9XX7EWSyub5ETY75No2SV4BG2Fws8aLxGwof6FSbxRLXYa01Xi3pFuMNsq5BfGB8EmaYxKOYSxDPEUbM4YEBYQjorMBt0Be0ORmCvwf3sVN2hpgObMOaiGi0/VOJhbZei5nDDaDhANhvAgXEPBIlraFF5unwk/trmwuJssTj2c+SCsFG9J7gfiKZoC+h40+3/Q8EEu9WrEnIvyeSdU8TmkVUBejwJN1GpFUNAW/HFAlCnVckPQV+zuYBiZ+AKgjmpXyoOfwA62zEU0TRzxPBLwFDbB6RyKR7222YpEgSuEfieqxTgEmIX4RzlSZFeL8P4W+dWqxvN/zLGXzdBVLK/abTvv1Ps0PnXXk5utvecSknwJ1/H9TvmMnmCtjnWtwtaxZiDGFQzEztGwwrBO8ZfyirCjGJ/UbHVUSWxXZQK/b5SVAetP2SxCpbt4E/jMFNNwGHYG5Efh70IfY9lpqxJwbHG/Mxf2N4QPJCrDeMRyp0zjsV+Ys/V1BstUo8ArqDUHuux74J6I+0E7zaqBHcJ+Gqx9hUCEOA6q8x2iacx7oMcR72gwTZ+3/F+gXyeoLI/SOFYHZ4o1puB4WtxFKivuLISCDmAtujCc9LnwT5uzVhpu8F5oFXYJ2KeI/4sJ4x3CZYjf2GoZ+k3USa1uuYz5D32fxI6APEYYma93mCy6NK8iZbhzfU5zvLTLlBspw20NXyDRnsiXuuO92msx5zsIs4eFszF2mWzGzCd7qesNDbCNTbEMFDRB5gb8QjDrfdRbYXYE92WNxvAeem9Iw8cDESNg8iBiOREmFfN1yZpu4VwMIUvslJ2gQ8ibkZcQ1RBP4NxEhFsaIr0ojwC0QFUXDySMJNOB34g2Ee0lajLHC4rVsJhvvZwDHA94XvtLQXdCroU+ETsGYgtgALkZ52jNKPWuyJAIoHgZ4P/7RwcoA79PktKSvlIosloF3YLYZFkvpI9EltQcwkEl1vwR5qc43DLz85eWv+K3B3sZD/xHBWEuZ+RD7h/XG8Rgiuc1Qn25fGyRMIyt7doKE6kMe6nAx1loeeyuYBfXTuoJxK0NlV19W/rtp37qtzeyDC3tU1uSsRQ4qF/F2G4cZ/Ap1QLOTBnuvwSOxLmOWjHbzE94CfBOob6us2B12Xd4P+ysHnthNYmRBneyW9lvRDBO9hnUrUEFxvc4WhKjI3WAd8gD2F4Jb4AukD45GG7ZZPEzrccIuhJTAjnBNAJH8FLDTeK3Mn9nuS5xr+CfFHiX8E/gX8qe2zkeYKH2FYbeif2KDGEoz7IwmY7EDwC8DTxthcG9gNSkxEpUyQISQeO0dO5UTjI4x2KZ5D4wFecRjsqGJVhXSHpEbsm9Lxd9j0bkj6b0N93VoiF7Ep7Z+OfS32E47ajjuAm4iaMoMww22OAH5YrD+AF7qzPt2Vntzd/rJy2J1qUE7wyo3Ipe3lBLkrFeUbfTjcbg9ij66uyVWA7ifSfNZV19SejfRz4qXdb/EzELJngRYnvHM+U1M70nA66E1HCQgES41HYfcBryXcTpMTeu59i/MUF7BH4gTBOqG3DL8lUrvOcOTWvQ8MFloj8yNQteVbFB/MScb7gD8g7pFpIzAlu4xvMfzUMYptJNiEVsd1aIyke2x/hjVQ+BRFeYk+Dh3/PVCTo2LADqOxwr+LcChTFKXdngCQ/TUln7AZCoE8s32hpDsUbPo3A698wxMgTsesJQIlYyUtlf260EDE7dU1uYGZmtpRqe0GxwyZJjWdjngJq8kRP3gI6+9T2xskdhUL+Y18u1G4J7P9Af121m27+1K6GpG7Or7cl1i2v+qa3FDhZcJrkO6SGAeeIrMgsBU8Hhkf3ICdE64M8kQGyz4Tu9V4A+Ja7ArBJsGoZKAsU+T6ofCK9AcfR4xyq7DHp75HgZsxc8HLsPvabMJ+A/zzMLj4FXAKwR99i4KAcVJDIb8GtBM8Hzw7zQpTBKMkPSt0huC/275AsNCBPPsr22tSqsqhxu+CpoAvxd6jABTNBK+SPQHYpPCaHKKoF94LMdlR3asZGGZ0RwqwgF0R2TH0sj0NG9uzZX8Z5yz9A8EwxPbUZm5s1AzbzcLXSf4J8GkmWzvN9s2yf44dTzeuf6LENcBFCftxO/YTBLVxCWPeWXb+M353+QV05Wfuql1Xbbob0QGorqkdGKFbKkCXFAv51hBadiMVkZ9UEBvOs+kNjMW0AI/bzE/T53ahZptpCj9vlW2ITOgN4KOimX5vewqmkkjN30U73a37g2aTyhgDKCqvDkxUBsdgL3EkgN4Y5OaaWCzkv05tPyHCxQsV/Bp1WH9tuMq4H/b7gj9gvyv8B8xY4Lkw0ISgt+3nQP2JssgQJSS+IAI/A5ILcLLxK2n0Pb6hkG+U9ADQT2aDrMaYmUSpmpygF4Hd6OMIjuwKedZ+uTbDgcYUwBleLOS3SCzAVBHRwUrMw4L/1n7N7VW5GE+g957FXpBOei1oveRs53fehWx0KyedtpW0iS516K4E72AqR1fWaHdt2v9msrW9JX2EGIHIFgv57ZlsbQbpMqSnMddhTUCqJ1WfQgJxt9BsSVXB1qNNwBRJA4CvCc4NEGuDXFsjEvh+s6Tj4+VqE1ENluhTbwIPOfTvFsRGpF9LOobACI+S9Huhc8FPGx8fKWG1VZma2p/bfA46H1hNHDMX+TaZfxZ6BmksUkU6V1/EQgXPXriR0cqE67gU0YBEyggfkNZHJgP3aMFvS9uCkZ+3kPYgpljcl54RHdFacR4h6UykJe1taG93NNLHASf1VQBGd4M2Iw1MbSIyKXZH/3xMGLNHI/qBZkkaZxhbLNS1Gq7FmpCwOZ3lopx8lZWTLo7tuLSP1J115s4nKifg5XzN3S1l26QqUCcT1UePwWzK1OTuJ4gRm4BXEXMsbyU8DnMUxONbQf9fGkk3AvsQmzCl5Ng1ydUH6PfpYQ6KXdpGiYhF3kXooABNxmcVC/k2BVH3fxE6wpETdwLwFWhZTLKeCrpUaG8mWzsF9BnSAkUK/zUEL/JhwJegWou+HVzFG8Er0/pxQAX7Ze3xtP1M2x0SSlVKatiX/lY5sNVt6b7mECXd1gJngJ9w2AkA7yCXjMbSexvqgLwGXkQ8n85fOkcz6MpMtrZPyi6Zvf9S4voIonOAkorSB6gtFvK7gDlyHCPzsSNw1H///Rxgq/VEfsq163K0725ELqevdG7XlW7dnSckrWsu5iXC8u5HoLym2dRhTrQ9L/mVLgX6Yq7EBvsO7Fuxm7GfS+rDp8YTQqXzHzCD0voWYqrsg73XdotD/8ZhODURWSZ9Qf0TMGqA7YuAF2T/T9uL4/qYI3S4gmtiuO0XsN7AjCQyPY4iyGYexV6G6QdeIzjL9p1JP22LoA6rsCtQELQkVfSLdH/DgA4qrvsnPXVtaZuC1ak53XsbptJ4D/Z4oRbZyyOe4Q2Y16JfWjDNycaowlqQVOgXsNtSm5OBpzEDbUplJ17DbMdust2C3R/4FNOKfajQI9ibsGdmanK9gceMh1ZncyOL9fk22Vfg9g+wK/novK2cjPVIrsrpIf+H/nkU8hWGgcIN4KWGQxrq89cin5xw0HPD4GIWohfiHYnvxpStOy0OT6PGeqHhaX1bagtK6K/Y3kIk0m5I+uRI2ycAFUiV4DeAr7D/LGmZw4f9scRVMocUC/m/A/rYXgJ8LlFD4I5nAGc5jM1PFerSHkQONMl2b4kb03S/qljI78N+POUUHhXX5j2CbWmYrJQ0kJK2EIQtAG9B8OHFPWl3MlT/LbXrhdhtGE9gsyEoxxqTetEb2Jn6GmX4jeVdQAtSW2ozwPbnQIvErZlsrrJYn29FPI/oF38F8H3kZ5H6IQ5Dug1pEGJasZDfh5grvDCTra0o1tdtK0ZA5dvICV2sd9mupGBT5i9d/P622zstuoDIxFgIOqVYX3dbQ32+KRUDmge8Z/nOVLXpMvA+W3OA2jRd3h8GjLcFhVZKYBU72iNn1j6bNnArUqukfaAlBGipQuJBAgu9V6g/sN3wAPhi4H8UC/kTbS1FjM5kc4+C/yhxI1BlsxI4sljIP+RIZH0XNBz4AvsYYlqeoyBW7EWgA+cDbUjfS0PtqLhM1hn6pG2tLo3Ssa8qPDIOCgQA0xTCrZ3QDjU9FPhYMBG0CtgpaZDUjtUG8SyATWNDfb4Zs5BQVQhVyEg6lgD9jyDVmgEeB1UIVTgAVScT2extBPl5EXut8axMNleh4NbuTxA6dpaJnshHD2Xom0tXbrueqBAH205XbapraiuJGtpZ8KRiIb++wzE/xqq0fVVDoW4fkMHqa/M0cn+sgaA6mzFYfbHWIvqkOthtMtvbrXdcIdGGtQvTVizk24qF/A6g2mZn0k8H2nxiOw8UgD/ZHI49t7om1yD4J+ADzI9BVQ6sxBVCU21Pqa7JNci8j9UX2GL7pGJ93SablzG/xFSA3gNOLBbyO6qjaOiNmH1E4U1kGsCHxXVrB3BEu3ph2kBI2mKziwikbMXqRQSWtiWPxWDMBptxxUK+xWalzRCb7fEoaLF5ENOSPoy2hvq6O5Pe+xub22zWY04HFmOabW7LZGt7OTwtazHnEwWIhmPvJtCL00J90jxZh9qcXCzk24wWYRZnsrlScnFPVIfuVI4e/etO2e5qvbulswX7jS+tOpvri1TAjLGcNfSpzuYers7mJmSytVXADsTxiRQbxwjQIpgrdErEQ3gOMdExLX+a/NBxTtGEaElT84BiId+G2Gy1Z8JUFAv5TyQdC16eSBMnJzKW+0BLJP1C0nWIM40HgknG6a3CR2LvMHyOlJc406LF4l7w8Q31dbuACsEXljcirgKfEh6c3BBBQ0zfarY0iJjynybglVisJ/IeCRVCvQljbRNoAPgL5FaHgdykQPmBqCIikaMz2VxlysgZKnQr8IrFDsF2ix3Y7bXC0/PINdTXrRMUHGlhQwz3SowETWuI9LgHY7bQycA8o+ngxYahROnlNxFriSL3CF4hiCwv7CAb5VQFOu3viWyVUzcOWOlKsMse1IPOy110RaamdoDgXcEwi6lCA4Q+EowMP67m2D4WIJPNPQMgOBrxSLG+rpHw7+5G/lr7CVi2KGjC2oDKNFLH1CyVCspviNAxSzLZXEMmm1sGnAu6FXGk4FcxlXorookIjHwteAWYa+t4BdH3LtD/RFqBPFhhVN4g/D3Bq+EdyJ1cXVNLsT5/a0Oh7ohiIf+YTVumpvZ0IgN7VPRDZbr+pSmRtibpwpsjsATAVuTBREZOH8RQ0BYHbrmXohzGTkLgK0LAGURw6a1V1IDpBywSrCzW59sU2OhhHd9PJpurzGRrhwDFdE1nSFqQnmMpKaJeUZk2BzwhMdWwCfOxgw8FzCUQfugEF32WSP/qSlDLykkX8tR5vWP79n3lTtSd5+NgnXd50dXZXCWhT46yuUQRKn6ZqAGdLUZ1pP8VAH/fQeicFbZPIxh9AIYqFX9nf+myJqQ9lNKWghRxdaxySiZbWwFuc+ixN4LPBC4CLzH8o+BB8L8qUHdHyf4O9vcMxwILEP9FkWP4J+B+74d+7sJMxGwAvW/zBhH6XSFpBECmprYyk629TNKnSK8SsM41hN7bG2jGLFCUxRiRjLwq9pOeN4fKwiqbcYrt24X6pTb/Gn5gWiEyyNPzHpF88y2IQ5UqFgAYf6xElVCdzQ1LKkGNzecEU9I24ORiId+MOQ0zO5OtpVjINzvsgiHgKdivCc0VflDhgjy9WJ/fKrQ1k82dnVigHiUYqf7S5T9Mh+5q/du66fb/M+ONp6Sp7Aub2cajgcsbQo+jWMj/PaYZONnBadwmtBXcDIDZSfie22zvSWpGn9DZvDZAOz4J+4XY5xLXxVsRBnfJXGyNv64wPg64x/hzwz9b/Nniz+B/AX+E+Rmwy+YG48aknO8Tutx4quW3waNRqXe3ALuqg/Vomc2TxmPAzYZZNpvBoyNszHyLbcbz0pUVjSenK90Hbkuq07vASbRff1KDYHexkMe4xbjNclMyIAdFQMlbbIbZ1Bh/WJ2tHSCY73AzAl6R/Mh7CB7qy2y/Y3xYJpvrb3G65bdsfgogeNQxOFzloPm9kiDL3GN8Ryabq8Qebdxge3qxULexWMi3+6x7IEvlZKo7mTyoDt35oNJSbkroyfb2vxJrhLKKNB6ELpT1fLGQ/7jDOSsQTUaXNkSRxgrEu6Azq2tyw4iR8proT+sTUeJwAKGCLIQuk7RaaANWJWixrbVYv5KFrJ3A92XdK7QTqwW0R2hHTKnaK7MPtNNWPVIWWCzIyxoZ5/Rc4AahXwqB1ZbOjc3dxUJ+t+AnQuenIPE2AhT/XaHLUuh4FeIuwY2yxshqsXk1rSO0BmtsMnAbJU7FCvccGhLbvQNAVoWslvANixRxrADtkPiexBFCVcChjhIV+fTMNgjVAutlNQPViHcVBudgwf8jq0JobnW2tjewUdY6odMlNQl9grhN6DVZo8HTkTbJalbUcyx50TrP8h3l5WC/u5LIBQVzAAAgAElEQVTFsi68zvU8On8J5S6ou/WuvCak+s71pd/Gl0va3LmPVIfj+dJv2/0kDVJgKX5p2ESwAz1j+2pJJVVjObjR1jAFS+cMw9uyT1XkCl6L+N/pWhqBmzLZ3KwDr1lttvulafpow49k3xPeEGPYIesV4BrwUEubZSqh5GbT05LmVdfkBmDmBZhCm4HTsGaDr0445E2CqcbjFHVjUKhVJyb/MQTSsCpVMbwCe1RyqLcBI0Lf1o5MTa4K0SeyzkMJt11qt8dhAPZNH3+zwv99ZnUkJH8k6XzwGMM7MqdLOgfx1wSlV2/BLxF9FFwbq4HnwGNt1QBPSX4Y8+sUa59jeykwM/HpdSVP5Zbu3MWdj+uyn84CXWrYWZC767C7r6h9eyIePFRRcH53Q33d2jLX07lfIjeN3oj/BSA0JHkr9gLfwYzIZGtvAd8Luk3yMtB8mzPAVwCPI6YZT5bZAjRXZ3OnE+D1EeDvgQaCBwCDJQ0EV0WQ0mDtRawD2hRJpleGP5YXBQMRJ4DawHcSQtkmvIDAYWzFPgOYi2JkdnCCnGZrqMTLQC/wUtCLkeFukLYYDw38CS2Sp5eiQ8ZfyRxL1C7cHoYilZK2J1cloBIhYisRlh6WPoBG26MlBqZKWp+kTicBbyOdTSQUv2OcwbyC9A4wBesk5KeABXEtnirpAiKr5ej03oYhZRoK+UeARzrJQceRta2Lv5Rp31kOO+8/4PfBjLrOHXSeBrr74jr331/4c2BhJpvrX12TO7NDm+5chC3A/7DdmF7YkcAQ23+UdGWkD7GQYAp9lqjeVCXRINSEdDywRkE2OIGoLLtC6BlgvqQrwWdijQS1YdYY3S44BXMe8m+AoZixoPEKYblBuAJzAngncE6xUDc7LHvXIq7E7Ax8iRYQmeI4APCngYZLvE1gHF5TFPyZQZDFgP2xrNFEddpjCH5sCDfds0jjk096t80YIna+1VAVPmua4r24j6Re6ePaS5CRV6fRtD/oCwDEKEkh3HhEzBy8pBDwO1ICbgWhtlwAbJU4DlwJWmkYg9gacaFu+Tc6y01n1fRgslQS7nIDLEBbZafGnTvofGEdBbvziQ72cewm9KpVhsnIz2Syue8kx34bBPoONM64UfAkaBn2puQnXpam4lMxs0LX9hKheWnKnk9QB+Qw/RGnE5VM78achRiOdGbKyh4C3uEA8/8JtBp5L6gfYmRE27gPaWQyIpHUjHkeWIi4zaJGsJoIsOzOZHOXES6tCcAeB4P+TbYvTJpAk+wzkPoCDQQP9Cqi/NoYS6USGNskD0rrdQ5O58lJZXgA3B8YIfFmMSh3jzdC8rvYvVL62M54HxqA2S1xOVE67lCjc9NYPwSpkci9HApsjueoKuw1lrYoigSdgdiu8Mo8a3Gd7NcsDUmu0BcQZxIVDYYDkzPZXL9iIV8CfnUlSz3xsHV3TDlvXEVXX0ZXVmdXbcrtb9+WyeaqbLcVC/m/LRby74X/lL2djmnDqjCeJTjZ1nGYaktP2YwD9hrvshmBPE6oDqsKcxXmNzZVNq86EmyzwCM2FbZ/avgj1iLj/64oLXEe1jky84BDbH5v68+Yr2xesvmpwze+A/tFBWHKd5FvcqQlXSazHHOW7bNB/2jzpM0Eh5cmK3usTW0otWFwWWyzeQHTG/MJcA54uM0KTN80wr1p64RQg3kO+3ysXjathoexLnEYimsz2RyYkyMUzvIQRsDsyGRz2IwwrioW8p8UC3UrbR+NqQgcktqSXbPFdj/Ch70B+KKhvm6f7OU2E5D6Yd7EjDT8FqsSaQnmECKC+Aqm1VGPsc6mKiXmlguslZOXcrJ2sPbl9lXQYYQutxxsGuhuRG4fyTPZXG/DP0v6OpPNLSYMvlUS3ysVYsxkc9OAVeDtMvchDU1wxn6C15DXEx6GNw3TjOYBWcnTUmrTDvDfGf0MtEyR/rQQvEKwCDHCMAU0JWHS9yFWYT2Z2uUjmKF+4R/XdqJGeGNDfV1bJluLzamS7kEcKrse8bDhfawx7YacaFYUbt/jKNAJEeXMAmuFnnHos5sN1Q2F/O5MNrcI0S8FNNZjhiMqBNuMPwHdk57FcvAeo6sjWVtvCEYiRmLWgA616I1ptrxXZhSov6TWTLZ2NLAYtCxlZG/EXpveUSPSiCTcR7W/76AZ/qmCG+UjByR0T8oa6Kfg4PhxsZB/IlNTW+K1+5HEEKORxDv4hjx0+t2VDt1ZxsqpJ92O0F253w7WQcf1cjoNQLPgUkNr5Mn5VWBQsVDXcUoaSIRIKy09DFQ4Ai7jgMmg1xFzrFQWGSYLptucp8AGTwBNEZyhoJ6aYHgjBFCvgR+JAEgsiiTSKRZPGv4s6X7QKcB3Qf2xxyAyEtdnsrl7QF9KWuGg3q1DanYQRo5J1wPydiKBdD34OUWApBW4uFjIvwlMM1yI2IU5o6FQt7M6m6uM+wPH83vNYrJiw0KhUchj0/7FoHmIQeCtKVhyKQG0GkZQDVQg9gq1IJ2Zrq3R1ghQH9tbkpflmWJ9Xel97Si9u0w21y+VBKnAvCZzBtYGAsHYWxxQU2YLMDOTzfVGehkx2qYfcIHsZ+l+OZhwdtW+u/0HGIXdOqv55vBebr1sPwkQtFwwKXRKTrb9u+ps7fAO7bbYvsFQIXMxQWM1VaY5Up78NvZx4EGClQps8SKC5Psk21uxx2Oes/07zOGKcGyT7RttXQ0eiP01dmukZ5X+0df22bavtv2LhH9eaLMkpVxdbxiBvQpcb/t8m+kxtbsEIKoXHBMBI79gaximVfjihkJ+eSZbOwz7PqIERbZYn99cnc2djL0CM0LRzyOhXhjgPcQj4GsiUuh67EGYG9P+RzG9bF9mmI+9x3aTzQbBvBRoOiny/vidRD1wvKS1wPOKiF+8K/vfCGaqNuAiBx9fG2K08ehifb7N9lCZraBPDOtAa4uF/D7bO22fa/t12xXIZxcL+b3FwLN0JTddyVVXstWVWlu2n66c2t3tO9j6Af+qs7kx1dnaAjCoWMjfK3GxpDbRzvtcgb0Saa+sUcX6/FrjBwk62BnAIMMQpDUKAvKnCN6IXgQ3xHhJxxgeQ/STtAT5fcz/Dc5K+qHEvQQv8kigl9IcnrKvtkvcLvSApOclvQ56R2It0uvALOAhxAhiFum3P6NJq4VPIcpitAKvSpoguQUxtVioW57J1vYBniNwFTPAqzPZ3NXCKyROJtSH9Qps9aGSNhKceROAKwmei1kErLNCogX0EOJCxUi6UtJIBYZ5j+G7mWyun9A4iX2YRuMvwdOBVsWM0Uhpqg+ejVLIfL2CM7ACmKAoA1ch9B7yxcVCfofgR8n+AelrpEkKX/smoVyZdKuuZKSz/HQnWx33t3Xaf8Ao31GHLqfHdOVe6bzecTmgH9nbCMK/32ayuZW2X5D4HtCWyeZqgSrwWuEji/VRDUpoIMGGPxepTXAS5tak1z0ObE16ZyVwP3ASgcW4B7hN6FzEL0G/JHytrwOXKJJEfwiMR5oCbMCeAdpm3Cy0D6iSPDzphKchLYzzpMlW7AHqQQ8WC/lPIpWMDOg+ghOjCStbrM+vytTkehteUHBsPCTxBPiEuGaVnlGTgsDmUQKLcSKmKvAj6gX+je1GoVPTBdzlcOfdjlSnlF6G9DkR0cwQKVl9QWslBoFGgoeCa4j7L2FjKohgSwSn7N1Io1Pmzl+BhmaytZXFQn5Th/Y1iNOAq7DvFxpWrM+Tqam91dCvYT9xfeelnGz1ZOnJce3byhmF3XVwMOX9G0uxvq6puib3I0VxnbmSLgNW274iMY32SUGD1zPZXK5YyG8nIlKXIf1e+HXQ9AgkcLvwtaDhqfudhP5dIzjVcJdghu2Zks43Pk/WeMTYFKRolbQF2Ky4l9GWPhCQhDndi/Z/kPGnGVgZGBEVG+rzezPZXJC2B+XXyan51zbZhvr819U1uSGI5zDjER8DM0OotKzDc28BX4W0kJhxZtg0SbyR7mu3pNlh0DKWKA83T9L1BElkHthneF5mOfhWpPtsRofh6BcI1iJs6kE1Untx+/YlpapBAPLnExHdNoL0pqo6mxsjeNjwQ6cwfCabq8A0WQFFLdbXvdahy564cbtbvvWx6vS785DenaO7XJuujikVop9CRJZGYp/iwBrkweNTBfedwMWEofIZptJBgNiKfa1gMNI/ABnMKORLCOTZbOyhKT2oyfCYYuRuJEbloxUG5pG2R0oabtM3RSH3EcQpLYQh1y+lTbWFt8MfWFrZEH7VtsRhPR40S+Jc9j/8Zwmo5Z4YCfVgij5uAk0CemG/TULiEbzKlxguEMHlLLjccLPsxcl4m4l9L4HgG0dUlKoAfWZ7OdJ2wZWGqwSvYA9I9/+UpIuA7wPjMKcV6/OXZ7K5l4kAy6WYKy0eUwR99hUL+aXV2dxkBRDqcAJBlwe+B54SMwj/DeiP+YPhO8j9FLPB94uFutYeyENnz0bH7fwF+/7/6s49Sqr62vOfb69eDIthMQyXy3AJwyBBrkFCuISgQUREQnx1KV2+kPiuihpjjNd4CWNcLi5hvF5j0Bif1b4iPsZYjVb7QMUXIUrUOMYQQgwSwyUMw+UyDMMwvXqx+jt/7F81RVHVXaBJ7vzWUrrOOb/f+Z1z9vmdvb977++uK2eq6FR94MG8JdUvQc2+mdb8OEecxFjMD0vtha5Ma77Z4lsJE+4HdBFELp2Ye4AmpB8RxOUzMP0Rn8f+lqUHha8GdRqfIXQ5ZhoAYq/xCgWt1vuEg6IbNDA5XkbbPhzRX+jnwAbstaX2tr0HzDub7xcvEHPAZxOBOCSh20KUJX4SGA66BfscEIlU8ZQkvD8FxpXjNCzOBh8j6zuGDySOMh6pKATfH7EKfAJoGubViB9nBfAqZhLiWOyXiEq0NyDvJArP/yfwb5G6gM+kuOSmTGtuEOifjH8g6SXsV5EOB2aEg4lNmJ3GHyJdQlChzVJkpUzBvIr4C4Ls8U3jkwL+4/ccWBTo467Qh9y//OmrZ0U20mqduOflyGTzlxl/WegmIjD9vli5tBl40mEsfd94JdIjssc5sOg7gSvBS2WfbzEd6wpFCbdXLH0ofAzop4a3kiv7eOORwOlCJwhNJUoyVMzRPf8k05CEHIDY1pLNL+0oFv4h05qb7DCQRmCPAgbgBDcH7rwNfIfgVqDb6G+FryOcFCCeBF1ruFj4Skw5S2QtaJ7ia/Ud8G6hM226gIcR/TFbMfOJcsy3SfqhTLvxYxJTCHLyyYiB4L1GT0ROpG8jGP1H2dwt0dSSzS/qKBZuIFj8B0p6CfhyxbNrF0zA/hDprzCPK7bvJrixu1FUxjLuTAFlLyrSvXZI7nLYG6/VkIFqOeltda08rqYs9dKnbudGjL5Gx00TcVtaAV+3PRdzFNY14JWZ1vwQwe+J4PmsInv6UUVW9teI9KuzQRuExkg8b/M0UUbh3lKx7TyHM+Ax7MWOjJApSHeXioVTDJ9C+hTSZ42+GHEdOsbiGKRjLB0HnIl0ndGLgUEzFwBpLtIsguBlABKWdiM9Z7gA6dNhoHE+6NeBDmgwaCdwue03iXT/xQRRyx5Lf284KgxDLwV1I12EWAteKmkSqBP5TOStjrLEneAFpfZCN2Ik5r3ETnRNeiXvxh5jcyORuDsD1IR4Cfvcni9WEOAcQ4QejEuJAZsxe7EHJJf84I72toWlYuEVYCbSr5FHR1isj06JxDtsP4zYJXmv0Q7M3zQgP9UqQz1ErV6f8v5a//X0rTVAbyeoHLRWO0D3KRXb9paKhe9inwY6B/Es8qpSe9sOIu3+e4RF/m2bNyV1AFcQMNhsoduQrzT+bnIrnwr8QtJ/zWTzUzuKhb0dxcJKR22Q5UgPy/whk80/r8ggOQM8UWIkMAIxSmgcMEGRDjUA+F5He+Ek4FNEFQASbrwwVBrmAZ+X+UtBS/KyXQ/8DnQ7ZqTtvUAb4hKkK0C3OIKPOsE/BP5aeJGkrxvdgdWEfW2pWGgH/hb01chQ5xLgPdBy0OmSLgBNzGTzy0FXE8xP5xNx4O+BFgndBcxAmgR8yaZLIcDXST0FlY4AjohYdIYD67EnIP4ZaYQjM2ZA+bnZ3oxpkjXb9hDQUvA02wOEHgbmlIpt3YJdCsdO+flX6ryV8tLIAllrVa/8t/qYA+RVVRuqJ9Voq9dnv+2ZbG4saHkKI70buKlULGzJtOaHAzdbkTYvuNPmMcTDwOiESPzA+D6hy4ELbQYkPHg1cAe4VCq2dWZa82MRVxJGzWibwREptr8FnFzAECGhX+wotr1LnZaw1XEE79uZrihQb9iD/bjQHYgLiKi/JiIW+V5JS0vFwtY0xs0EAyi2vyvpBuDbhiXpGi+3/ahQh8VMRXnlZcDPgIkpRPV20C8dtMJHKe7ZIoKI8svE124jQe/7pu0zO9rb2jPZ/GIiXHae0R8U1AOvIz1COKFuJkq1TQAuwGQR/4S5weItxdcvT5R+/mfs60rtbXdnsvmfED6GwxuQh0NtDY9XrUPXszYb+fsAXSel5LxMGHbzS8XCBy3Z/LGK4PyvAxdnsrl7gaXG52H+KwEPfQ04QlE64nrDOZhvAucmPfGLElnjHGY64YTYmmnNLTN+QOiqVPC+GTwIazj4WsPMFIDzNrAe/JHNR0LbEwrTTBimwwxjZU8AvmB7GlTyWwiZtY5CmcsMk41/LDTGZi/y3UJLOtrbtsR9yA3CfsgkZn10vaRbse9zEDJ2gvKIJyWetpkpuB/5fpsbBRMtOlOiwn2GQTJnh7PSC4hMm3kWR2MPFdwLmm3cJSnVBvT4uGYdgT3c0s8ljnTYts37XnCPtjVHMNP2JZLeFx4eEaQMR+q2vU376L3W2JQLCzW6Clev4r21Wit+9e8e2VOdjge7YldPsgmgJZtD5tdI44x3C9bYukRBBnOLzdcTiWKnpHsJFaEZeMB4jmAT6DzHthuxIxs6Hu4zwMPg/o6MjjlE1dJuwRqkh7DbkxuWlmzuvxMk3EgiZeftVsBYnQ5B7o8ZhMKRQo8VCArOtzW2XxB6BrHeMFX4OsOpadx1jhzJntU+05o/AvkxYKLRXsGVmFXIj9hMSnx7Z6fou0csnyH0InAa4dq+J86vheCmtJo/BzoN+2lLJ2PP62hveyKTzT9gfD7oGJkdiFGlYuHFSK7wfxdcBRoHXmRzjGAxYoaDv+4W0OcEVxlfLGshIlXz4mHbv5D0eKlYmJfJ5l8Hv1cqtl1VJT/VenKlfFQf06g81fpdt181Dv2Jt0w2PxG43OYyMBL/WCq2LYhPsC+2dTu4f1IIdki+BrQM+BZmkUUz9q2SFmNPQbrKcCKmOWWUbJC4y0EUPgc83yjIuc1eIrLvWUOXzF8TpX7HgIcYBgg1u4x4yJ2RoeLtRpuwPxD8CuldYmXvshmsKKBzqd2jenQj322zoKO9rRxBOAj8TayFDuRih+T5RNGi2wh99RnMRYhdth8GnSXxCpH6f6HNbeAmSSXbd4E6Eink5whHyyPYq5GOMx4m9KHNTsFhyINBnaViYVcmm59m+ClwGPC0zETjv1HURNli/ABwo9CRth8ATUX+L0Ijbb+KKAn9S4ztw5Futj24o71tbo1H3sjX/OO2umNV49CNTgz6hlN69rVk800y51uem5JUpxpul7gfmGr7MdBo7VsUH5S43PZkBQ3VOIIkZYnMjxDDbC6SfL6tUWkZ3YP8HOYRpK0h3Mx15OKVVautKRD9XezfSHwE2uII8ewi/VcqFrpizu6PGGoYjzUFcRxmmmCA09ItsRqzEHij1F6gJZsbiskJXUnEoSDxjvElWNcqaq90Wl4A3Bm4uB8GnSooIebbXEfU78awUuJazMuGIQrmonuDg07DJL5UKhZWtrTmvhEGND8EFmB+hrgceCPd38kJ5vyDcbOkPKZA0H5tdhQ9Ogy4AXMh4gbDd1V+luZ/GQ8Q+geL/4G5QuKvU432Xp0dB7m/ehWvt7rX+vuAFbre5+KQVI5avzPZ/AvAbDA23+1ob7uhpTU3JEI4e1h2sHlNYj6RLHo95m/BzUS45DLQY5j3EXMMl8qcXDb+CDXiDdtrJP0L4S38NDBNYe2nrCJDENTstNkteXd4LN2cHBaDbQYgp4+BwHwgsZIoCPRa0smbQkXSBdgZUr2+5Mj5PuZ2oiTEVGAj5uxSe+HdTDY/nfDGjQN+ACy0fY+kr6TreBBYCH4JNAHzSlIDHiKKJD0lKZvshXGYa4DFkYig8xWozSTgTaz7kW8Bfo21yeIVwYWGeYIv2v6apE8BSzA55IWgdx3Vup4i4NWIVQnU53nMZ0vtPeUm6q3E9eQCai+Slf3q2XK15KsbDlyhG9Vxqlt972A234+A2laUioU9mWx+AlFad2I65LvAb4DnwLNslgbEJsA7QNeB7weNxlyPOAvcL+3fAnqF+JxuMUxMaU5TSGQq3hfDu4ngZn6TCAIaajhcYewNI4ycyj57CMx1M+i3Emsx75TaC1shiHMUn/154LOgp6or6YuxFri0VCy8kcnmH45oN70CnF0qFnZksvkbwX8H2o25nOBp/jERXLQDfBXocWA5+FTgFawsYhbBwbcd+BxhhHYA75aKbVcA3ZnW3E+RlpeKhe9nsvkCcDHmi4hO4FWbBZIXpZf2UwRKdAbo34GfNZotuAB8HrC9VGybn8nmnyXIMcHMR3oI+GGpWLjmE5CV3nTuRvsD+9MY9IY91xqs8u+6K7JhtuJBrW9pzd+A/Vy4rjXK8jCZZqQXkhA8J7ja9mcFX0MaSoSSXgvchViAWYB0FlG8/mjiE/4VAMFOIkP7Xtt7JDXJjE9B8qNAF4MvBrrA7wq9QtTsfg/YXlHt9IBrbsnmmwTjM635s5CPx56e5sf+gCC7QEvAj2NNyWTzlwEP2doocRO4uSWbazb+A2il4ErEB4QTJQOsJirbbkIsDmHWk+DzkmfwjjiN8gkOvJkoKvT0vmeh49lHkP4zzNvI74B+DTRLfgcYDl5WKrbtzmTzQ9L1781k82MTdcI60Czgh+lJLk2/+yFtc7j760GdvX2l6/k2GtnW57F9rdC9fRIqB6u7vaU1119iEdY308q6m9ApXxB6MD2UccBCIlCmybBa+DqbIxAXCB0dge7sRawBngWvcsTgTrGZJ3wG0oCqOewmUrtSPIcmEljtHMzACjnshsRpF3EX3eDbknE6CrgccxZidJLfj9Jxo0mrOsHGdK+gwyYvkUnHriSSZ7eCc0QIQHupWMgToQFNaaW+EXiKWPG7MJch3WH78Uhy1V5C1fgK9p1IVzr47X6XHClHltoLu2s8S4CmTDY3DfQT2ysV1XULwHmlYuHRTDb/M9t7Bcch/R8io/w/Ir7qwPnPE17i0PMfBk4rFQvP1JCJvvTkyt+V976eelFvf13brS/VoqnqmKYa//W6vaO9rbNUbFuIOAxpAbAOM0PxAH+Tyea/ZvujUrFwCfZRttcoUqpelfR5mbNtH4Z8qfFTBG/xjaCfCv0BWCzRhXSTg+Kqa990GQg+GXQP6GWCr+56w38gYnr/AXgNvJ3gyhtPlLOYDPqMo1jkuZi9jijB6y3aiACqcUA/zC7MrZgvEPDi8xInAz8g8iZPIcJcF8c8GIT5JfQ4bL6ehHkDcJ5xF+gypNuJksYXlYJW+ETiS7QO6drk8fsqMFxwW6m9sCdw933PNZPND29pzaWCl8oDSHoMdBiA6UlLGw7a6FBBmi3WlNoL3aVi4W7BOsE5tpbIPIr9DpEVXykT1TJTLRPdHCgbtY7va7x64/f87g22q4dm9LZaV/fvzrTmRwG7Su2FnQAt2VyTIm3+IszXEUNsrwctkXjC0K3Q5xZgT3LEIj8IFCQ2ELwYY4Cp4C8Q5YUnYA9GFYFGAIFxo/K/sXWv4X7QdR3the3E6tXP1nDEKOwBwGZJW40nhDHmowQzHUZR6OShptxH5DDOlr0UMcKmXdI1pWLho0xrvskR0H+DxExQl+35He1t7S3Z3EjMIqELwZ2WsoIVNt9ORDWrgJNKxcKeTGtuGOjn4BGg40vthdUtrbkTJZYTsSOHh+tdL0gcl+gNRgM/Ib4O70ZUnDttHYa8VOZcpL8y7Jb534Z/kHgW+2dI3zO8LRiN3Wb0mGCq8acE30SaR5C9HwyqUQ+1qNe/t2NqHRuPvI9J1OtYz/Lc75gwCP1PQLPNo5IesP1uR0rQbGnNjZR0OzgxvWsD9o1Iywgd8AjbsyR9EXM0eLijQNCacMVqDVE+uBkYTUCARyFNF4xPqAhlJ8k+bVeAN4POJIzFl4mVv5kIxHkNMTDSxHp67XXQ8j5DGGVrHWGVN0qeBdpElHB+Ju6FT7ZZKHE0qBtYb/uadI+ukDiR4KlbC8yzWQ++LRIh9C7wpVJkhQ+2/ayko7HvBl1h3KoIC+gPugCzzPJi0EzBsQZkv4AY5SBP/7akRdg/KLW3XdWSzb0kMzEJ9Ejh3wNn2wyTuN2RijUJwOZJ4OcSN2Idn+73idhtKdG2EWSsNzW2r+Nr/aZqX09rBOXoy/tTbjXhmVhJtBB7emCy2kBkRCwH3kmryTRgIfaJhiZFje0l2I+X2iNwPFGJnaiwvGfYqbIV2oW8gSBM2UbQwX5osw15pMJAOjU8gH4SeMEwDPMZRdrSo8Dzjk/3BsxriHuIXMIRDrbTtzFvpJIZgwnU5hJgBmYP4lbsm5A6gbPAC0ATHJkxtwPt2FtS3MQ5ELEkQHcwI7ELfBdmdjhx/OVSsW17S2tuoqJ4/HiJVcBJ8UXy60RWzf3ECnw69o+RFpWKhb/PZPOtNkXJF4BKmN8iD0xq1KYkwBtLxbbjM9n8DONXZX0GcaXtr6nsJY3/d0p8mihe+kyiPa4WqHr6bl+tEZiu0f5A/QD/RibTaOtOwjgJ+1KksxQk3BAZJU8AD4HXGY0FXy50PgGjbQLfY/SjjkjNApKjBoZGGO5clC4AABtDSURBVKaOMf5nmX9LEJxPilWHJkdS6DrCGm8GlpSKhQ0xRm5yuJPZRaQdbUovVzORuTIg5uCRwGjQkcDRhkkK3XmT5WWKEs47bZ8v6VpCHdpCBAw9mJADiMySQvmGB+6dap7A+Qrj8jXgTOwugoz9W4b+iiD78wxDFV7VGw0vCe52lIB+xEEXcSShov03wsg9CvvvkJbY/qHEVcnd/nPge6ViYUHK67wJ81eIm4Bv1HiGh5eCDfZP1Q5ZBisFujxQ5e/qwfvSZ+od3/M705ofZHy6xEW2ZiRnSLei1NkSpFcMgwQXY1/twKS7ZFaAH0CsKBXbujLZPMa/FBrvVLJBZoXxsxKbk279ReLTOc5mCPIeoYtKxcJTmdb8YsR3kkLRjhmFuML2LYgpUHaOEK7tEJD3bb8h6Xki+bbb9rlE1NwYAbbvFLqOWHXHgE5GnmcUbnL7PaLYzwjj8UJNaf7fl7kZcaHj6zBcEbF3naS7bc9Gelbm1lJ74ZrI6fM3HfmICOYTWTOPGVoxx0r+yFFjsRv4TML1XyAyUeaXioXHM635W8CTSu1tx2da819xqDKUVa0kIIeDB9uaKPFglXew8u++EIneVNW+kI9qAa8pi7WyvrvrHVzjpJXba11gUyabH2i8FLMN0c/we5lHS8W2ZZnW3BjQRcDFtmeCZgKrZBYjbgXdCT5XcK1xhsiu3prJ5peBC6DrgYuSvjceMR7rbx2oQgl7uaSFpWKhM5PN98f0d2RtNyGWAG8qnCqbCHajzZJuBoYZ7xLaQTgwtrAPpy7nR8403Iw0WUCC8S5BeoaIFpwfLnNQBCU9AdxmOE9B94vCV7lOkV422fArYFhyw98JLFEIfwbpNgCL37UENcLtli4U7ARfBCoFV4nOwv77jva2t1qy+QJ4sPDlpWLb9kw2f2GySXDYDCA+xPp1Qlziy2m6kPolxaNbsBs0ljCCOwk1rS/5qP5diUY0qlL0tr/mC9AbyvGJtHSjfmy7dZ9mxnYF9PZEqb2wOYTNrYhrQzWBFPa4GFgJYPtEwZWGWRHuSLfgOUIA3yAgtllE1veMlABLSgpYLfgJ0vuGj4BdmK0d7YXOhAMvMdzWUWzbRo2XufywDeMUBT7PtpgCybw0W0HzJHZhP20YGTzMrEc8hnkQsQt8LmYxMATRBfyjze+BRYgRiqi/+xWxyZuBi20WCMYk1ONaYDD4dkcFrSdB1xD5krdLfNVohSK4abrxywRvx0nGQzC/QgxVxMts6Whv+1RLa344+MfAaklv2y4mfb1cVx2LwxQpc5cRevRHn6SMHEKri37UE+hGVY7e1Iye/cn9fVOKgW4qGx2GrsBZC4/GcblmrAwRkjk5TfBdYCnSk+Auw2hFlvRpsiaD+yFWgC4pB9LbniSYhvhLzDjETKecvp4LFqVSse20TDY/EPs+4FJQt8X12MMlhhDUVlFvGwY5OVEkdWN3WdqeUI/FpWJhS0trboykycAe2+sFXQQ60ULEQg9K537SUQj+SlAG6EY8Cr6+VGz7iPgKLLL9HcUJ7wYW214qOCtF/12NWU0Uy3xEYnagIz6BqCf4c2CgpM8TL8d92BcircCeA6wrtbd9LpPN34F9GfAaaK7xHwTbkS4CP0skJT8BXFIqtlU7bqplpFHVo1EZqyW4vdl5PSv0wUAs9LGvLuTS0pqbKGluMtqmJ2G7tVQsXF15zkxrrglpGvZFQVurwZgtwdWsh8rEJ5nW3CCkCUlXfbFULGzLZHO3EGUW1mI/gvQjIg1qutGZitrdo4BHsXcj/bYUBN2kQjejsYYiBkWuHaTKWnsQe4CdmJ3gnaX2ts54gRgr+Qgim/3TBFXBEcDI8icJgcPlvkzoeszziImEunMRYRBOAF8CmkMwe041LqT46CKBg/8jcH0yNmcQnruRtt+V+DJoJ6aIOBVoKRULz2Wy+TmYFxC7wfNBT2MeNZwn8QuikNMuhcOpbBgeT8RUX2U8U3BFqdi2gr515F5loOr3ocB+9X6Xb/N+ra/J1VLoq1tfmGF51cZmlPDWUntbV6Y130QUcD+CcLc+ltg3+ymIXOYnr98goszZM9gvIb1XZjFN447E3IQ4g7ARdhKE6D8sFQu7e6iqwuZ5iEgt+gA4Afg5gYpsMezqqDJ+Mtl8P9vDJMYRVGYnEOlYA+tcLyk09Q2Ctqw9Ecl8A1hK0J2dZjNKwVY6I3XrJIKsgnAnoL8m23lJj6b5/Gcir7EZ/CLobAKxuYVI81oAfM/20IRqjMRcQRQHutF4nuAVwttatqU+Z7xD6DdEMNmZ5WcFJlUf6/W51vnd27EH27/X9kfXoStbpjU/3OJZTDfyTswDHe1tjwK0ZHMjZP2+0hli3C7pilT9NQXNczpwQdKTm7E6jb+HtEj4MgcV14uKUg2PYY9Ll7nFchvwgtD7FS9BGeM+VXANZhpBqbsHvItIj2oCBoEHJvSjaf+gpP28k13GHwitBr9sa43ElkqvWiabH2q4UPh+m9MT9NefqE1+ne2VwBTQlcIzETtA2VKx8FpLNjdG6D7MTMLY+IHtayXttb1I0neM7025l/1sPyuYhfQk9gWgX4AHIX3a9rmKoKjyVZzX0d72aEtr7rZwq+svUnxIdaurw9ZpB3t8rX69jdGzr5lPFnPuq21TxDBfmIRhOME4RJQE9jGGqxX8af2EWrGnZbK5m42eA2/ALENalrK4T0echPkd9mSk20Pn9B7gflungOZIPtJoNGiO8HTgnpbW3HGI7VEBwGFgmhLBqjQbcQxoPGZU0qebnHR/SXuJlX8bERy/EenXwu8D60DDsGc5GI0eIGC4nuWtVCzsAL7f0pr7lhLsBt4Dmgc+QfA2inBUm3dB84Q3Z7K5vyN46QYRhJWXloqFJ4OD24VEs/ak0JXY/ZEeUXD4vWX7IkROMNbWAqBL4soE6e0mXtjPEzQS9wFfD1c7G+o8y4OVm0OVs1pISd3jDsZTWN0OReUgk83h8LSdLauj1F54oqpPdyabH0YUTp8HnhIrpNPY2plWzm1G7yjCP98BsDlVoiVc6RpKfIKXgO8sFdv2lM+TyeYHYz+buClOiWg8zQa/B3qLoLdaYXNiyiwv083uJWCrbuN+WIMlhhG67acJd/skgpaBtIrvAC4oFQtl7rduoKklm58S5Ys1ELwjMnC4GUhfFL9ndJci4OorBLVDKlXhF43yCmNvTkQGMo4IxD+bgAsfQJ6UrqclcHa/TujsfwP6KkFuuQw8nFDr1ho+l9DnGeBVSc3oSwU4GJ23EXXiX6XK0aszJtOaHwY+w+JzmP5EeePfRLSd1pfaw8OWUI1TCT6MaUTt63IQfllunjJe0NHetoF4IQYQscWXY08HbUPcj/28pbWCXfurALlv2CyWNChgKu+S9WXEszZD1CObUM4/NClLukLbSDu6U7zDiwS5+2vpZUrnyjfZXhrcc36DSDa40XiWrAKwFfl60F7MXPAcghoM25slLQQ/AZplszAZuWX17BHbZwu1IpqBx8M7y1is58GDEccTJaRfIMJxPws+H2sR0G3533UEmnHIz7bquENRNQ65f19GYSP6y6FMoCmTzX2VyCweVQEElNtmm2ckHsYRykhy0gDTwF8CzbaZIGgKEMKdQj8CP0TSkRPGPI6o632cYYoCftsi8x7B8vkk4QUcQFTK6gd8FNk1ucFYGcSXHISPoygn9Eb+/y7C6bKRQCV+TmRJb05pURCMo9OIAK1lacUfB2wpFQu7WlpzzRITjAoyU6h4eYBytOAWwth7CjjVUXy0XOt8u+2FSPNlz3SwTm0k4sufM3xNcAPhzr8yzfdhhyH7PUUW0KAg+WEM8DelYqFMTtMIBNcIeFB5XGWrBePVg+3qjbXffBpROWpN4GC8PXXhvUw23xzhlTo7rcIjKg9Igr5RUV+kg2CO7wmOyWRzQ0EzDSckJGRM6rNbMBfzCtBcai/sjePzYMYEiYvPJPTLbsJ58yrBejoc+AvwHQQPxvJSsXBnpjU3JCUQlMnBuyriNIYSVaYGpv7jidjrox31ybF5SsHen/B2ZqWQ0ZOrrzu1zUT2yptEpvcpxDWmhAJvNroL+86O9rZdmWz+QuBYzPLkkT1NcLJhSHrI349YkCgxV9F2EJ7YF4WeBR4oFQs/qDGfg2mHrDJ83FZLoKvbn2Jy3SlHb4JhpvAXsSYjRhr331fXw7sISO9l0GvAurKAt7TmmtIKc6LNSZJuNr5UJkN4HRcBq1McApnWPMgjQecApzmowZoxHyFuBz4wvCxTKrUX5may+V8Zj1Oct6VULHSm5N7XgXHGzRXzBLQX/J6t5Ygn0qo5llhdzyUEfy/hudxk+6OA17yW4JB+BphmPEH7+Kq7gVW275B4JlHYHtBaWnM/ljSKMFynEC7tiufoPbZWCW9DmkNEH56AeIOg1j3o50ftVfNQ2yemQ1cLdl9em9621zuupv6VCLSbEXvji+smm0Gg4RLjsI9P2PKICrV1O2a1IuDmGeMtHfuK4dDSmssBhXSV3ZjHCdL1jRU6dMKYc/0Ijo57kCeDVmHvkvS07U2gr0huMUKmpdRe2J48oF83PlLWICIJdRMR7baGSOLFZgL4BkRGQamwy/bNQg8itjhUmZuBGQrWpgOa0ErgOiJpd7bxMckxM1JRBGknZi3SAoVa0Wp8KcEqle65dqaczrGYF4WWGgZKftWwsKPY9kSNU9fDjBvVbT+J/rWMypr9D0aHrhyskb9rqTB1/w7kgd8hNicjMVCKCDi/taNY6G7J5pqFTgdfgzW1R98sjxcxCA8TOXu7AJI37UxgtPEgBQKxl1AvNgO/Nl4j9G6pWNibac3/ikR1UKNtQjwHLMesCc8bpxJ8cH9BwKD/BDxeKha2JLTmesxXEc3J4HwtRfxtSs6kbxN6bD+qJVlg/F7CqZuB+ZhpBENUZdtr8aTCQTQWmIkZUaGPd9tuk3Q9MALzEjAUsapULBxf51r33ddofaEclcfU06d7698bKtJX/57WF8rxSQHofY6THu4t2DlEP1v9KCMJ8BTmvDLIn1bz6eCzkUaAm1IFgLE2RxBB6c856pu8VioWtvWcJ5woY7AXSpxv1Cwboy0SDxq/LjQJ+CubXYj/i/nLyDzxGKMmBXR3O/gprN9CikwRyCLxKG8ExtouR63tEbrX8vNCwzFHGp8qGO8ER0reCOoi+DymY693ZI9kgAGUUR1ICQJaL/EYUSvmNMQ5oP4VTFAYvSFYGB5ARhpWy9pL5ETuSCVAGkUr/uSoRZ1+B71C9zVAX2hIvberzxsXWeLqZ3uMpNnYXwJNR96AWRn4srcavYz8jtCOsvqQ3NqjCR31EuPRgi7QB7bXS2yLEE29p3A2TJC0iFhlm0wQyiA2YVYaXgCtkthWKha6W1pzA4UGIXak5IH+hpeAcQSkthr8EuYdRKdhhNDk5ORYAdyGOTXuvHdFMBEd4BJR7BOLSUT9mcugjHLEo0qhnOvBT4GeDpe5ryCgu6YK7BvDWtlbLYYEfbDL7vlLS8W2eoXla/2u3NaIr6IeclEPmfgkx+tToHuDSqC+oDcCqjeszrRkc4NkZoJaCF65YYGauRu0Efs9xNtGqxVpXXsz2Xyz7TmCi0AnBo1VagEsrzO6QXY76Azkh4kcP/aBzgDuRqzDrAdODqTDezCvIS0uFQtvBcsqQxGjbQ+R1BXBVGwsFQtlDLocRx2snabJ8miZ8cCRKchqCjA0zlvG2F2e7yqjq4HdwhdgzifY+gHvMHpQcc92ES/ZGuD32CPScr3W9n2S7kxVY+stQr09t9769LWvN/Wzr+Mqx+11zocC2/WFhDRq8fZ1cT3HldOiEvNSM3Ay9tlIswnILB0qHLHWTwC3lYqFDUmI+oMnGl2qYDBq7uGmi8pSN4DXg060fZJgGtLI/X0mia+UfcGvCdWoejErRo5yEVuFt4YqQRN4CGg4gQM3RY/Ktu8srvpNVNcdULHtfeO7BMvKzpv0Ijell2oSYjKBja89CPTiz4ZSfIz+3XAgjUEjOnBv6kOvSEadVk996Wkt2dxirG9EVBlPI60UbLPpp3hgs22+jJiKeyLHusBXCU4ybEwG0R4CI77S+AysIRWn2YD8nMzrSO8BGMbJHgs6DDHCIYxDBAOw+1tq0j5Hy54yjYJhd6Ls7Ur6ajR7oGFAxIK4OSRf3cSqug3YiP0Lw2CCq+OAhyqxnUgyfth4I2aSxFFYkx3XNjT12w5+RtKNKbir1urW28p7sNvqtb5W8er+jZyv7r6+UA6oPUBvrbfjGl2V9+uTyea+CrrdTk4F0a2IO1iF/YKk10rFwu6W1vxIyWeBrnBQ5j6KdU7KXtkCvGL4CPttiVWYKUhfSs6dyZCQhrgrOwWbiPrYm4APge09vm8AJ8ZS0UkEwpdd33tSDMdHpWJhJ9DUks2PAH5JFNV8nyB5+Y3NZuEdRGoYQJPN85IGlVfo8mqd4LgPgCEOHHtYkEjuf8MS2rELGJ/CVT9bRn0auO/1VMxD0mn7+N2IDn1Qc27EsVLdsS99+FBVDuodl7K8hwBn2D5T0vTIHumRvk6ZFcmV/Q6wyWa0xLuYOYiCK7xxSWXYJvQgwf650aGWTBGaivlCwnhHxSe+sVaJIlZo4leUioW7M9n8EYZfqsY11uhT8e9+BeOr90ewlGlCfGAoCh4EbykV20gxLXOAUh1SmD9WO1iB7Kt/w60v2O7P2ep+zhK+O8f4FKFZtofFQ+4RqS5gM+I9zOuSVgKzDfNkT/Y+PjoIoXgNeCFUDa9T8Ht02+4vaSiRSDsAuwmp2fZwScOM/1JoiPEgWQMJMsWByQU+gOCRXiJ4ymibIoLtEqxZxsklXRbb/V+IyrZfeEdUpV1A1Ga8RdYUgtm/fC1dRArVOkwhPIoHCHMjqmGfquAn2BpRURuac+UKTdWBB4tYNKQ+VI3b1yenLyQk5St6ks0sSSdgplkMEMZOYi512fxI4ibbO4TGIY8wjBE6BjybHvJGYbwlMZPehni3Im2fTDZ/DvgKrHUWO/dJohH6Z8O7CodFN0BLa+5NianA7uTN2y5pdwrZ3A1aAR6WXoJ+wB6HWjIbPMimW9JKzBrwL5GeKRULnS3Z/HjhX+wzcKlcyct6+fvGp3Tsi/br7X5W3/venlut4xpFMHo7T72xGp5zPZSjrwH6msDH+dz0NnZPy2Tz30hBSZvAv8B6pdRe2JjJ5voZjg7GJM8iUqX6A2Ucdw1h9X9ovF4RL9yNySAuAmayXzElX5FwWwBaWnNDJZ1h+3hFueJRlfNK8r3W5hqJlbbnSBrvIIz5PJGZPriiy2qCaOcjog7g59IcphIu7c2KMs/twIZKpCKxtk603S1ps2EjeHvH/qlSH/f+/znax1Y5DkWHPthjDgUOrLsvk80vpZLlJ4yxtwy3KHTGvSm6bhDydNCXDXMUoZuVbQ9hLHZgb0caryABH2wYLXi4VCzcXTEXyvNJjpzhtqcAX1DwVU9mn8CuMSwXPJFc3cMIA3WKYb6CUXRQnesuX1f5KXUTRuEuQq14zVE7fC/4lY7igSWd/4ztz/YSNRrLUa9VH9MI7FdvXyPH9LRUt2WOxZnCY22mqqcUBBuMHxc8C3oP3FUqttHSmkdinE1G8mkEUXjzAWcLU6xd5spSew8FWc88W1pzNxJk6guIQPqeCLVEaDMJcQpwBpHZ3gkcB7yQxrkA+xlLAzFTJI8nkn87iRdsF0Hr9e1KTyFRj3ysxVpFbZgJihX+okoHTvq31j2tta+vZ3Yoffr63ci8DmnOjagcjbTe9O6P26e3Fb/cn5ZsbojQZcBVmKFAWbfdg7TeZr3grlJ74Y3yAC3Z3FAFZcDxRKHOsYFjJ+9cEH+fVmovrKk8Z0trfmpy5PXHvEwELX0EbDL+UGgdsAaz1fI0obG2n5P4RaqZ+A5oJGIA4couEuTv2wESo/4jmDk9ZqKSE8duAn2h1L6vdFwD9/lPvVr+UdTMRtongXLUW9UbXZVpsE9D589k8/1tnyzpNGCm7eGKVXgP0hXgFUZXKQL6V5YNvgiO8oDESHQJ4ley1gHv7+O2zo8gKHEHg34HrFYI5TG2Z0tM7nHsiG7DW7LuQrSnDJr+yQCciN1RBWvsMTyJ2AZMVyoZl8aqgj80v9ReKNMZHCwy8HHvcSPb+5rLH23OH1flqNfnYD5nvX0Rahmovc1hP2M005prRhpMxFnvLhULu1uy+VMVdF07BZ/fsX37ZKQWzAurVy1/vCWbv1jB4bY38WCsMN7WEbjuLAfrZ0+MRUTD+WpgFdYIgr0/Sxh/zemwnYaV2D8VvI+0zvhEzJckbSUMywz7w4nRQofOE8biYPDboDsTitLbotDXp7qvL2Jv41Xe91rnrv6bqm1/tDlX64/VHetNihrbq7fVO3n19vI5DmYFqDX2AeMmQu7tlfsVfHj/UXhnqdjWeexxc88nuD6agcdlrwDda3GExEKbBxJN7vf/5/btmwYMHHjNv+n/bw4HTUwlgSch3QN89n9u3z6R4KzL/vuhQwfatCrIzKcJzkA6o8fRaO2QWAdsBt8Ius5R/m0O+zkjAXO9RL5ULKysc09rteoXvNYzrSVETVXHV7d6977yBat8ngerun6sOdfDoQ9Wf2kU2ejr98cZ+2BbN9A0/bi5CDeBun/y+vL9Dsi05oaCliDu2rF9+0ZFYfhmgrqr9O+HDsX2QKFdpfZC9/Tj5t4jyBEv0Sk/eX35O5lsDtAocCsoa5iqgOP2E1qZt4h48O1G5wlmIoYnL2Cz4bsdxcKij3G9+133H7nPJ623NzxeoypHo3pyI1ZtrU9IX2pH9RtZ2af6PL21emNV7q8eE4Dpx80dIHgdmJLKuGwHbyaK+FylMkG7GQ6egfTiT15fvrVyvBT5NxyYZfsoYIykobYHSGoyDBDcUCoWfpTJ5pqwBoKbLDUBOzsOjJardz/qtVrPp7JvXypjI7+r5/UnnbPqHPhxVtGD6V9PqOr1r6dzVe6j4phafRrpX/P804+b25Si2yYB/8nmXxQFf4ZiL5a00XjR6tefWlZj3IPRN2sJVq3xDuUL1+hq19t9/1c753/NsRx/zFZPuHtbfeq2Y2ecPtnSNeCpQtt+8vryYxo896HM82DHOJhzfJxjah37Z5tzX0ZW9d99GQ619jXyhjXV+K+vcWvNq9E5VW+rvrZ6BkrNe3PsjLlNxx43t5ne519vHtXn+CT2H8y19PVc/7+Yc28pWOX2x1I5+tJneztPLZ27t23l7fVW4lrjN7qi9HYNtdSgvtSevj7rfZ2rWk2oPtfBnP//uzn/PyViVOML4pitAAAAAElFTkSuQmCC" vertex="1" parent="1">
          <mxGeometry x="590" y="322.5" width="112.5" height="112.5" as="geometry" />
        </mxCell>
        <mxCell id="erdwm7UFil0JZydvI_QE-6" value="" style="shape=image;verticalLabelPosition=bottom;verticalAlign=top;imageAspect=0;aspect=fixed;image=data:image/png,UklGRpQSAABXRUJQVlA4TIcSAAAv/8F/EJWK47aRHEnKP+z2u2e+ETEB+CEhsFiAV+a4XSkJ9UKJfzaLM4ezN9NP+LCqW9akxpajse2d8iEmgrGwH/AUz8AP7dnaNsdtbdt6IgCC3bAPb6b33pVUUnnc/0UNkWDyjwyT0ym6RgqgKEojDKRtE/+a/5UCAACk1GrvnX0Zy7Zt2/XCzKzpz9b92dvNyLqabSu3bNehs95LEttIjiRND8/s7t1NRta53hzbP0huIzmSgPn/q9fvVkRFxrqMQ2FMniLKCgeRJCuUsIlRN2ZLv89p9rvD/u4w87FtrlevWZa1xmuW//fPLGuN1yzLWuM1y7LWeM2yrDVes7z3Tz72aLxm+dij8ZrlY4/Ga5axvz3472Pa/+7wvf9zh+CxJ4xEoPvbUeZR1vPzK9CDDYAFmy0EHMlcoxuYxYdbsvhu2+9tGCwsnPhtHjl9zsLe93299muycJvftvHLqXMe2b5y1+uH5y3jplgm9/W7XlnAa5AMofrbx2VHgKuw718/bpS5w/96QnZ3r8S78yaZO3z7uOx2Le6ft8jc4ZdaPDwPkGHTvBGBsir7jpCAreGXqTFZjXPf3BZeOPcEyBvITSGnh6w++zURnoRsCJNzyzBsILcDsMxX6XpFSMBWMEleYgvsgaTShFmn+7/oRpg7pLta+/4V700wdwgBuFb3vzkswqSJfa0efnMDzB4QWqlz3xz/0RMSa/TI+UbI8E8eAT3ChA0kmeZr7a7XjzdCBn/uEOg8IzaQTJpA9Xu3A2ro5w6BznJiA8mkCVS/++fCd4dAZzmxgWTSPMp8AroWserzcpR1Dv0GsuhzeT6HfwNZ87k8n7OBDWTJ53KUec4ONpAVnxegc7awgSz4zLMnKzaQRJrnT1ZsIHk0HzlZsYGk0XzsZMUGkkkT6BwrNpBMmkDnOLGBpNIEOmcnG8iqd4db2UBuirlD0p9KzmqpeWyby/UKy8JdLvMfiegOx9yhYBb+wUhsx2LuUDNL9vZU+EjMHapmyR4nxuMwdyibBT7Lh2HuUDgLZwAGYe5QOQsPAMdg7lA6C9fGYO5QOwtF3Z07HA47UlxHYO5QPAutd6EHYO5QPctBwQDMHapnSUb/fuT+zx3KZzla2/+5Q/ksuTf9nzuUzwKMpvzuUD8LGVK7wyGxc1Fqdzgkdl5L7Q6HxM6Q1O5wSOxwpXaHQ2JHKb87LACL1O5wTOyud4fnTqZ3h2dPnneH50+Wd4fvXI53h+9d8rvDArDI7w4LwGJ+d/hEYn53+HS53x3ebu53h7fjfnd4jv3d4bG/Ozz2d4fH/u7w2N8dHvu7w9P+d4ftf3fY/neH7X932P53h+1/d9j+d4ftf3fY/neH7X932P53h3/2usP2vzt87//c4euYSBChczlKHBLXRCh0XggYEtdkUuhMjIbENfuhtDsERDwirlmZ1PcOzacRcaVQ6ncH4dCI2LGhn1Bp4joi6AN4Hp3tAe3jYWdvX01yxwMSdPtqgmN8m7/qOGc3VowGOGj01gTg9VjY2dACw6b5Q3rJ1FCgtsvHHeQkNJEMBFqh9vm4wx1BKIYBA+j2+rjDEYdoENCBXiMMoyauH4YANR/7bU5o3ALpPthfZq892PDmbef3NnIRjW47t+H1lYVuo4e9aM9ue2Q7wd8IPziaNea6EjYyqZMIXrOfWRmF2Lx35LjDtf/fHfg/7u8O3E11h+1/d/je/7lDiKQCPdiOMo+ynp9fge5vYCyYbpq5Q0Lpr+F2gxlAZf35QcfrleydtSTgCHa45g5R5Q5IHTcbzWPAVed3F5pwrvLvYXoo+MmR29xr7GXDkcF0Nbcazr4V5/fLqbODsUfrzbUerf+XJ4zS7AH6PKroRuOBiVrtEdg/KGZuUb30ETNEACmAX9V9BsDGaJ35fZ958nlxvVRCHR/Y8KW2u4zg91+Mssb8bkpJeE+olx6sBwcYtiOt7x5DsrL15ff2cQe7EvhJ9cLBc2jgQ2eVdyJzLGdt+f087ezlU+uFi21FvWyuIwoXX6t0TSSJ67ryu+WVDD+9XobQGpW5Q2IY2et03X9EfU35Ha1NRBH18uJvBgzJ3OEP6VHJYrX2neeAq8nvb0bJbjTmkFQ11VEmczXbdw6tJb87xtn3qHoTzi/SqqW/DfUdy9xrFuu2AxO3jvxORSazcfUeOjEY/u2JB5sTQe32HS6mK8jv7WFfE0VgvQn3iDwUvskj9+dav32nGULx/H6ZWsaKrZcNA+EvRjs4nMiaYN8pK53fN2xzXcH18nwcnApP+q6NsCNNbAo/7tJEEF0vMkiD4BdpZDcSpBkYTbyK5vfTUNmJz/H1EjAGjjIb8khleHSgWjS/TCv3vkS9lI7A3GGmk9VfmwElB349sGh+iVsyXKRezvZ/7hCQvGShHZgksGym5CeyMvVS0/25Q8x4e20HPqBTND/w3CxVL0119LdhwLIXaTuAcAxU0UwxoblYvTzq++wBLvzZ2wEeKWUzJRp2uXq533OQOQ/cEPzAsGimgOwHLpgBZzqOaIb3hoAJtmimUGkomgEbuw0NyveGgE9G2UxxpL9sBolHrwEx2xL8w7ZspixHVDYDuP/yhDp63h4Y82JvCe5BLJopWC6VziCr7fLcISDZCFoCCSVlM0WXL8UzuJHc47lDHPm1twT9OJfNlECmyx+T0H97Yn/nDsFzAFlT0IRK2UzJRl4+g4OSWnreEgTRy2JLIGczQNFMIVO1ggySgb8atbegcR64KRjHt2ymmNO+hgxuJPYWqUyy2BS8RKNspiSxsIYMMmZn/QHW3hTAHAAsmikojoGsIYPs519F7qrPrILdFswRVTZT1Nax3yTp+SG9rsKSD3tb8AW9spnixsgqMsi132XYU2DYjaQtQDjzuWymbPi4igyyl79Mrap1QD8482dvC/hAZTMFB3MdGWQ3/mHEutYB+UCEgbIxaMasbKbo8X0VGSSyY9m1rQPuIYqhvTG4D7FspgQxvYoMkrlTYdWtA+YBzYO9MRCxumymAOxEuYoMcs13mT6+DqS1B5xpDHpwKJspFOrWkUFW96dT6aoJmo9NAQta2UyxonMVGSTIoRNvHt8DGKMfeZnRZrIdULC9cPZkIlzHw1K+Kf3SA6yCzw9wof9UQ9EKjOJdNnvQMEBWkUEyesuzB9Ciad93LodeZna04uAvo1k2ezRe15FB9vmnLa3UYCkBMX8vQ1ZHXmYA6lsAJQcAy2aPLxPryCC7Ue8RSEdSOqBz/0GIiHGKvMxQ6K4fs4QXbiHZyFaRQaI42HVZpLVzh0QxfiZGeqFFXuZbLomodnxAt2wLwXNrHRkk86ciFmrr3OEvU4MJcjZIGkNvNfNodd2eOQ+mbAsx4Nc6Mkjav8+iZoOCfyqQvv2R7WBb6GXObtWMBVILt4sYOOvIIHvy69Tb769GzU4APxpvojgJiazjBM/vevEHk7LtAmD76yoyAMlOvHl8+93mm/xbEm8yHTo6gSHzteI+hLLtggprHRkgObb60nz/9sSDXYl8Wby8Ax1ZB7HAVUJAVuF24cTAOjJg/MSr/b7hlPu7OF4YoXVwpEb8w65wu1iOaB0Z8OWH9JvvzeMPNifS5fE+kxJZByDP60MZpLLt+iOMlWRA2V+M0nzfZ5F9fFK88LGKrANVhiqDlJLC7WIpX9eRAUq2v7RA1v4W7WN5ieCJ8dIGMbIOPJFVhZFPhdtFAFPryAAO4U+wy+7wjkH25OnxUhZaB8U14SEqhdtFNvJ1ZEBvYtUIWfkLYRN2RLxsDK0jK6tGouAAYNl2QaZ6JRnw7IDeClmGn2lmrJh4keIWGcefTiXXWYlkhtDC7cKC9pVkwPmfhlqsmbMHxCaTUZEz8tN0IuP4NodEUIWER0HhxyFAIfx1ZICE5bPxoMEMjDx7+ubxkXGQvowkFibwaD3CGQuN/GB/aByc6yT+ot96kJiIjTxREhZ6HUQ+dRGVEFpvzhuhiTI2ctgYRdaGNpP9A8KB2RizBv9gf3DkfAcbWRvBKNUNfBKeoKlzh28en3sRHDkXQmtjV+fQh81yu+0OMw3GgyNnVWRtADR0DS9QWW6/3SEBKGIjR4htZG3Q6e8YmGBaZJah/hgcOT1QI2tLHBJRryBl3eyJCciz4DbAAois7WhNpzBHYF/MiSojwW2gJLS27E6X0Ixhb8yJF/LYNiTyk+DI2v5iFH53CNUQ+2NOdga3IZn6SQaRtX1lvjdAYAD0yPxMU3Abcu/uQkfWRhxIXyAgeXbJnAeq0XemyrHQ2r52BQPYNU3W4t/ml8hj2/BMcmRtgLzoCD6i2TZZjH+wK7gNcDGNrO0PjHUDTDCNk8X4bw9LY3AbaIUYWRteyPoABUWzdbIaHxWGgtvAg9DaKO0C5glunyzHx/NLcGtYH1rbxw6gDeP+mZNtwa1Bgmtkbb+ZSq6r+XgMtYcCQGNwaxg+pBZZ27fskoW2A4EB2EX5/ccEtyZ7HHozC0fLmg4Jy2cnzYlH9P8QDvaG1saFhmMM11YaCHy2BrcmgW+KiawNDJ+b7TNazXSFwAeAFdwaZtCLrA09ZhuNG2Db6YqB//M0k8Hg1vANbGRthKBsscl2ljTUFQT/Nt/oxwXGudDa2NNgsAlrqkHBP9gW3RpWRNYGAKu56MGyx17+ZgANwe1CgE1kbagw0Fg8hdZlc0JnMLhddEONrA1HxE3FecBOmxN3ZMHtoiq0toPchkLCqtltc1Ia3S6KQmvL7jYTE3j03ASgPrhdyE8Fhd6ucfK3kfiGTte9+5jgdiVjP0s3srbE6I9NRAWEJguU0gekwe3K3v7H8JG1EQfSNg92NrVZsJQoiW4Xh0Nrg9E88IlvtYApRT9KyGeSImsDxcvGoQ/rZguY0i/TSAaC2wUHk8ja0GS8aXgOvd2CpnTLO5EGt5AWCJG14YWsYWCCHgaXF4qiW8j10NrY3CxIWTsHwpxURLfwU2ht1DQKswSMhQmF7uAWIsElsrYjctLVJDRjMBjmxAFxcAsZQjWytm/ZJfwGoQpi6w2iEgXRLeTR28NG1na0ojlAOADQfFdIJcqjWxh7n7tcagwEJM32u0IqQaY7uIWJ8kZ0ZG1g+NwU9GPbA1dMJRw+Rd8VRLY09PmGMdsQfECjCwZUifzoFvINbOhzDUTZDDDBDIz5klVEt5XTobWxrxFQUMiSoXH5baq57ui2AkXWBsjTJmCOoMFxudxy/hTcVgRYR9aGCoMNQCtGw+NlkhvdVrqhRNaGE+LqUQtpgMzJg+i2UhlaGzmVA4EBOETmF/5Ft5X80Nqye1VDSOrsiiArYf8puK3IU76Rtf3VqLnmijGGa2cEWons6LYmoz9LN7K2b7OCVy0+o9UbwdbkfnRbszf/9YTI2ogHqRRMsN0RbE3IdEW3NTscWhsnqpQo2D77I+BK2CEKbjUw0ZG1geJVhRI2oaMA+UdG4WAcWRtaTFQn6U4sB8zLJXsQ3WqaIYS+eK3IK5N7ekAbMpc/nUrSFd1qrobWxtaqJEh24tcDx8zlJbFDFN1q1kTWBsD/1DxntVnd5fLyfH5DZTnKmr0yBJqsj/6djmThs32oLAuDJvei/6CnD9o4LBMZ5w6BRGf03/M0LXzKxXVlodDEFlH0P/MOdixbJnVl4dBkbfS/8hPFSejWNCd3o/+Tl0zfZbglPfiY6P/38xXMxjRnYpnwo3f7cHJrmi9HK6P3+oGQtjVdLtm96J2+8LHemi5/MQot0fv8af+x68tE07lDsIAfvQOaip4vE1XnDiEz/DN+5HZ7mQg7dwi3oj/hixyfZcuknixUmuBpjv58P6MLH7ReOVm4NDGHH70DOnv9X0/Ylh58TOweyINDW9Oc3Ah2TWCit6YJPvw5eMPGeGOa89usk4XoHdD8ALds6ZSShU/9aHmwfedyz5eOqnMHZzfDh79Z3fGlo+rcwSd4/kYPoiPGqd9LR9a5gzFjIXoHNL3Qli2dOrJQapK+R++AphFgY5qTa8F2Ph+obE0TPH9CIWb7T0NtTu8+JhBfsZyb072PCYP4C6htak6uBPnwOreqeQuX/F3ukbd2e+lIPHfwd1knvKf78NrvZSLy3MFHWQu9fbfby0TnuYO5/DQfXpctkyG9LMzq4Pi94HMNb97t9zKRevBcTOE96s27m9icpD3mrbtb2ZxcXOQDVnM7m2D4ds6Zt25pc2II+zEfnpctk9qy0KsTD3Lfw7eOxTIR+d5hOH/Pg7eOxjIR+d5h/mHE7NvvPXjrcCwTle8d5i7ThH0PX5+XLZMRviw7UD9KArn31u3uZXLu3Vu3vAmWNYDvGz/uIF6ztP/fHaQD+O4g7X932P53hwEA" vertex="1" parent="1">
          <mxGeometry x="702.5" y="322.5" width="115" height="115" as="geometry" />
        </mxCell>
        <mxCell id="erdwm7UFil0JZydvI_QE-8" value="" style="endArrow=classic;html=1;rounded=0;strokeWidth=3;" edge="1" parent="1">
          <mxGeometry width="50" height="50" relative="1" as="geometry">
            <mxPoint x="200" y="385" as="sourcePoint" />
            <mxPoint x="306" y="385" as="targetPoint" />
          </mxGeometry>
        </mxCell>
        <mxCell id="erdwm7UFil0JZydvI_QE-9" value="" style="endArrow=classic;html=1;rounded=0;strokeWidth=3;entryX=0;entryY=0.833;entryDx=0;entryDy=0;entryPerimeter=0;" edge="1" parent="1">
          <mxGeometry width="50" height="50" relative="1" as="geometry">
            <mxPoint x="490" y="383" as="sourcePoint" />
            <mxPoint x="590" y="382.96000000000004" as="targetPoint" />
          </mxGeometry>
        </mxCell>
        <mxCell id="erdwm7UFil0JZydvI_QE-10" value="" style="endArrow=classic;startArrow=classic;html=1;rounded=0;strokeWidth=3;" edge="1" parent="1">
          <mxGeometry width="50" height="50" relative="1" as="geometry">
            <mxPoint x="380" y="300" as="sourcePoint" />
            <mxPoint x="380" y="160" as="targetPoint" />
          </mxGeometry>
        </mxCell>
        <mxCell id="erdwm7UFil0JZydvI_QE-11" value="Text" style="text;html=1;resizable=0;autosize=1;align=center;verticalAlign=middle;points=[];fillColor=none;strokeColor=none;rounded=0;" vertex="1" parent="1">
          <mxGeometry x="630" y="400" width="40" height="20" as="geometry" />
        </mxCell>
        <mxCell id="erdwm7UFil0JZydvI_QE-12" value="&lt;font style=&quot;font-size: 18px&quot;&gt;use&lt;/font&gt;" style="text;html=1;align=center;verticalAlign=middle;resizable=0;points=[];autosize=1;strokeColor=none;fillColor=none;" vertex="1" parent="1">
          <mxGeometry x="220" y="350" width="40" height="20" as="geometry" />
        </mxCell>
        <mxCell id="erdwm7UFil0JZydvI_QE-13" value="&lt;font style=&quot;font-size: 18px&quot;&gt;use&lt;/font&gt;" style="text;html=1;align=center;verticalAlign=middle;resizable=0;points=[];autosize=1;strokeColor=none;fillColor=none;" vertex="1" parent="1">
          <mxGeometry x="510" y="350" width="40" height="20" as="geometry" />
        </mxCell>
        <mxCell id="erdwm7UFil0JZydvI_QE-14" value="&lt;font style=&quot;font-size: 18px&quot;&gt;authentication/&lt;br&gt;token request&lt;br&gt;&lt;/font&gt;" style="text;html=1;align=center;verticalAlign=middle;resizable=0;points=[];autosize=1;strokeColor=none;fillColor=none;" vertex="1" parent="1">
          <mxGeometry x="230" y="210" width="130" height="40" as="geometry" />
        </mxCell>
        <mxCell id="erdwm7UFil0JZydvI_QE-15" value="&lt;span style=&quot;font-size: 18px&quot;&gt;identity token&lt;br&gt;access token&lt;br&gt;&lt;/span&gt;" style="text;html=1;align=center;verticalAlign=middle;resizable=0;points=[];autosize=1;strokeColor=none;fillColor=none;" vertex="1" parent="1">
          <mxGeometry x="414" y="210" width="120" height="40" as="geometry" />
        </mxCell>
        <mxCell id="erdwm7UFil0JZydvI_QE-16" value="&lt;font style=&quot;font-size: 32px&quot;&gt;OpenID Connect&lt;br&gt;Privider&lt;br&gt;&lt;/font&gt;" style="text;html=1;align=left;verticalAlign=middle;resizable=0;points=[];autosize=1;strokeColor=none;fillColor=none;" vertex="1" parent="1">
          <mxGeometry x="340" y="90" width="250" height="50" as="geometry" />
        </mxCell>
      </root>
    </mxGraphModel>
  </diagram>
</mxfile>
